<?xml version="1.0" encoding="UTF-8"?>
<svg version="1.1" xmlns="http://www.w3.org/2000/svg" width="286" height="232">
<path d="M0 0 C2.58786995 1.41081854 2.58786995 1.41081854 5.40625 0.59375 C9.46706839 -1.25162798 13.49073859 -3.15456754 17.49609375 -5.1171875 C40.9597974 -16.39846903 64.24341456 -23.99682017 89.98046875 -15.796875 C99.86026979 -12.01045379 108.63209273 -5.71660692 114.62109375 3.1328125 C115.55859375 6.6328125 115.55859375 6.6328125 115.62109375 9.1328125 C112.41663687 8.55018398 110.8135926 7.64208274 108.49609375 5.3828125 C99.53561328 -2.59911443 89.02098305 -5.37908907 77.265625 -5.1875 C67.61179675 -4.33903921 57.99721896 -1.7963476 49.62109375 3.1328125 C47.89195445 4.04953079 46.16278512 4.96619243 44.43359375 5.8828125 C31.67963459 12.92735468 20.23487551 20.8327679 9.13671875 30.23828125 C8.4509375 30.80160156 7.76515625 31.36492188 7.05859375 31.9453125 C6.50042969 32.42613281 5.94226563 32.90695313 5.3671875 33.40234375 C3.62109375 34.1328125 3.62109375 34.1328125 1.32568359 33.34594727 C-1.32705837 32.15606869 -3.85422117 30.85932451 -6.3984375 29.453125 C-7.33880859 28.93621094 -8.27917969 28.41929688 -9.24804688 27.88671875 C-10.21935547 27.34917969 -11.19066406 26.81164063 -12.19140625 26.2578125 C-18.52999788 22.75860342 -24.86380835 19.29388593 -31.37890625 16.1328125 C-32.31476563 15.67777344 -33.250625 15.22273438 -34.21484375 14.75390625 C-43.47681349 10.43640344 -52.14310949 7.66494872 -62.37890625 7.1328125 C-63.24257812 7.06835938 -64.10625 7.00390625 -64.99609375 6.9375 C-73.76779259 6.55612179 -83.18716601 8.26575867 -90.31640625 13.6953125 C-99.50940397 22.7968376 -101.50965816 34.43192692 -101.62890625 46.8203125 C-101.40655457 70.34234135 -94.16242782 90.96854665 -84.37890625 112.1328125 C-84.04101074 112.86516113 -83.70311523 113.59750977 -83.35498047 114.35205078 C-77.17292143 127.58171874 -69.52195172 139.82580085 -61.12890625 151.7578125 C-60.74105957 152.31355957 -60.35321289 152.86930664 -59.95361328 153.44189453 C-57.86369854 156.35148782 -55.64678181 158.92117809 -53.08203125 161.40625 C-50.37890625 164.1328125 -50.37890625 164.1328125 -50.37890625 166.1328125 C-49.78335938 166.40609375 -49.1878125 166.679375 -48.57421875 166.9609375 C-46.45243427 168.09356266 -45.00143789 169.24944122 -43.25390625 170.8828125 C-31.35773373 181.28245159 -17.99992581 185.95296371 -2.37890625 185.1328125 C0.06158639 184.64129472 2.25110742 183.92280794 4.62109375 183.1328125 C7.55859375 183.0078125 7.55859375 183.0078125 9.62109375 183.1328125 C9.62109375 184.4528125 9.62109375 185.7728125 9.62109375 187.1328125 C-6.00003524 195.55677211 -20.60615474 198.78548248 -38.06640625 194.5703125 C-72.2697994 184.14332872 -98.11928388 153.66848887 -114.6015625 123.09375 C-116.64887857 119.1616647 -118.54766237 115.16954062 -120.37890625 111.1328125 C-120.84272705 110.1123584 -120.84272705 110.1123584 -121.31591797 109.07128906 C-134.01622574 80.69642476 -141.9225033 44.96584311 -130.8671875 14.765625 C-127.79787739 7.069352 -124.01984184 0.25408977 -118.37890625 -5.8671875 C-117.80914062 -6.53878906 -117.239375 -7.21039062 -116.65234375 -7.90234375 C-84.83503926 -43.03677148 -32.43638024 -22.9439028 0 0 Z " fill="#BD1A27" transform="translate(137.37890625,29.8671875)"/>
<path d="M0 0 C3.70825289 2.08882599 6.63669603 4.91008808 8 9 C8.78805292 13.05649342 9.12821613 16.89815843 9.1328125 21.02734375 C9.13410156 22.14947266 9.13539063 23.27160156 9.13671875 24.42773438 C9.13285156 25.58595703 9.12898438 26.74417969 9.125 27.9375 C9.12886719 29.09185547 9.13273437 30.24621094 9.13671875 31.43554688 C9.13542969 32.55896484 9.13414062 33.68238281 9.1328125 34.83984375 C9.13168457 35.85425537 9.13055664 36.86866699 9.12939453 37.91381836 C8.98630382 41.32666679 8.53230211 44.62778422 8 48 C9.7171521 47.9685791 9.7171521 47.9685791 11.46899414 47.93652344 C15.73855963 47.86382199 20.00807099 47.81809121 24.27807617 47.78027344 C26.12191994 47.76022639 27.96570068 47.7329812 29.80932617 47.69824219 C32.4680949 47.64941792 35.12601915 47.62696228 37.78515625 47.609375 C38.60210464 47.58872986 39.41905304 47.56808472 40.26075745 47.54681396 C45.99594403 47.54459331 49.26831487 48.7300369 54 52 C57.1818659 55.64198866 58.33766954 59.76925586 58.125 64.5625 C57.30934606 69.46492002 54.77447843 72.84521206 51 76 C48.2937563 76.90208123 46.76149014 77.12227599 43.98754883 77.11352539 C43.18694534 77.11344986 42.38634186 77.11337433 41.56147766 77.11329651 C40.70201035 77.10813522 39.84254303 77.10297394 38.95703125 77.09765625 C38.0734343 77.0962413 37.18983734 77.09482635 36.27946472 77.09336853 C33.45710872 77.08777069 30.63483203 77.07521861 27.8125 77.0625 C25.89908969 77.05748472 23.98567813 77.05292186 22.07226562 77.04882812 C17.38147986 77.03780197 12.69075337 77.02053883 8 77 C8.0407666 78.04865234 8.0815332 79.09730469 8.12353516 80.17773438 C8.27291696 84.09859477 8.40719671 88.01985651 8.53710938 91.94140625 C8.59521608 93.63295713 8.65732219 95.32437586 8.72363281 97.015625 C8.8186815 99.45808817 8.89894764 101.90067791 8.9765625 104.34375 C9.00875885 105.08991577 9.0409552 105.83608154 9.0741272 106.6048584 C9.2513706 112.93252768 8.77249037 118.7351512 4.75 123.875 C0.46556912 127.18569659 -2.52814219 128 -7.9375 128 C-12.67352657 127.25316504 -15.92619871 124.58164673 -19 121 C-19.88565586 118.34303242 -20.1450262 116.71809917 -20.20532227 113.98754883 C-20.2352401 112.7866436 -20.2352401 112.7866436 -20.26576233 111.56147766 C-20.28247482 110.70201035 -20.29918732 109.84254303 -20.31640625 108.95703125 C-20.33718735 108.0734343 -20.35796844 107.18983734 -20.37937927 106.27946472 C-20.44475754 103.45722215 -20.50370528 100.63488665 -20.5625 97.8125 C-20.60569637 95.89907894 -20.64931102 93.98566727 -20.69335938 92.07226562 C-20.80042695 87.38160563 -20.90172752 82.69085217 -21 78 C-22.76259155 78.00169189 -22.76259155 78.00169189 -24.56079102 78.00341797 C-28.94278608 77.99973212 -33.32368843 77.95680687 -37.70532227 77.90234375 C-39.59750303 77.88423521 -41.4898155 77.87660588 -43.38208008 77.87988281 C-46.11121488 77.88275483 -48.83764735 77.8472889 -51.56640625 77.8046875 C-52.40522842 77.81378143 -53.2440506 77.82287537 -54.10829163 77.83224487 C-59.67865948 77.696048 -62.59610323 76.39360956 -66.65391541 72.56497192 C-69.71423258 69.0070154 -70.20191371 65.52517396 -69.875 61 C-69.05903647 56.03780318 -66.88337835 52.50585582 -62.93676758 49.3503418 C-58.82456849 47.45953016 -55.23282674 47.62550217 -50.76171875 47.70703125 C-49.44056816 47.71339851 -49.44056816 47.71339851 -48.09272766 47.71989441 C-45.2906689 47.73663356 -42.48933991 47.7742767 -39.6875 47.8125 C-37.78321354 47.82755301 -35.87891576 47.84124034 -33.97460938 47.85351562 C-29.31612678 47.88652146 -24.65818695 47.93827071 -20 48 C-20.01571045 46.8447583 -20.0314209 45.6895166 -20.04760742 44.49926758 C-20.10200369 40.20360313 -20.13638533 35.907969 -20.16479492 31.61206055 C-20.17985946 29.75458655 -20.20031509 27.89714799 -20.22631836 26.03979492 C-20.26280459 23.36628461 -20.2797497 20.69324556 -20.29296875 18.01953125 C-20.30845261 17.19226028 -20.32393646 16.36498932 -20.33988953 15.51264954 C-20.34125088 10.82387817 -20.01396239 7.82169891 -17 4 C-11.46279111 -0.983488 -7.1132303 -1.78437688 0 0 Z " fill="#44ACE0" transform="translate(148,70)"/>
<path d="M0 0 C0.9178125 0.00451172 1.835625 0.00902344 2.78125 0.01367188 C5.02090391 0.02533674 7.26041545 0.04170386 9.5 0.0625 C11.24110053 3.07115774 11.55710268 3.75855473 10.8828125 7.34765625 C8.0322017 15.90834149 4.81446757 23.35773422 -1.5 30.0625 C-2.16 30.0625 -2.82 30.0625 -3.5 30.0625 C-3.77070313 30.66191406 -4.04140625 31.26132813 -4.3203125 31.87890625 C-8.7432582 40.06574944 -18.48384381 43.25076066 -26.88671875 45.78125 C-36.2582359 48.06944808 -45.90381352 48.2295516 -55.5 48.0625 C-56.85185832 41.03283675 -56.05562638 35.02039256 -54.5 28.0625 C-54.33886719 27.33804688 -54.17773438 26.61359375 -54.01171875 25.8671875 C-51.86081963 18.63899589 -46.28289112 12.67995497 -40.1796875 8.45703125 C-27.6788725 1.75279878 -13.95596684 -0.13185143 0 0 Z " fill="#88C61F" transform="translate(267.5,70.9375)"/>
<path d="M0 0 C2.58786995 1.41081854 2.58786995 1.41081854 5.40625 0.59375 C9.46706839 -1.25162798 13.49073859 -3.15456754 17.49609375 -5.1171875 C40.9597974 -16.39846903 64.24341456 -23.99682017 89.98046875 -15.796875 C99.86026979 -12.01045379 108.63209273 -5.71660692 114.62109375 3.1328125 C115.55859375 6.6328125 115.55859375 6.6328125 115.62109375 9.1328125 C112.36566146 8.78401618 111.60236268 8.11147989 109.37109375 5.5703125 C108.79359375 4.7659375 108.21609375 3.9615625 107.62109375 3.1328125 C109.60109375 4.1228125 109.60109375 4.1228125 111.62109375 5.1328125 C107.44413878 -4.43241438 95.73098749 -10.41531732 86.49609375 -14.1796875 C76.69672463 -17.29531805 65.81413788 -16.72376281 55.62109375 -16.8671875 C55.62109375 -16.2071875 55.62109375 -15.5471875 55.62109375 -14.8671875 C54.66589844 -14.70863281 53.71070313 -14.55007813 52.7265625 -14.38671875 C45.3112868 -13.0485683 38.93307298 -11.43568023 32.12890625 -8.07421875 C27.52040365 -5.85610769 22.77004057 -3.8671875 17.62109375 -3.8671875 C17.62109375 -3.2071875 17.62109375 -2.5471875 17.62109375 -1.8671875 C12.1298906 1.96001469 6.39811543 4.82745722 -0.37890625 4.1328125 C-3.1953125 2.48828125 -3.1953125 2.48828125 -5.94140625 0.3203125 C-8.65856453 -1.79560225 -11.23284227 -3.78300482 -14.21875 -5.50390625 C-14.93160156 -5.95378906 -15.64445312 -6.40367188 -16.37890625 -6.8671875 C-16.37890625 -7.5271875 -16.37890625 -8.1871875 -16.37890625 -8.8671875 C-16.94222656 -9.00253906 -17.50554687 -9.13789063 -18.0859375 -9.27734375 C-20.44057572 -9.88305137 -22.7501512 -10.565783 -25.06640625 -11.3046875 C-25.85402344 -11.55089844 -26.64164062 -11.79710937 -27.453125 -12.05078125 C-29.37890625 -12.8671875 -29.37890625 -12.8671875 -30.37890625 -14.8671875 C-32.37940648 -15.78852436 -32.37940648 -15.78852436 -34.82421875 -16.55859375 C-36.19320312 -17.01588867 -36.19320312 -17.01588867 -37.58984375 -17.48242188 C-38.55148438 -17.79501953 -39.513125 -18.10761719 -40.50390625 -18.4296875 C-41.44234375 -18.74615234 -42.38078125 -19.06261719 -43.34765625 -19.38867188 C-59.47383426 -24.70760034 -79.13702329 -25.19655534 -95.37890625 -19.8671875 C-95.37890625 -19.2071875 -95.37890625 -18.5471875 -95.37890625 -17.8671875 C-95.9615625 -17.70605469 -96.54421875 -17.54492188 -97.14453125 -17.37890625 C-107.66803377 -13.88761847 -117.24685346 -5.12230344 -122.72265625 4.4921875 C-123.95211495 7.03417644 -125.1730782 9.57951946 -126.37890625 12.1328125 C-126.75402344 12.87917969 -127.12914063 13.62554687 -127.515625 14.39453125 C-132.15438471 23.9996954 -132.74535529 34.03993553 -132.69140625 44.5703125 C-132.6872168 45.69832275 -132.68302734 46.82633301 -132.67871094 47.98852539 C-132.50491675 61.07763131 -131.46326847 74.33801996 -126.41796875 86.546875 C-124.77623287 90.63269889 -123.62958706 94.86329296 -122.40625 99.08984375 C-121.32513772 102.29207365 -119.92166152 105.12809462 -118.37890625 108.1328125 C-117.95480469 109.18210938 -117.53070313 110.23140625 -117.09375 111.3125 C-114.87710423 116.5591866 -111.8512528 121.37447225 -108.94140625 126.2578125 C-108.36841797 127.23363281 -107.79542969 128.20945313 -107.20507812 129.21484375 C-104.4989967 133.77999376 -101.78281866 138.04811761 -98.37890625 142.1328125 C-97.91355469 142.926875 -97.44820312 143.7209375 -96.96875 144.5390625 C-94.9320301 147.86186843 -92.48888485 150.69315179 -89.94140625 153.6328125 C-88.98374421 154.7468539 -88.02670312 155.86142941 -87.0703125 156.9765625 C-86.61043945 157.51095947 -86.15056641 158.04535645 -85.67675781 158.59594727 C-84.51073644 159.97670433 -83.38898009 161.39455512 -82.2734375 162.81640625 C-77.80866488 168.27539628 -72.22850776 172.27456469 -66.37890625 176.1328125 C-65.28719053 177.10262448 -64.20441074 178.08255313 -63.12890625 179.0703125 C-51.60685157 189.12362175 -33.34977902 194.77547793 -18.30078125 194.3515625 C-11.15533593 193.81660937 -4.76823776 190.7826499 1.828125 188.15625 C4.62109375 187.1328125 4.62109375 187.1328125 6.62109375 187.1328125 C6.62109375 186.4728125 6.62109375 185.8128125 6.62109375 185.1328125 C5.14769531 185.85597656 5.14769531 185.85597656 3.64453125 186.59375 C-5.28061693 190.38682602 -16.28165688 189.29973591 -25.20458984 186.02832031 C-35.30665269 181.86771325 -42.7089949 175.83817799 -50.37890625 168.1328125 C-51.16910156 167.37742188 -51.95929688 166.62203125 -52.7734375 165.84375 C-58.69675418 160.1213859 -64.01737028 154.15025585 -68.37890625 147.1328125 C-68.37890625 146.4728125 -68.37890625 145.8128125 -68.37890625 145.1328125 C-69.03890625 145.1328125 -69.69890625 145.1328125 -70.37890625 145.1328125 C-71.38399426 143.34399514 -72.38283361 141.55166554 -73.37890625 139.7578125 C-74.21421875 138.26121094 -74.21421875 138.26121094 -75.06640625 136.734375 C-76.37890625 134.1328125 -76.37890625 134.1328125 -76.37890625 132.1328125 C-77.03890625 132.1328125 -77.69890625 132.1328125 -78.37890625 132.1328125 C-78.806875 131.10929688 -79.23484375 130.08578125 -79.67578125 129.03125 C-81.17869772 125.52385828 -82.87296401 122.14661691 -84.62890625 118.7578125 C-91.49116622 105.17996122 -96.63094137 91.24262068 -100.68334961 76.58300781 C-101.15645994 74.91641066 -101.6639638 73.25927906 -102.20141602 71.61230469 C-104.64004643 63.76986627 -104.86136433 56.30700895 -104.81640625 48.1328125 C-104.84637695 46.19921875 -104.84637695 46.19921875 -104.87695312 44.2265625 C-104.87098245 32.4762775 -102.41117327 22.92814489 -94.37890625 14.1328125 C-86.43666917 6.53589008 -79.58073054 4.46148655 -68.75390625 4.6953125 C-67.69373291 4.7070752 -66.63355957 4.71883789 -65.54125977 4.73095703 C-57.48821245 4.90681192 -50.13104322 5.86578243 -42.37890625 8.1328125 C-41.58871094 8.34550781 -40.79851562 8.55820312 -39.984375 8.77734375 C-38.44106039 9.20046156 -36.907617 9.65964012 -35.37890625 10.1328125 C-35.37890625 10.7928125 -35.37890625 11.4528125 -35.37890625 12.1328125 C-34.70601563 12.22691406 -34.033125 12.32101563 -33.33984375 12.41796875 C-29.6312144 13.31332386 -26.39082475 14.86243207 -23.00390625 16.5703125 C-22.31071289 16.91650635 -21.61751953 17.2627002 -20.90332031 17.61938477 C-15.05526804 20.62084663 -9.62001981 24.10709251 -4.25244141 27.89428711 C-0.14499715 30.78293592 -0.14499715 30.78293592 4.62109375 32.1328125 C4.96140625 31.27623047 4.96140625 31.27623047 5.30859375 30.40234375 C9.4254419 23.28362716 18.64307772 18.27072836 25.3359375 13.69921875 C27.40387879 12.28170686 29.41936851 10.81249232 31.43359375 9.3203125 C34.23698616 7.39641575 36.50517554 6.37083357 39.62109375 5.1328125 C41.36236172 4.19664692 43.09116507 3.2370259 44.80859375 2.2578125 C55.49681589 -3.64012973 65.66670325 -7.22371798 77.93359375 -7.1796875 C78.81982422 -7.19580078 79.70605469 -7.21191406 80.61914062 -7.22851562 C87.22850126 -7.23333646 95.26009019 -6.89213674 100.40356445 -2.26293945 C100.80534912 -1.80234131 101.20713379 -1.34174316 101.62109375 -0.8671875 C100.95722656 -1.07214844 100.29335937 -1.27710937 99.609375 -1.48828125 C98.72636719 -1.75769531 97.84335938 -2.02710937 96.93359375 -2.3046875 C96.06347656 -2.57152344 95.19335938 -2.83835937 94.296875 -3.11328125 C80.84345015 -6.90380825 65.8830604 -5.12481673 53.30859375 1.0078125 C52.07255996 1.70409354 50.84375313 2.41330513 49.62109375 3.1328125 C47.89195445 4.04953079 46.16278512 4.96619243 44.43359375 5.8828125 C31.67963459 12.92735468 20.23487551 20.8327679 9.13671875 30.23828125 C8.4509375 30.80160156 7.76515625 31.36492188 7.05859375 31.9453125 C6.50042969 32.42613281 5.94226563 32.90695313 5.3671875 33.40234375 C3.62109375 34.1328125 3.62109375 34.1328125 1.32568359 33.34594727 C-1.32705837 32.15606869 -3.85422117 30.85932451 -6.3984375 29.453125 C-7.33880859 28.93621094 -8.27917969 28.41929688 -9.24804688 27.88671875 C-10.21935547 27.34917969 -11.19066406 26.81164063 -12.19140625 26.2578125 C-18.52999788 22.75860342 -24.86380835 19.29388593 -31.37890625 16.1328125 C-32.31476563 15.67777344 -33.250625 15.22273438 -34.21484375 14.75390625 C-43.47681349 10.43640344 -52.14310949 7.66494872 -62.37890625 7.1328125 C-63.24257812 7.06835938 -64.10625 7.00390625 -64.99609375 6.9375 C-73.76779259 6.55612179 -83.18716601 8.26575867 -90.31640625 13.6953125 C-99.50940397 22.7968376 -101.50965816 34.43192692 -101.62890625 46.8203125 C-101.40655457 70.34234135 -94.16242782 90.96854665 -84.37890625 112.1328125 C-84.04101074 112.86516113 -83.70311523 113.59750977 -83.35498047 114.35205078 C-77.17292143 127.58171874 -69.52195172 139.82580085 -61.12890625 151.7578125 C-60.74105957 152.31355957 -60.35321289 152.86930664 -59.95361328 153.44189453 C-57.86369854 156.35148782 -55.64678181 158.92117809 -53.08203125 161.40625 C-50.37890625 164.1328125 -50.37890625 164.1328125 -50.37890625 166.1328125 C-49.78335938 166.40609375 -49.1878125 166.679375 -48.57421875 166.9609375 C-46.45243427 168.09356266 -45.00143789 169.24944122 -43.25390625 170.8828125 C-31.35773373 181.28245159 -17.99992581 185.95296371 -2.37890625 185.1328125 C0.06158639 184.64129472 2.25110742 183.92280794 4.62109375 183.1328125 C7.55859375 183.0078125 7.55859375 183.0078125 9.62109375 183.1328125 C9.62109375 184.4528125 9.62109375 185.7728125 9.62109375 187.1328125 C-6.00003524 195.55677211 -20.60615474 198.78548248 -38.06640625 194.5703125 C-72.2697994 184.14332872 -98.11928388 153.66848887 -114.6015625 123.09375 C-116.64887857 119.1616647 -118.54766237 115.16954062 -120.37890625 111.1328125 C-120.84272705 110.1123584 -120.84272705 110.1123584 -121.31591797 109.07128906 C-134.01622574 80.69642476 -141.9225033 44.96584311 -130.8671875 14.765625 C-127.79787739 7.069352 -124.01984184 0.25408977 -118.37890625 -5.8671875 C-117.80914062 -6.53878906 -117.239375 -7.21039062 -116.65234375 -7.90234375 C-84.83503926 -43.03677148 -32.43638024 -22.9439028 0 0 Z " fill="#180607" transform="translate(137.37890625,29.8671875)"/>
<path d="M0 0 C6.52278373 0.94447547 10.93276737 7.39813824 14.8125 12.28125 C20.42860969 20.25612576 22.53461776 27.98502039 22.375 37.6875 C22.36919922 38.55020508 22.36339844 39.41291016 22.35742188 40.30175781 C22.20705833 47.80601226 21.01467465 54.75676496 19 62 C16.525 62.495 16.525 62.495 14 63 C14 63.66 14 64.32 14 65 C9.94773571 65.70474162 7.98820778 65.6219807 4.44921875 63.39453125 C-4.20999733 56.55695767 -8.68575735 50.61400349 -10.359375 39.64453125 C-11.09357622 26.81640432 -6.84987289 10.81405465 0 0 Z " fill="#88C61F" transform="translate(189,51)"/>
<path d="M0 0 C3.70825289 2.08882599 6.63669603 4.91008808 8 9 C8.78805292 13.05649342 9.12821613 16.89815843 9.1328125 21.02734375 C9.13410156 22.14947266 9.13539063 23.27160156 9.13671875 24.42773438 C9.13285156 25.58595703 9.12898438 26.74417969 9.125 27.9375 C9.12886719 29.09185547 9.13273437 30.24621094 9.13671875 31.43554688 C9.13542969 32.55896484 9.13414062 33.68238281 9.1328125 34.83984375 C9.13168457 35.85425537 9.13055664 36.86866699 9.12939453 37.91381836 C8.98630382 41.32666679 8.53230211 44.62778422 8 48 C9.7171521 47.9685791 9.7171521 47.9685791 11.46899414 47.93652344 C15.73855963 47.86382199 20.00807099 47.81809121 24.27807617 47.78027344 C26.12191994 47.76022639 27.96570068 47.7329812 29.80932617 47.69824219 C32.4680949 47.64941792 35.12601915 47.62696228 37.78515625 47.609375 C38.60210464 47.58872986 39.41905304 47.56808472 40.26075745 47.54681396 C45.99594403 47.54459331 49.26831487 48.7300369 54 52 C57.1818659 55.64198866 58.33766954 59.76925586 58.125 64.5625 C57.30934606 69.46492002 54.77447843 72.84521206 51 76 C48.2937563 76.90208123 46.76149014 77.12227599 43.98754883 77.11352539 C43.18694534 77.11344986 42.38634186 77.11337433 41.56147766 77.11329651 C40.70201035 77.10813522 39.84254303 77.10297394 38.95703125 77.09765625 C38.0734343 77.0962413 37.18983734 77.09482635 36.27946472 77.09336853 C33.45710872 77.08777069 30.63483203 77.07521861 27.8125 77.0625 C25.89908969 77.05748472 23.98567813 77.05292186 22.07226562 77.04882812 C17.38147986 77.03780197 12.69075337 77.02053883 8 77 C8.0407666 78.04865234 8.0815332 79.09730469 8.12353516 80.17773438 C8.27291696 84.09859477 8.40719671 88.01985651 8.53710938 91.94140625 C8.59521608 93.63295713 8.65732219 95.32437586 8.72363281 97.015625 C8.8186815 99.45808817 8.89894764 101.90067791 8.9765625 104.34375 C9.00875885 105.08991577 9.0409552 105.83608154 9.0741272 106.6048584 C9.2513706 112.93252768 8.77249037 118.7351512 4.75 123.875 C0.46556912 127.18569659 -2.52814219 128 -7.9375 128 C-12.67352657 127.25316504 -15.92619871 124.58164673 -19 121 C-19.88565586 118.34303242 -20.1450262 116.71809917 -20.20532227 113.98754883 C-20.2352401 112.7866436 -20.2352401 112.7866436 -20.26576233 111.56147766 C-20.28247482 110.70201035 -20.29918732 109.84254303 -20.31640625 108.95703125 C-20.33718735 108.0734343 -20.35796844 107.18983734 -20.37937927 106.27946472 C-20.44475754 103.45722215 -20.50370528 100.63488665 -20.5625 97.8125 C-20.60569637 95.89907894 -20.64931102 93.98566727 -20.69335938 92.07226562 C-20.80042695 87.38160563 -20.90172752 82.69085217 -21 78 C-22.76259155 78.00169189 -22.76259155 78.00169189 -24.56079102 78.00341797 C-28.94278608 77.99973212 -33.32368843 77.95680687 -37.70532227 77.90234375 C-39.59750303 77.88423521 -41.4898155 77.87660588 -43.38208008 77.87988281 C-46.11121488 77.88275483 -48.83764735 77.8472889 -51.56640625 77.8046875 C-52.40522842 77.81378143 -53.2440506 77.82287537 -54.10829163 77.83224487 C-59.67865948 77.696048 -62.59610323 76.39360956 -66.65391541 72.56497192 C-69.71423258 69.0070154 -70.20191371 65.52517396 -69.875 61 C-69.05903647 56.03780318 -66.88337835 52.50585582 -62.93676758 49.3503418 C-58.82456849 47.45953016 -55.23282674 47.62550217 -50.76171875 47.70703125 C-49.44056816 47.71339851 -49.44056816 47.71339851 -48.09272766 47.71989441 C-45.2906689 47.73663356 -42.48933991 47.7742767 -39.6875 47.8125 C-37.78321354 47.82755301 -35.87891576 47.84124034 -33.97460938 47.85351562 C-29.31612678 47.88652146 -24.65818695 47.93827071 -20 48 C-20.01571045 46.8447583 -20.0314209 45.6895166 -20.04760742 44.49926758 C-20.10200369 40.20360313 -20.13638533 35.907969 -20.16479492 31.61206055 C-20.17985946 29.75458655 -20.20031509 27.89714799 -20.22631836 26.03979492 C-20.26280459 23.36628461 -20.2797497 20.69324556 -20.29296875 18.01953125 C-20.30845261 17.19226028 -20.32393646 16.36498932 -20.33988953 15.51264954 C-20.34125088 10.82387817 -20.01396239 7.82169891 -17 4 C-11.46279111 -0.983488 -7.1132303 -1.78437688 0 0 Z M-17.11621094 6.50244141 C-19.53968189 11.00200659 -19.51335463 14.31869054 -19.390625 19.3359375 C-19.38213531 20.65496567 -19.38213531 20.65496567 -19.37347412 22.00064087 C-19.35119084 24.79266182 -19.30101063 27.58337092 -19.25 30.375 C-19.22992454 32.27472097 -19.21167561 34.17446218 -19.1953125 36.07421875 C-19.15135256 40.71664666 -19.08238182 45.35810137 -19 50 C-20.1552417 49.98952637 -21.3104834 49.97905273 -22.50073242 49.96826172 C-26.79643644 49.93199721 -31.09212698 49.90907602 -35.38793945 49.89013672 C-37.24538449 49.88009385 -39.10281379 49.86645696 -40.96020508 49.84912109 C-43.63366591 49.82479739 -46.30691726 49.81349967 -48.98046875 49.8046875 C-49.80773972 49.79436493 -50.63501068 49.78404236 -51.48735046 49.77340698 C-57.46344938 49.77225024 -61.20599542 50.40532926 -65.8125 54.5 C-68.55485111 58.02340048 -68.65396113 61.37939891 -68.42578125 65.734375 C-67.82756242 68.91755775 -66.59542721 70.12552479 -64 72 C-63.22994629 73.02818848 -63.22994629 73.02818848 -62.44433594 74.07714844 C-58.71903617 77.0076779 -55.24635988 76.49914844 -50.640625 76.390625 C-49.73624695 76.38496521 -48.8318689 76.37930542 -47.90008545 76.37347412 C-45.01618147 76.35111248 -42.13352739 76.30091686 -39.25 76.25 C-37.29298671 76.22993471 -35.33595392 76.21168399 -33.37890625 76.1953125 C-28.58545711 76.15124839 -23.79294035 76.08222252 -19 76 C-19.02094727 77.13953125 -19.04189453 78.2790625 -19.06347656 79.453125 C-19.13626614 83.70966869 -19.18194042 87.96615814 -19.21972656 92.22314453 C-19.23975373 94.06015293 -19.26698382 95.89709829 -19.30175781 97.73388672 C-19.35067065 100.38525002 -19.37305763 103.03576541 -19.390625 105.6875 C-19.41127014 106.49928711 -19.43191528 107.31107422 -19.45318604 108.14746094 C-19.45575403 114.77904467 -17.61100142 119.90547979 -13.3125 125 C-9.54602913 126.62874416 -6.02056812 126.74558196 -2 126 C1.23278257 124.33918358 3.38901631 122.11684493 5.14794922 118.90161133 C6.34524955 114.82427195 6.24669358 110.98837627 6.1953125 106.76171875 C6.19106766 105.44056816 6.19106766 105.44056816 6.18673706 104.09272766 C6.17557833 101.29084455 6.15048171 98.48928584 6.125 95.6875 C6.11496463 93.78320775 6.10583975 91.87891048 6.09765625 89.97460938 C6.07565309 85.31628203 6.04115294 80.65819594 6 76 C7.205354 76.02618408 8.41070801 76.05236816 9.65258789 76.0793457 C14.14572419 76.17018398 18.63878012 76.2273711 23.13256836 76.2746582 C25.07346265 76.299726 27.01426324 76.33378955 28.95483398 76.37719727 C31.75267711 76.43819154 34.54926711 76.46628687 37.34765625 76.48828125 C38.63870018 76.52699089 38.63870018 76.52699089 39.95582581 76.56648254 C46.20558639 76.56935977 49.32717406 75.19555851 54 71 C54.97669162 68.06992515 55.29602886 65.81949506 55.4375 62.75 C55.49808594 61.83734375 55.55867188 60.9246875 55.62109375 59.984375 C54.70314303 55.5735929 52.5273196 52.78363147 49 50 C45.73233396 49.01428852 42.62137969 49.04314215 39.2265625 49.09765625 C38.3028183 49.08536484 37.3790741 49.07307343 36.42733765 49.06040955 C33.49241026 49.02875152 30.56000443 49.04493521 27.625 49.0625 C25.62888297 49.04938682 23.63278387 49.03314488 21.63671875 49.01367188 C16.75727647 48.97287923 11.87953066 48.97497189 7 49 C6.970271 47.46460571 6.970271 47.46460571 6.93994141 45.89819336 C6.86347278 42.07552825 6.77482133 38.25322345 6.68261719 34.4309082 C6.64449701 32.78124135 6.6096155 31.13149618 6.578125 29.48168945 C6.5321034 27.10079079 6.47417365 24.72042348 6.4140625 22.33984375 C6.40251129 21.61039047 6.39096008 20.88093719 6.37905884 20.12937927 C6.20525951 14.00478075 5.59346955 8.78316831 1.375 4.0625 C-4.90042957 0.22751526 -12.2024568 0.69187611 -17.11621094 6.50244141 Z " fill="#070E0F" transform="translate(148,70)"/>
<path d="M0 0 C0.9178125 0.00451172 1.835625 0.00902344 2.78125 0.01367188 C5.02090391 0.02533674 7.26041545 0.04170386 9.5 0.0625 C11.24110053 3.07115774 11.55710268 3.75855473 10.8828125 7.34765625 C8.0322017 15.90834149 4.81446757 23.35773422 -1.5 30.0625 C-2.16 30.0625 -2.82 30.0625 -3.5 30.0625 C-3.77070313 30.66191406 -4.04140625 31.26132813 -4.3203125 31.87890625 C-8.7432582 40.06574944 -18.48384381 43.25076066 -26.88671875 45.78125 C-36.2582359 48.06944808 -45.90381352 48.2295516 -55.5 48.0625 C-56.85185832 41.03283675 -56.05562638 35.02039256 -54.5 28.0625 C-54.33886719 27.33804688 -54.17773438 26.61359375 -54.01171875 25.8671875 C-51.86081963 18.63899589 -46.28289112 12.67995497 -40.1796875 8.45703125 C-27.6788725 1.75279878 -13.95596684 -0.13185143 0 0 Z M-34.5 8.0625 C-36.0159375 8.7121875 -36.0159375 8.7121875 -37.5625 9.375 C-45.84496261 14.13301043 -50.27552714 19.97732985 -53.5 29.0625 C-54.1920876 33.07842937 -54.48555893 36.9901175 -54.5 41.0625 C-47.66018724 40.54628772 -41.86123316 38.57659031 -35.5 36.0625 C-35.5 35.4025 -35.5 34.7425 -35.5 34.0625 C-34.80519531 33.815 -34.11039063 33.5675 -33.39453125 33.3125 C-30.05975671 31.87238144 -27.21245485 30.07174962 -24.1875 28.0625 C-23.11886719 27.36125 -22.05023438 26.66 -20.94921875 25.9375 C-20.14097656 25.31875 -19.33273438 24.7 -18.5 24.0625 C-18.5 23.4025 -18.5 22.7425 -18.5 22.0625 C-17.51 22.0625 -16.52 22.0625 -15.5 22.0625 C-25.38145051 32.85452786 -37.5417053 40.65027686 -51.5 45.0625 C-51.5 45.7225 -51.5 46.3825 -51.5 47.0625 C-32.85404116 46.24071762 -16.7806021 43.17313973 -3.5 29.0625 C2.82601915 21.39730341 8.9934461 12.29029186 8.5 2.0625 C-6.46506036 1.65229022 -20.52409007 1.96392112 -34.5 8.0625 Z " fill="#232D0D" transform="translate(267.5,70.9375)"/>
<path d="M0 0 C6.52278373 0.94447547 10.93276737 7.39813824 14.8125 12.28125 C20.42860969 20.25612576 22.53461776 27.98502039 22.375 37.6875 C22.36919922 38.55020508 22.36339844 39.41291016 22.35742188 40.30175781 C22.20705833 47.80601226 21.01467465 54.75676496 19 62 C16.525 62.495 16.525 62.495 14 63 C14 63.66 14 64.32 14 65 C9.94773571 65.70474162 7.98820778 65.6219807 4.44921875 63.39453125 C-4.20999733 56.55695767 -8.68575735 50.61400349 -10.359375 39.64453125 C-11.09357622 26.81640432 -6.84987289 10.81405465 0 0 Z M0 3 C-6.50391284 14.55827326 -10.49217525 31.97827399 -7.265625 44.953125 C-4.99101104 51.92612189 -1.63018976 58.29489396 5 62 C7.32811871 62.36799296 9.66159835 62.70430884 12 63 C11.58019832 51.43373997 10.25881283 40.35088965 8 29 C12.17516424 40.14653939 14.9647012 50.0337064 15 62 C18.21003169 60.32958764 18.21003169 60.32958764 18.73046875 57.41015625 C21.90478451 36.98496374 21.90478451 36.98496374 16 18 C15.46761719 17.15050781 14.93523437 16.30101562 14.38671875 15.42578125 C11.12174107 10.46677968 7.92320886 6.35673331 3 3 C2.01 3 1.02 3 0 3 Z " fill="#121707" transform="translate(189,51)"/>
<path d="M0 0 C0 0.33 0 0.66 0 1 C-0.75619629 1.03963867 -1.51239258 1.07927734 -2.29150391 1.12011719 C-5.73733686 1.31134692 -9.18086379 1.53039514 -12.625 1.75 C-13.81480469 1.811875 -15.00460938 1.87375 -16.23046875 1.9375 C-23.29371708 2.41101385 -27.88729076 2.88729076 -33 8 C-35.67058851 8.14115161 -38.32432238 8.04247107 -41 8 C-41.226875 8.61875 -41.45375 9.2375 -41.6875 9.875 C-43.42105024 12.68170038 -44.93204192 12.84099361 -48 14 C-49.27442234 14.75172057 -50.52395105 15.54672463 -51.75 16.375 C-52.34296875 16.77460938 -52.9359375 17.17421875 -53.546875 17.5859375 C-55.32073656 19.31211461 -55.43645673 20.63894804 -56 23 C-57.66666667 23.66666667 -59.33333333 24.33333333 -61 25 C-61.65213292 27.02463255 -61.65213292 27.02463255 -62 29 C-62.99 29.33 -63.98 29.66 -65 30 C-64.938125 30.721875 -64.87625 31.44375 -64.8125 32.1875 C-65 35 -65 35 -66.34375 37.046875 C-71.97008838 47.07874248 -74.19450574 61.67816299 -73 73 C-72.91685547 73.82757813 -72.83371094 74.65515625 -72.74804688 75.5078125 C-71.5163168 87.35199836 -69.84140633 98.69351255 -66 110 C-63.16666667 118.5 -63.16666667 118.5 -62.3125 121.1875 C-62.04050781 122.02667969 -61.76851562 122.86585938 -61.48828125 123.73046875 C-61 126 -61 126 -62 129 C-65.32738403 122.09875906 -67.63890315 115.08233009 -69.8515625 107.76953125 C-70.5499843 105.47709235 -71.28324374 103.19439734 -72.078125 100.93359375 C-75.32047197 90.61578622 -75.19981085 79.39756116 -75.25 68.6875 C-75.25918457 67.60307617 -75.26836914 66.51865234 -75.27783203 65.40136719 C-75.20793803 47.0667727 -69.58434225 30.25207586 -56.4375 17.125 C-46.81006346 7.75702629 -46.81006346 7.75702629 -41.1875 6.75 C-40.39730469 6.60046875 -39.60710938 6.4509375 -38.79296875 6.296875 C-38.20128906 6.19890625 -37.60960937 6.1009375 -37 6 C-37 5.34 -37 4.68 -37 4 C-25.00692726 -1.24696932 -12.82632546 -0.40773256 0 0 Z " fill="#972028" transform="translate(79,6)"/>
<path d="M0 0 C3.70825289 2.08882599 6.63669603 4.91008808 8 9 C8.78805292 13.05649342 9.12821613 16.89815843 9.1328125 21.02734375 C9.13410156 22.14947266 9.13539063 23.27160156 9.13671875 24.42773438 C9.13285156 25.58595703 9.12898438 26.74417969 9.125 27.9375 C9.12886719 29.09185547 9.13273437 30.24621094 9.13671875 31.43554688 C9.13542969 32.55896484 9.13414062 33.68238281 9.1328125 34.83984375 C9.13168457 35.85425537 9.13055664 36.86866699 9.12939453 37.91381836 C8.98630382 41.32666679 8.53230211 44.62778422 8 48 C9.73286255 47.97643433 9.73286255 47.97643433 11.50073242 47.95239258 C15.79639687 47.89799631 20.092031 47.86361467 24.38793945 47.83520508 C26.24541345 47.82014054 28.10285201 47.79968491 29.96020508 47.77368164 C32.63371539 47.73719541 35.30675444 47.7202503 37.98046875 47.70703125 C39.2213752 47.68380547 39.2213752 47.68380547 40.48735046 47.66011047 C45.18680757 47.65874602 48.12407525 48.03404523 52 51 C44.96099921 51 37.92127129 50.78322798 30.88427734 50.62768555 C28.87455129 50.58415181 26.86478381 50.54249168 24.85498047 50.50268555 C21.96309682 50.4451886 19.07140971 50.38146298 16.1796875 50.31640625 C14.82349808 50.29133751 14.82349808 50.29133751 13.43991089 50.26576233 C7.11395063 50.11395063 7.11395063 50.11395063 6 49 C5.86450313 46.49016354 5.78941149 44.00399922 5.75390625 41.4921875 C5.72093864 39.93228667 5.68772754 38.37239097 5.65429688 36.8125 C5.60708486 34.35062576 5.56272104 31.8887678 5.52319336 29.42675781 C5.48317508 27.05249955 5.43167337 24.67869204 5.37890625 22.3046875 C5.3704921 21.57837128 5.36207794 20.85205505 5.35340881 20.10372925 C5.21719875 14.39922689 4.75576742 9.01396851 0.875 4.5625 C-3.76759411 2.03935103 -7.78251154 2.45794726 -12.8125 3.6875 C-15.75498977 5.45299386 -16.54249366 6.8710157 -18 10 C-18.46041854 13.07716273 -18.48856597 16.13058026 -18.51171875 19.23828125 C-18.52835571 20.01957397 -18.54499268 20.8008667 -18.56213379 21.60583496 C-18.61970828 24.5077864 -18.65212974 27.410193 -18.6875 30.3125 C-18.790625 36.809375 -18.89375 43.30625 -19 50 C-32.53 50.33 -46.06 50.66 -60 51 C-59.67 50.34 -59.34 49.68 -59 49 C-46.13 49 -33.26 49 -20 49 C-20.03480469 46.17050781 -20.06960937 43.34101562 -20.10546875 40.42578125 C-20.12887951 37.67880258 -20.14708744 34.93183511 -20.16479492 32.18481445 C-20.17986128 30.27883919 -20.20031824 28.37289848 -20.22631836 26.46704102 C-20.26279642 23.72403424 -20.27974792 20.98148672 -20.29296875 18.23828125 C-20.30845261 17.38913651 -20.32393646 16.53999176 -20.33988953 15.66511536 C-20.34123071 10.92732132 -20.06027934 7.85488459 -17 4 C-11.46279111 -0.983488 -7.1132303 -1.78437688 0 0 Z " fill="#0E181E" transform="translate(148,70)"/>
<path d="M0 0 C19.83490922 -0.79447196 35.99707063 0.21674127 51.45703125 14.2265625 C53.35711735 16.11001036 55.20343375 18.0181146 57 20 C56.505 21.485 56.505 21.485 56 23 C55.34 22.34 54.68 21.68 54 21 C52.88625 20.54625 51.7725 20.0925 50.625 19.625 C47 18 47 18 45.1875 16 C39.12532519 10.45744018 29.96046078 10.57092531 22.1875 10.75 C21.27291016 10.75515625 20.35832031 10.7603125 19.41601562 10.765625 C15.16717327 10.81506607 11.13814182 10.92425663 7 12 C9.38573379 10.10786631 11.07175348 8.97608217 14 8 C14 6.02 14 4.04 14 2 C7.07 1.505 7.07 1.505 0 1 C0 0.67 0 0.34 0 0 Z " fill="#B21B26" transform="translate(193,13)"/>
<path d="M0 0 C0.9178125 0.47050781 1.835625 0.94101563 2.78125 1.42578125 C4.02072188 2.05490713 5.2603116 2.68380088 6.5 3.3125 C7.10070312 3.62123047 7.70140625 3.92996094 8.3203125 4.24804688 C16.12632233 8.19257312 22.47395858 10.49556838 31.3125 10.3125 C32.10978516 10.31572266 32.90707031 10.31894531 33.72851562 10.32226562 C37.64519759 10.28603055 39.67575805 10.2161613 43 8 C44.32 8 45.64 8 47 8 C47 8.66 47 9.32 47 10 C46.18015625 10.33773437 45.3603125 10.67546875 44.515625 11.0234375 C43.43796875 11.46945313 42.3603125 11.91546875 41.25 12.375 C40.18265625 12.81585938 39.1153125 13.25671875 38.015625 13.7109375 C35.12762231 14.88834479 35.12762231 14.88834479 32.984375 16.1015625 C21.01368002 21.52136534 7.56259851 17.1560046 -4 13 C-4 12.67 -4 12.34 -4 12 C-2.00045254 11.95745644 0.00041636 11.95919217 2 12 C2.33 12.33 2.66 12.66 3 13 C4.51469448 13.23192865 6.03754562 13.41215238 7.5625 13.5625 C8.38878906 13.64628906 9.21507813 13.73007813 10.06640625 13.81640625 C10.70449219 13.87699219 11.34257813 13.93757812 12 14 C11.67 12.35 11.34 10.7 11 9 C10.01 8.67 9.02 8.34 8 8 C8 7.34 8 6.68 8 6 C6.02 5.34 4.04 4.68 2 4 C2 3.34 2 2.68 2 2 C1.34 2 0.68 2 0 2 C0 1.34 0 0.68 0 0 Z " fill="#AE1E27" transform="translate(97,207)"/>
<path d="M0 0 C0.9178125 0.00451172 1.835625 0.00902344 2.78125 0.01367188 C5.02090391 0.02533674 7.26041545 0.04170386 9.5 0.0625 C11.57617188 3.69433594 11.57617188 3.69433594 10.890625 7.0078125 C10.32601562 8.58175781 10.32601562 8.58175781 9.75 10.1875 C9.38390625 11.24195312 9.0178125 12.29640625 8.640625 13.3828125 C7.5 16.0625 7.5 16.0625 5.5 18.0625 C5.69916016 17.08410156 5.69916016 17.08410156 5.90234375 16.0859375 C6.07894531 15.21195313 6.25554687 14.33796875 6.4375 13.4375 C6.61152344 12.57898438 6.78554688 11.72046875 6.96484375 10.8359375 C7.52773263 7.91877618 8.02275213 4.9947797 8.5 2.0625 C-20.01351852 2.75063929 -20.01351852 2.75063929 -44.984375 15.28125 C-49.70241727 20.82616565 -52.33285398 28.20327841 -54.5 35.0625 C-56.08614782 30.51554293 -54.67850916 27.35539334 -52.984375 23.015625 C-47.78410545 12.66982557 -39.69229961 7.44641892 -29.03515625 3.9140625 C-19.18898301 0.95075316 -10.21696462 -0.09652656 0 0 Z " fill="#101407" transform="translate(267.5,70.9375)"/>
<path d="M0 0 C-0.33 0.66 -0.66 1.32 -1 2 C-2.15113281 1.95359375 -3.30226563 1.9071875 -4.48828125 1.859375 C-16.52784535 1.53298207 -27.33627738 3.07427338 -39 6 C-39 6.66 -39 7.32 -39 8 C-39.58265625 8.16113281 -40.1653125 8.32226562 -40.765625 8.48828125 C-52.80006507 12.4808392 -61.44698172 22.45335853 -68.25 32.8125 C-68.77078125 33.60269531 -69.2915625 34.39289062 -69.828125 35.20703125 C-70.21484375 35.79871094 -70.6015625 36.39039063 -71 37 C-71.33 36.34 -71.66 35.68 -72 35 C-65.77698333 20.53380826 -54.07658141 10.41771024 -40 4 C-26.99038232 -0.65208782 -13.66765791 -2.48502871 0 0 Z " fill="#0C0303" transform="translate(81,4)"/>
<path d="M0 0 C0.99 0.495 0.99 0.495 2 1 C3.26625424 4.79876271 3.23298547 8.42421926 3.31640625 12.38671875 C3.33718735 13.20372757 3.35796844 14.02073639 3.37937927 14.86250305 C3.44473079 17.47075034 3.50369273 20.07909775 3.5625 22.6875 C3.60569892 24.45639054 3.64931365 26.22527097 3.69335938 27.99414062 C3.80039743 32.32932463 3.90170544 36.66460929 4 41 C5.73286255 40.97643433 5.73286255 40.97643433 7.50073242 40.95239258 C11.79639687 40.89799631 16.092031 40.86361467 20.38793945 40.83520508 C22.24541345 40.82014054 24.10285201 40.79968491 25.96020508 40.77368164 C28.63371539 40.73719541 31.30675444 40.7202503 33.98046875 40.70703125 C35.2213752 40.68380547 35.2213752 40.68380547 36.48735046 40.66011047 C41.18680757 40.65874602 44.12407525 41.03404523 48 44 C40.96099921 44 33.92127129 43.78322798 26.88427734 43.62768555 C24.87455129 43.58415181 22.86478381 43.54249168 20.85498047 43.50268555 C17.96309682 43.4451886 15.07140971 43.38146298 12.1796875 43.31640625 C10.82349808 43.29133751 10.82349808 43.29133751 9.43991089 43.26576233 C3.11395063 43.11395063 3.11395063 43.11395063 2 42 C1.85211782 39.49019549 1.76493413 37.00446011 1.71875 34.4921875 C1.69113586 33.35392014 1.69113586 33.35392014 1.66296387 32.19265747 C1.60404402 29.75351952 1.55137912 27.31430771 1.5 24.875 C1.44840194 22.45712474 1.39529083 20.03933711 1.33703613 17.62161255 C1.30077828 16.11574137 1.2682615 14.60977382 1.2401123 13.10372925 C1.1332078 8.64677739 0.71052902 4.39046522 0 0 Z " fill="#12242C" transform="translate(152,77)"/>
<path d="M0 0 C1.32 0 2.64 0 4 0 C7.14715382 4.95710494 8.73049019 8.92325166 7.75 14.81640625 C6.44643422 18.61168369 4.05811487 21.44396369 1 24 C-1.7062437 24.90208123 -3.23850986 25.12227599 -6.01245117 25.11352539 C-6.81305466 25.11344986 -7.61365814 25.11337433 -8.43852234 25.11329651 C-9.29798965 25.10813522 -10.15745697 25.10297394 -11.04296875 25.09765625 C-11.9265657 25.0962413 -12.81016266 25.09482635 -13.72053528 25.09336853 C-16.54289128 25.08777069 -19.36516797 25.07521861 -22.1875 25.0625 C-24.10091031 25.05748472 -26.01432187 25.05292186 -27.92773438 25.04882812 C-32.61854473 25.03865283 -37.30918358 25.01907698 -42 25 C-42 35.23 -42 45.46 -42 56 C-42.33 56 -42.66 56 -43 56 C-43 45.44 -43 34.88 -43 24 C-40.18210938 23.97421875 -37.36421875 23.9484375 -34.4609375 23.921875 C-31.72044039 23.88342088 -28.98012928 23.83827154 -26.23974609 23.79248047 C-24.34074846 23.7643208 -22.4416347 23.74308142 -20.54248047 23.72900391 C-17.80636362 23.70750482 -15.07163548 23.66081992 -12.3359375 23.609375 C-11.49195404 23.60814636 -10.64797058 23.60691772 -9.77841187 23.60565186 C-4.42790262 23.47383308 -1.19554692 22.63773834 3 19 C4.14077657 15.57767028 4.09815117 12.91326783 4.0625 9.3125 C4.05347656 8.13300781 4.04445312 6.95351562 4.03515625 5.73828125 C4.02355469 4.83464844 4.01195312 3.93101563 4 3 C2.68 2.34 1.36 1.68 0 1 C0 0.67 0 0.34 0 0 Z " fill="#070C10" transform="translate(198,122)"/>
<path d="M0 0 C0 3 0 3 -1.14453125 4.54296875 C-8.90988828 12.19921069 -21.52159088 24 -33 24 C-33 23.34 -33 22.68 -33 22 C-35.31 22 -37.62 22 -40 22 C-40.25 15.375 -40.25 15.375 -38 12 C-38.33 14.97 -38.66 17.94 -39 21 C-37.57107422 20.58427734 -37.57107422 20.58427734 -36.11328125 20.16015625 C-34.85902344 19.79792969 -33.60476562 19.43570313 -32.3125 19.0625 C-31.07113281 18.70285156 -29.82976562 18.34320313 -28.55078125 17.97265625 C-25.70360138 17.19273569 -22.90197746 16.52712784 -20 16 C-20 15.34 -20 14.68 -20 14 C-18.59472656 12.91845703 -18.59472656 12.91845703 -16.640625 11.7578125 C-15.93679687 11.33113281 -15.23296875 10.90445313 -14.5078125 10.46484375 C-13.76273438 10.02269531 -13.01765625 9.58054687 -12.25 9.125 C-5.62566919 5.2119722 -5.62566919 5.2119722 0 0 Z " fill="#182108" transform="translate(252,91)"/>
<path d="M0 0 C6.57770542 3.09108205 12.04693789 7.7373715 17 13 C16.67 13.99 16.34 14.98 16 16 C15.34 15.34 14.68 14.68 14 14 C12.88625 13.54625 11.7725 13.0925 10.625 12.625 C7 11 7 11 5.1875 9 C-0.87467481 3.45744018 -10.03953922 3.57092531 -17.8125 3.75 C-18.72708984 3.75515625 -19.64167969 3.7603125 -20.58398438 3.765625 C-24.83282673 3.81506607 -28.86185818 3.92425663 -33 5 C-29.55861622 1.79862689 -27.10647726 1.64400258 -22.484375 1.70703125 C-21.23398438 1.71669922 -19.98359375 1.72636719 -18.6953125 1.73632812 C-16.74238281 1.7740332 -16.74238281 1.7740332 -14.75 1.8125 C-13.43257812 1.82603516 -12.11515625 1.83957031 -10.7578125 1.85351562 C-7.50479679 1.88887449 -4.252604 1.93822967 -1 2 C-0.67 1.34 -0.34 0.68 0 0 Z " fill="#8D1922" transform="translate(233,20)"/>
<path d="M0 0 C0 0.66 0 1.32 0 2 C-0.81984375 2.33773437 -1.6396875 2.67546875 -2.484375 3.0234375 C-3.56203125 3.46945313 -4.6396875 3.91546875 -5.75 4.375 C-7.35101563 5.03628906 -7.35101563 5.03628906 -8.984375 5.7109375 C-11.87237769 6.88834479 -11.87237769 6.88834479 -14.015625 8.1015625 C-18.66065868 10.20462893 -23.73034373 10.15858493 -28.75 10.1875 C-29.87921875 10.20167969 -31.0084375 10.21585938 -32.171875 10.23046875 C-35 10 -35 10 -37 8 C-35.92878906 7.95101562 -34.85757813 7.90203125 -33.75390625 7.8515625 C-32.35674361 7.77654706 -30.9596095 7.7009987 -29.5625 7.625 C-28.85544922 7.5940625 -28.14839844 7.563125 -27.41992188 7.53125 C-25.60760812 7.42719371 -23.80182012 7.22080108 -22 7 C-21.67 6.34 -21.34 5.68 -21 5 C-21.99 5 -22.98 5 -24 5 C-24 4.34 -24 3.68 -24 3 C-22.80761719 2.95101562 -21.61523438 2.90203125 -20.38671875 2.8515625 C-18.82028932 2.77652396 -17.25388421 2.7009766 -15.6875 2.625 C-14.90181641 2.5940625 -14.11613281 2.563125 -13.30664062 2.53125 C-12.54931641 2.49257812 -11.79199219 2.45390625 -11.01171875 2.4140625 C-10.31522217 2.3826416 -9.61872559 2.3512207 -8.90112305 2.31884766 C-5.15956659 1.69133093 -4.19464299 0 0 0 Z " fill="#921F24" transform="translate(144,215)"/>
<path d="M0 0 C0.33 0 0.66 0 1 0 C1 10.56 1 21.12 1 32 C1.66 32 2.32 32 3 32 C2.56151151 44.32152666 2.56151151 44.32152666 -2 49 C-7.39024002 52.23892471 -11.97004094 52.35154255 -18 51 C-18.66 50.34 -19.32 49.68 -20 49 C-19.19175781 49.04640625 -18.38351563 49.0928125 -17.55078125 49.140625 C-10.95820492 49.46249726 -10.95820492 49.46249726 -4.875 47.3125 C-0.69114325 42.15241001 -0.67264027 37.13535475 -0.5859375 30.76171875 C-0.56657135 29.88095169 -0.5472052 29.00018463 -0.5272522 28.09272766 C-0.46767149 25.29108234 -0.42115735 22.48939544 -0.375 19.6875 C-0.33680041 17.78318562 -0.29774753 15.87888815 -0.2578125 13.97460938 C-0.16198767 9.31654428 -0.0778774 4.65839832 0 0 Z " fill="#122229" transform="translate(154,146)"/>
<path d="M0 0 C0.33 0.99 0.66 1.98 1 3 C0.01 3.66 -0.98 4.32 -2 5 C-2.66 4.67 -3.32 4.34 -4 4 C-4.66 5.32 -5.32 6.64 -6 8 C-6.66 8 -7.32 8 -8 8 C-8 8.66 -8 9.32 -8 10 C-3.71 9.34 0.58 8.68 5 8 C4.67 8.66 4.34 9.32 4 10 C-5.14135626 12.79728178 -14.50030888 13.5813206 -24 14 C-24 13.34 -24 12.68 -24 12 C-23.16597656 11.70867187 -22.33195313 11.41734375 -21.47265625 11.1171875 C-14.2529199 8.4873179 -8.21120027 5.49139425 -2 1 C-1.34 0.67 -0.68 0.34 0 0 Z " fill="#7FB12A" transform="translate(240,104)"/>
<path d="M0 0 C0.66 0 1.32 0 2 0 C5.30724784 9.92174352 3.81490471 26.01988329 1 36 C0.01 36.66 -0.98 37.32 -2 38 C-2 33.71 -2 29.42 -2 25 C-1.34 25 -0.68 25 0 25 C0 16.75 0 8.5 0 0 Z " fill="#6D9324" transform="translate(206,75)"/>
<path d="M0 0 C0.99 0.495 0.99 0.495 2 1 C2.68528197 3.18452331 3.27131723 5.40039337 3.8125 7.625 C5.51336311 14.39571207 7.57950792 20.96341155 9.8515625 27.5625 C11.00731643 31.02189951 12.02311856 34.4868117 13 38 C11.68 38 10.36 38 9 38 C8.70996094 36.66195312 8.70996094 36.66195312 8.4140625 35.296875 C8.15367188 34.12640625 7.89328125 32.9559375 7.625 31.75 C7.24214844 30.00976562 7.24214844 30.00976562 6.8515625 28.234375 C6.13815451 25.52473365 5.3272383 23.4360703 4 21 C3.7834375 20.0409375 3.7834375 20.0409375 3.5625 19.0625 C3.08212778 16.85955202 3.08212778 16.85955202 1.4765625 14.765625 C-0.28198394 11.4718396 -0.30960725 9.39141998 -0.1875 5.6875 C-0.16042969 4.61886719 -0.13335937 3.55023438 -0.10546875 2.44921875 C-0.07066406 1.64097656 -0.03585938 0.83273438 0 0 Z " fill="#821F25" transform="translate(34,98)"/>
<path d="M0 0 C3.05696826 1.52848413 3.24520629 4.01661594 4.30859375 7.14453125 C4.57800781 7.96308594 4.84742188 8.78164062 5.125 9.625 C5.40214844 10.42035156 5.67929688 11.21570313 5.96484375 12.03515625 C7.58424238 16.89335213 8.31556047 20.8824324 8 26 C7.34 26 6.68 26 6 26 C6 29.3 6 32.6 6 36 C4.68 35.67 3.36 35.34 2 35 C2.99 35 3.98 35 5 35 C2.64843561 17.47850451 2.64843561 17.47850451 0 0 Z " fill="#2C3C12" transform="translate(196,79)"/>
<path d="M0 0 C-2.60296579 1.60771416 -5.16395235 3.07674365 -7.9375 4.375 C-15.99046528 8.64800199 -19.02838216 13.95817806 -23 22 C-23.66 22 -24.32 22 -25 22 C-25.33 22.66 -25.66 23.32 -26 24 C-25.6174892 16.54103935 -21.00894791 10.56515923 -15.625 5.6875 C-5.92698141 -2.01070544 -5.92698141 -2.01070544 0 0 Z " fill="#1F0709" transform="translate(61,36)"/>
<path d="M0 0 C-2.90716632 1.45358316 -4.55978329 0.44748763 -7.6875 -0.375 C-17.98893688 -2.73238211 -28.47241678 -2.7537487 -39 -3 C-38.67 -3.66 -38.34 -4.32 -38 -5 C-34.54274055 -5.22951631 -31.0843424 -5.4296071 -27.625 -5.625 C-26.65949219 -5.68945312 -25.69398437 -5.75390625 -24.69921875 -5.8203125 C-15.51982478 -6.31316587 -7.39142098 -5.83533235 0 0 Z " fill="#7F1A1F" transform="translate(97,38)"/>
<path d="M0 0 C0.33 0.66 0.66 1.32 1 2 C3.31 2 5.62 2 8 2 C8 2.99 8 3.98 8 5 C7.01 5 6.02 5 5 5 C5 5.66 5 6.32 5 7 C8.08380096 6.52381168 11.16695046 6.04352732 14.25 5.5625 C15.55904297 5.36043945 15.55904297 5.36043945 16.89453125 5.15429688 C17.73886719 5.02216797 18.58320313 4.89003906 19.453125 4.75390625 C20.22817383 4.63345947 21.00322266 4.5130127 21.80175781 4.38891602 C23.98837318 4.03373699 23.98837318 4.03373699 26.04980469 3.45678711 C29.02571671 2.75975013 31.95865892 2.94151267 35 3 C25.71133288 9.19244475 11.72621596 8.1867233 1 8 C0.67 5.36 0.34 2.72 0 0 Z " fill="#1C230E" transform="translate(211,111)"/>
<path d="M0 0 C0 0.33 0 0.66 0 1 C-1.85625 1.4021875 -1.85625 1.4021875 -3.75 1.8125 C-7.10924858 2.66714982 -9.53899786 3.44434393 -12 6 C-14.24417917 10.34523206 -14.34142661 14.57390395 -14.4140625 19.36328125 C-14.43342865 20.15526413 -14.4527948 20.94724701 -14.4727478 21.76322937 C-14.53227232 24.27954519 -14.57881958 26.79590744 -14.625 29.3125 C-14.66320481 31.0241079 -14.70225799 32.73569709 -14.7421875 34.44726562 C-14.8379513 38.63135749 -14.9220818 42.81553931 -15 47 C-15.33 47 -15.66 47 -16 47 C-16.04966586 41.85881945 -16.08584495 36.71778049 -16.10986328 31.57641602 C-16.11988268 29.82964645 -16.13350195 28.0828935 -16.15087891 26.33618164 C-16.17530669 23.81652715 -16.18652389 21.29709561 -16.1953125 18.77734375 C-16.20563507 18.00414291 -16.21595764 17.23094208 -16.22659302 16.43431091 C-16.22758393 11.57863298 -15.65712739 7.58127736 -14 3 C-10.07503936 -0.92496064 -5.24412188 -0.08740203 0 0 Z " fill="#4AA8D2" transform="translate(146,72)"/>
<path d="M0 0 C0.66 0.33 1.32 0.66 2 1 C1.2884375 1.6496875 1.2884375 1.6496875 0.5625 2.3125 C-1.23686957 4.02309613 -1.23686957 4.02309613 -2 7 C-1.34 7.33 -0.68 7.66 0 8 C-0.08378906 8.77085937 -0.16757813 9.54171875 -0.25390625 10.3359375 C-0.35574219 11.33882812 -0.45757812 12.34171875 -0.5625 13.375 C-0.66691406 14.37273437 -0.77132812 15.37046875 -0.87890625 16.3984375 C-1.21144708 18.984037 -1.21144708 18.984037 0 21 C-4.875 19.25 -4.875 19.25 -6 17 C-6.62749437 12.65519723 -6.98913068 8.63509357 -4.66015625 4.78515625 C-3.17993622 3.0820325 -1.67747457 1.50773012 0 0 Z " fill="#49AADA" transform="translate(86,121)"/>
<path d="M0 0 C1.07765625 0.00902344 2.1553125 0.01804687 3.265625 0.02734375 C4.08546875 0.03894531 4.9053125 0.05054688 5.75 0.0625 C5.75 0.3925 5.75 0.7225 5.75 1.0625 C4.79480469 1.22105469 3.83960938 1.37960937 2.85546875 1.54296875 C-4.68809521 2.90426992 -10.9553437 4.60588161 -17.86328125 8.0546875 C-21.21347816 9.46933693 -23.67127571 9.46013603 -27.25 9.0625 C-24.07234794 6.94406529 -20.80964944 5.48331106 -17.3125 4 C-16.69181641 3.73123047 -16.07113281 3.46246094 -15.43164062 3.18554688 C-9.93739728 0.83922996 -5.97179779 -0.06491085 0 0 Z " fill="#150406" transform="translate(187.25,13.9375)"/>
<path d="M0 0 C8.57142857 1 8.57142857 1 12 2 C12 2.66 12 3.32 12 4 C13.65 4.33 15.3 4.66 17 5 C17 5.99 17 6.98 17 8 C19.31 8 21.62 8 24 8 C24.33 9.32 24.66 10.64 25 12 C25.99 12 26.98 12 28 12 C28.66 13.32 29.32 14.64 30 16 C24.77531745 13.40563267 19.61156394 10.69343537 14.4375 8 C13.38369141 7.4534375 12.32988281 6.906875 11.24414062 6.34375 C10.23416016 5.8178125 9.22417969 5.291875 8.18359375 4.75 C7.26118896 4.27046875 6.33878418 3.7909375 5.38842773 3.296875 C3 2 3 2 0 0 Z " fill="#911E25" transform="translate(102,41)"/>
<path d="M0 0 C0.87398437 0.33257812 0.87398437 0.33257812 1.765625 0.671875 C0.75242188 1.57679687 0.75242188 1.57679687 -0.28125 2.5 C-1.17328125 3.29921875 -2.0653125 4.0984375 -2.984375 4.921875 C-3.86609375 5.71078125 -4.7478125 6.4996875 -5.65625 7.3125 C-8.22351375 9.60498643 -8.22351375 9.60498643 -10.41015625 11.97265625 C-12.234375 13.671875 -12.234375 13.671875 -14.671875 13.609375 C-17.44644133 12.59428976 -19.76887643 11.29205977 -22.234375 9.671875 C-19.23956583 8.7995338 -16.59861589 8.56357734 -13.484375 8.609375 C-12.68515625 8.61839844 -11.8859375 8.62742187 -11.0625 8.63671875 C-10.45921875 8.64832031 -9.8559375 8.65992188 -9.234375 8.671875 C-9.234375 7.681875 -9.234375 6.691875 -9.234375 5.671875 C-7.84375 4.03125 -7.84375 4.03125 -5.984375 2.421875 C-5.38109375 1.88046875 -4.7778125 1.3390625 -4.15625 0.78125 C-2.234375 -0.328125 -2.234375 -0.328125 0 0 Z " fill="#A31F29" transform="translate(154.234375,48.328125)"/>
<path d="M0 0 C0.66 0.33 1.32 0.66 2 1 C-0.65151515 6.68181818 -0.65151515 6.68181818 -2.4375 8.3125 C-4.61902884 10.66855115 -5.50518807 13.21574299 -6.6875 16.1875 C-7.12449219 17.27417969 -7.56148437 18.36085938 -8.01171875 19.48046875 C-8.33785156 20.31191406 -8.66398438 21.14335938 -9 22 C-9.33 22 -9.66 22 -10 22 C-9.73241093 13.70473879 -7.07654012 7.30197091 -1.3046875 1.2109375 C-0.87414062 0.81132813 -0.44359375 0.41171875 0 0 Z " fill="#79A42A" transform="translate(224,84)"/>
<path d="M0 0 C0.33 0.66 0.66 1.32 1 2 C0.29296875 3.77734375 0.29296875 3.77734375 -0.8125 5.9375 C-6.10159782 17.5188004 -5.57165008 30.49601302 -6 43 C-6.33 43 -6.66 43 -7 43 C-7.80072618 9.41466953 -7.80072618 9.41466953 0 0 Z " fill="#2A0C0D" transform="translate(10,40)"/>
<path d="M0 0 C1.32 0 2.64 0 4 0 C7.1490651 4.96011542 8.71365034 8.91666565 7.76171875 14.8125 C6.43605507 18.61953416 3.88161717 21.25937939 1 24 C0.34 23.67 -0.32 23.34 -1 23 C-0.360625 22.401875 0.27875 21.80375 0.9375 21.1875 C4.43346321 17.47966024 4.11089968 14.20086813 4.0625 9.3125 C4.05347656 8.13300781 4.04445312 6.95351562 4.03515625 5.73828125 C4.02355469 4.83464844 4.01195312 3.93101563 4 3 C2.68 2.34 1.36 1.68 0 1 C0 0.67 0 0.34 0 0 Z " fill="#060C0F" transform="translate(198,122)"/>
<path d="M0 0 C0 3 0 3 -1.25 4.61328125 C-10.35481591 13.45389491 -10.35481591 13.45389491 -15 16 C-18 15.875 -18 15.875 -20 15 C-15.76227725 11.4929191 -11.30848228 8.64179224 -6.62109375 5.78125 C-4.08686109 4.05902929 -2.08392692 2.235931 0 0 Z " fill="#2F400F" transform="translate(252,91)"/>
<path d="M0 0 C0.89525391 -0.01611328 1.79050781 -0.03222656 2.71289062 -0.04882812 C9.35305049 -0.05362246 17.42366709 0.26166823 22.59448242 4.91674805 C23.19740112 5.60764526 23.19740112 5.60764526 23.8125 6.3125 C23.14863281 6.10753906 22.48476562 5.90257812 21.80078125 5.69140625 C20.91777344 5.42199219 20.03476563 5.15257812 19.125 4.875 C18.25488281 4.60816406 17.38476562 4.34132813 16.48828125 4.06640625 C5.5916538 0.99626158 -5.21212364 2.09764928 -16.1875 4.3125 C-15.1875 2.3125 -15.1875 2.3125 -13.26171875 1.20703125 C-8.82996244 -0.0825141 -4.59245242 -0.016182 0 0 Z " fill="#130304" transform="translate(215.1875,22.6875)"/>
<path d="M0 0 C-2.91765 1.9451 -4.62537285 2.45276317 -8 3 C-8 3.66 -8 4.32 -8 5 C-12.36422784 8.04173456 -17.39130861 11.11594184 -22.8125 10.875 C-25 10 -25 10 -27 7 C-26.17628906 7.24621094 -25.35257813 7.49242187 -24.50390625 7.74609375 C-19.72266231 8.0925607 -17.02032873 6.36885983 -12.9375 4.0625 C-4.58793256 -0.58131699 -4.58793256 -0.58131699 0 0 Z " fill="#120506" transform="translate(163,23)"/>
<path d="M0 0 C0.99 0 1.98 0 3 0 C3 1.32 3 2.64 3 4 C4.32 4.33 5.64 4.66 7 5 C7.66 7.64 8.32 10.28 9 13 C9.99 13 10.98 13 12 13 C12.66 15.64 13.32 18.28 14 21 C10.58083707 18.92407965 9.01079619 16.53675365 7.1484375 13.04296875 C5.36142478 9.86403116 3.25248425 6.91013205 1.171875 3.91796875 C0 2 0 2 0 0 Z M11 15 C12 17 12 17 12 17 Z " fill="#A01D24" transform="translate(29,157)"/>
<path d="M0 0 C4.54823568 0.57917608 7.73709121 2.37256612 11.625 4.75 C12.75164062 5.42546875 13.87828125 6.1009375 15.0390625 6.796875 C18.00144161 9.00107265 19.38414646 10.72245311 21 14 C17.04525862 12.1624434 13.42214367 9.83614018 9.75 7.5 C9.1003125 7.09652344 8.450625 6.69304688 7.78125 6.27734375 C6.15124981 5.23975959 4.57060934 4.12546338 3 3 C3 2.34 3 1.68 3 1 C2.01 0.67 1.02 0.34 0 0 Z " fill="#26090B" transform="translate(118,20)"/>
<path d="M0 0 C6.6 0 13.2 0 20 0 C22 4 22 4 21.390625 6.9453125 C21.01421875 7.99460937 20.6378125 9.04390625 20.25 10.125 C19.88390625 11.17945312 19.5178125 12.23390625 19.140625 13.3203125 C18 16 18 16 16 18 C16.13277344 17.35933594 16.26554687 16.71867187 16.40234375 16.05859375 C16.66724609 14.76115234 16.66724609 14.76115234 16.9375 13.4375 C17.19853516 12.16712891 17.19853516 12.16712891 17.46484375 10.87109375 C18.07501334 7.59755618 18.52907845 4.29645083 19 1 C12.73 1 6.46 1 0 1 C0 0.67 0 0.34 0 0 Z " fill="#070A04" transform="translate(257,71)"/>
<path d="M0 0 C7.54644443 0.24343369 13.06617805 2.21031763 19 7 C20.28515625 9.19921875 20.28515625 9.19921875 21 11 C17.75724961 9.88530455 15.03891121 8.4296963 12.1875 6.5625 C8.27249641 4.04198341 4.40292075 2.49384811 0 1 C0 0.67 0 0.34 0 0 Z " fill="#20080A" transform="translate(221,14)"/>
<path d="M0 0 C0.66 0 1.32 0 2 0 C2.94137255 2.82411765 3.11725382 4.52918032 3.09765625 7.44921875 C3.09443359 8.29677734 3.09121094 9.14433594 3.08789062 10.01757812 C3.07951172 10.89865234 3.07113281 11.77972656 3.0625 12.6875 C3.05798828 13.58017578 3.05347656 14.47285156 3.04882812 15.39257812 C3.03704983 17.59511987 3.02060164 19.79752599 3 22 C2.34 22 1.68 22 1 22 C0.67 14.74 0.34 7.48 0 0 Z " fill="#759F2A" transform="translate(206,75)"/>
<path d="M0 0 C0.33 0 0.66 0 1 0 C1.33 5.61 1.66 11.22 2 17 C-0.31 16.67 -2.62 16.34 -5 16 C-5.66 15.01 -6.32 14.02 -7 13 C-4.69 12.34 -2.38 11.68 0 11 C0 7.37 0 3.74 0 0 Z " fill="#7BAC2C" transform="translate(199,97)"/>
<path d="M0 0 C0.66 0 1.32 0 2 0 C2.92708425 1.8541685 3.85298115 3.70893859 4.7734375 5.56640625 C5.63317505 7.27219127 6.51540414 8.96673871 7.4140625 10.65234375 C7.87554688 11.53019531 8.33703125 12.40804687 8.8125 13.3125 C9.25207031 14.13363281 9.69164062 14.95476562 10.14453125 15.80078125 C11 18 11 18 10 21 C8.69856454 18.81782566 7.40892573 16.62994758 6.125 14.4375 C5.76019531 13.82841797 5.39539063 13.21933594 5.01953125 12.59179688 C2.61790009 8.46535788 1.13474926 4.64052723 0 0 Z " fill="#911B23" transform="translate(18,136)"/>
<path d="M0 0 C2.1875 0.3125 2.1875 0.3125 4 1 C2.47005208 2.23697917 0.94010417 3.47395833 -0.58984375 4.7109375 C-2.53880795 6.49253912 -2.97668052 7.60631238 -3.1328125 10.2421875 C-3.13023438 11.11101562 -3.12765625 11.97984375 -3.125 12.875 C-3.12757812 13.73867187 -3.13015625 14.60234375 -3.1328125 15.4921875 C-3.01023921 17.80665971 -2.64966445 19.78289116 -2 22 C-4.79510927 20.05557616 -5.07120927 18.6999038 -5.875 15.3125 C-6.2943609 10.7666278 -5.21738569 6.96841646 -3 3 C-1.52734375 1.25 -1.52734375 1.25 0 0 Z " fill="#081215" transform="translate(84,120)"/>
<path d="M0 0 C2.03833424 1.2739589 4.03852126 2.61061923 6 4 C6 4.66 6 5.32 6 6 C12.27 6 18.54 6 25 6 C25 6.33 25 6.66 25 7 C21.77113991 7.11667875 18.54282555 7.18740546 15.3125 7.25 C14.40048828 7.28351563 13.48847656 7.31703125 12.54882812 7.3515625 C8.20279769 7.41477749 5.68074421 7.39576185 1.85546875 5.171875 C0 3 0 3 0 0 Z " fill="#152730" transform="translate(82,140)"/>
<path d="M0 0 C0 0.66 0 1.32 0 2 C-4.83543623 4.7663725 -8.47007709 6.54602182 -14.0625 5.25 C-15.38363045 4.86156506 -16.70021173 4.45477226 -18 4 C-18 3.67 -18 3.34 -18 3 C-16.86111328 2.92652344 -16.86111328 2.92652344 -15.69921875 2.8515625 C-14.20841797 2.73941406 -14.20841797 2.73941406 -12.6875 2.625 C-11.70136719 2.55539063 -10.71523437 2.48578125 -9.69921875 2.4140625 C-5.69616275 1.79999023 -4.30710281 0 0 0 Z " fill="#733336" transform="translate(144,215)"/>
<path d="M0 0 C0.66 0.33 1.32 0.66 2 1 C1.2884375 1.6496875 1.2884375 1.6496875 0.5625 2.3125 C-1.23686957 4.02309613 -1.23686957 4.02309613 -2 7 C-1.34 7.33 -0.68 7.66 0 8 C-1.32 8 -2.64 8 -4 8 C-4 11.63 -4 15.26 -4 19 C-6.43933105 16.56066895 -6.37608173 15.68410972 -6.5 12.3125 C-6.44035958 7.17596889 -4.86991045 4.75356744 -1.3125 1.1796875 C-0.879375 0.79039063 -0.44625 0.40109375 0 0 Z " fill="#3880A3" transform="translate(86,121)"/>
<path d="M0 0 C0.99 0.495 0.99 0.495 2 1 C2.47597366 3.70599842 2.84093629 6.33595404 3.125 9.0625 C3.21136719 9.82111328 3.29773437 10.57972656 3.38671875 11.36132812 C3.59939517 13.23996986 3.80075459 15.11988636 4 17 C1.38199568 15.69099784 1.03248368 14.72283306 0 12 C-0.1953125 8.984375 -0.1953125 8.984375 -0.125 5.75 C-0.10695312 4.67234375 -0.08890625 3.5946875 -0.0703125 2.484375 C-0.04710937 1.66453125 -0.02390625 0.8446875 0 0 Z " fill="#95222A" transform="translate(34,98)"/>
<path d="M0 0 C3.01598607 1.50799304 3.13739043 3.67733534 4.1875 6.8125 C4.55230469 7.87082031 4.91710937 8.92914063 5.29296875 10.01953125 C5.9803884 12.91732789 6.18809112 14.30322175 5 17 C4.34 17.33 3.68 17.66 3 18 C2.49645133 15.56318413 1.99703244 13.12564561 1.5 10.6875 C1.35691406 9.99720703 1.21382812 9.30691406 1.06640625 8.59570312 C0.47374956 5.67475227 0 2.98891878 0 0 Z " fill="#415B16" transform="translate(196,79)"/>
<path d="M0 0 C1.39346667 2.78693333 0.87916585 4.02436173 0 7 C-2.42157238 11.3242364 -4.55494551 13.77747275 -9 16 C-7.30947142 12.49371851 -5.31590972 9.27361517 -3.21875 6 C-2.02744311 4.04503484 -0.99381218 2.06124007 0 0 Z " fill="#25310D" transform="translate(273,84)"/>
<path d="M0 0 C2.433375 2.26007826 4.15866292 4.63948835 5.9375 7.4375 C8.03808459 10.65385645 10.10297183 13.43724431 13 16 C7.43946842 14.65199234 4.12644459 10.55062016 1 6 C0.0625 2.5 0.0625 2.5 0 0 Z " fill="#141B0A" transform="translate(181,97)"/>
<path d="M0 0 C5.94 1.485 5.94 1.485 12 3 C12 3.66 12 4.32 12 5 C12.99 5.33 13.98 5.66 15 6 C4.83763838 5.15867159 4.83763838 5.15867159 1 3 C0.67 2.01 0.34 1.02 0 0 Z " fill="#25080B" transform="translate(90,37)"/>
<path d="M0 0 C0.598125 0.185625 1.19625 0.37125 1.8125 0.5625 C4.16408762 1.22093687 4.16408762 1.22093687 7 0 C7.66 0.99 8.32 1.98 9 3 C11.56282742 3.72965366 11.56282742 3.72965366 14 4 C14 4.33 14 4.66 14 5 C5.96498906 5.78774617 5.96498906 5.78774617 1.9375 2.5 C1.298125 1.675 0.65875 0.85 0 0 Z " fill="#3E88AB" transform="translate(132,191)"/>
<path d="M0 0 C0 0.33 0 0.66 0 1 C-1.85625 1.4021875 -1.85625 1.4021875 -3.75 1.8125 C-7.15602798 2.64748746 -9.26535552 3.77177117 -12 6 C-12.99 6 -13.98 6 -15 6 C-14.02703346 3.34645489 -13.34207577 2.20122104 -10.875 0.75 C-7.12311455 -0.22875273 -3.8735649 -0.13130728 0 0 Z " fill="#4291B5" transform="translate(146,72)"/>
<path d="M0 0 C-1.12148438 0.59748047 -1.12148438 0.59748047 -2.265625 1.20703125 C-3.25046875 1.73683594 -4.2353125 2.26664063 -5.25 2.8125 C-6.22453125 3.33457031 -7.1990625 3.85664062 -8.203125 4.39453125 C-10.63355412 5.78965188 -12.80787699 7.26195961 -15 9 C-15 7.68 -15 6.36 -15 5 C-14.01 5 -13.02 5 -12 5 C-11.67 4.01 -11.34 3.02 -11 2 C-6.91575792 -0.1577128 -4.43765317 -1.44982929 0 0 Z " fill="#9D1F28" transform="translate(57,36)"/>
<path d="M0 0 C1.10844919 3.32534757 0.84454356 5.62182575 0 9 C2.64 8.67 5.28 8.34 8 8 C8 8.66 8 9.32 8 10 C8.66 10.33 9.32 10.66 10 11 C8.68 11.33 7.36 11.66 6 12 C6 11.34 6 10.68 6 10 C3.69 10 1.38 10 -1 10 C-1.125 3.375 -1.125 3.375 0 0 Z " fill="#2F3D12" transform="translate(213,103)"/>
<path d="M0 0 C0.33 0 0.66 0 1 0 C1.33 5.28 1.66 10.56 2 16 C-1.08492422 12.91507578 -1.06388049 10.09224652 -1.125 5.875 C-1 2 -1 2 0 0 Z " fill="#861C20" transform="translate(7,94)"/>
<path d="M0 0 C0.66 0.33 1.32 0.66 2 1 C-4.31117397 8.91607732 -4.31117397 8.91607732 -9 11 C-9.66 10.67 -10.32 10.34 -11 10 C-5.555 5.05 -5.555 5.05 0 0 Z " fill="#831A25" transform="translate(33,14)"/>
<path d="M0 0 C0.33 1.32 0.66 2.64 1 4 C2.32 3.67 3.64 3.34 5 3 C5 2.34 5 1.68 5 1 C7.97 1 10.94 1 14 1 C11.8553857 3.1446143 10.98260002 3.44564603 8.125 4.125 C7.44695312 4.29257813 6.76890625 4.46015625 6.0703125 4.6328125 C4 5 4 5 0 5 C0 3.35 0 1.7 0 0 Z " fill="#7CAF27" transform="translate(213,107)"/>
<path d="M0 0 C0.33 0.99 0.66 1.98 1 3 C-0.62324974 5.43487461 -1.80074553 7.17212359 -4 9 C-6.8125 9.375 -6.8125 9.375 -9 9 C-7.25 6.5 -7.25 6.5 -5 4 C-3.68 4 -2.36 4 -1 4 C-0.67 2.68 -0.34 1.36 0 0 Z " fill="#469FC6" transform="translate(152,186)"/>
<path d="M0 0 C0.33 0.66 0.66 1.32 1 2 C3.31 2 5.62 2 8 2 C8 2.99 8 3.98 8 5 C7.360625 5.12375 6.72125 5.2475 6.0625 5.375 C5.0415625 5.684375 5.0415625 5.684375 4 6 C3.67 6.66 3.34 7.32 3 8 C2.34 8 1.68 8 1 8 C0.67 5.36 0.34 2.72 0 0 Z " fill="#090B06" transform="translate(211,111)"/>
<path d="M0 0 C0.33 0.99 0.66 1.98 1 3 C0.01 3.66 -0.98 4.32 -2 5 C-2.66 4.67 -3.32 4.34 -4 4 C-4.66 5.32 -5.32 6.64 -6 8 C-7.32 7.34 -8.64 6.68 -10 6 C-6.7 4.02 -3.4 2.04 0 0 Z " fill="#76A720" transform="translate(240,104)"/>
<path d="M0 0 C1.32 0 2.64 0 4 0 C6.3441202 2.42495193 7.01238509 4.18877668 6.9609375 7.55859375 C6.71298163 10.05586363 6.39924957 12.52272856 6 15 C5.67 15 5.34 15 5 15 C4.97421875 14.15695313 4.9484375 13.31390625 4.921875 12.4453125 C4.83679688 10.80175781 4.83679688 10.80175781 4.75 9.125 C4.70359375 8.03445312 4.6571875 6.94390625 4.609375 5.8203125 C4.31153872 2.8667935 4.31153872 2.8667935 1.953125 1.6171875 C1.30859375 1.41351563 0.6640625 1.20984375 0 1 C0 0.67 0 0.34 0 0 Z " fill="#10232A" transform="translate(198,122)"/>
<path d="M0 0 C-4.75 3 -4.75 3 -7 3 C-7 3.66 -7 4.32 -7 5 C-8.65 5.33 -10.3 5.66 -12 6 C-12 5.01 -12 4.02 -12 3 C-10.68 3 -9.36 3 -8 3 C-7.67 2.01 -7.34 1.02 -7 0 C-4.05610218 -1.17755913 -3.10046087 -1.03348696 0 0 Z " fill="#7FB326" transform="translate(239,102)"/>
<path d="M0 0 C7.50769231 0.61538462 7.50769231 0.61538462 10 2.5625 C10.33 3.036875 10.66 3.51125 11 4 C10.67 4.99 10.34 5.98 10 7 C9.34 6.34 8.68 5.68 8 5 C6.824375 4.505 5.64875 4.01 4.4375 3.5 C1 2 1 2 0 0 Z " fill="#481B1C" transform="translate(239,29)"/>
<path d="M0 0 C3 1 6 2 9 3 C9.33 4.98 9.66 6.96 10 9 C8.70391053 8.06862408 7.41328368 7.1296434 6.125 6.1875 C5.40570313 5.66542969 4.68640625 5.14335937 3.9453125 4.60546875 C2 3 2 3 0 0 Z " fill="#901D27" transform="translate(54,192)"/>
<path d="M0 0 C0.57234375 0.22558594 1.1446875 0.45117188 1.734375 0.68359375 C0.1154754 1.71407412 -1.51094989 2.73274053 -3.140625 3.74609375 C-4.04554688 4.31457031 -4.95046875 4.88304687 -5.8828125 5.46875 C-6.66914063 5.86964844 -7.45546875 6.27054688 -8.265625 6.68359375 C-8.925625 6.35359375 -9.585625 6.02359375 -10.265625 5.68359375 C-9.02827516 4.64746342 -7.77517863 3.63011573 -6.515625 2.62109375 C-5.81953125 2.05261719 -5.1234375 1.48414063 -4.40625 0.8984375 C-2.265625 -0.31640625 -2.265625 -0.31640625 0 0 Z " fill="#1A0407" transform="translate(182.265625,33.31640625)"/>
<path d="M0 0 C0.66 0.33 1.32 0.66 2 1 C0 4 0 4 -3 5 C-5.33299825 5.03954234 -7.66708189 5.04401732 -10 5 C-6.76527494 2.84351662 -3.62848922 1.38542316 0 0 Z " fill="#22070A" transform="translate(170,18)"/>
<path d="M0 0 C4.17148265 -0.19402245 7.28944583 -0.01430083 11 2 C11.33 2.99 11.66 3.98 12 5 C10.37276701 4.54965877 8.74826336 4.08944646 7.125 3.625 C5.76761719 3.24214844 5.76761719 3.24214844 4.3828125 2.8515625 C2 2 2 2 0 0 Z " fill="#250D0E" transform="translate(104,211)"/>
<path d="M0 0 C0 0.99 0 1.98 0 3 C-0.99 3.33 -1.98 3.66 -3 4 C-3.309375 4.639375 -3.61875 5.27875 -3.9375 5.9375 C-5.2342338 8.45468915 -6.4221737 8.96886948 -9 10 C-7.61811547 6.78956118 -6.07578097 4.95063635 -3.375 2.75 C-2.74335938 2.22921875 -2.11171875 1.7084375 -1.4609375 1.171875 C-0.73777344 0.59179688 -0.73777344 0.59179688 0 0 Z " fill="#121808" transform="translate(267,97)"/>
<path d="M0 0 C2.475 0.99 2.475 0.99 5 2 C5 2.99 5 3.98 5 5 C3.68 5.33 2.36 5.66 1 6 C0 1.125 0 1.125 0 0 Z " fill="#A82026" transform="translate(122,24)"/>
<path d="M0 0 C4.84659077 0.59104765 8.60748167 1.97944157 13 4 C13 4.66 13 5.32 13 6 C8.14036821 5.39254603 4.2594482 3.27241033 0 1 C0 0.67 0 0.34 0 0 Z " fill="#8F1E27" transform="translate(80,213)"/>
<path d="M0 0 C1.32 0 2.64 0 4 0 C4 0.66 4 1.32 4 2 C5.98 2 7.96 2 10 2 C10 2.99 10 3.98 10 5 C6.05140217 4.4359146 3.29120954 3.2568294 0 1 C0 0.67 0 0.34 0 0 Z " fill="#781F27" transform="translate(132,57)"/>
<path d="M0 0 C2.75 -0.25 2.75 -0.25 6 0 C8.375 2 8.375 2 10 4 C6.39703406 4.41176754 5.21597933 4.1535853 2.1875 2 C1.465625 1.34 0.74375 0.68 0 0 Z " fill="#42A7CE" transform="translate(190,121)"/>
<path d="M0 0 C1.32 0.66 2.64 1.32 4 2 C0.535 4.97 0.535 4.97 -3 8 C-3.33 6.68 -3.66 5.36 -4 4 C-2.68 4 -1.36 4 0 4 C0 2.68 0 1.36 0 0 Z " fill="#84B627" transform="translate(258,100)"/>
<path d="M0 0 C-1.4638611 4.39158329 -3.97831338 4.87947433 -8 7 C-7.62005832 4.24542282 -7.1926367 3.17979426 -5.125 1.25 C-3 0 -3 0 0 0 Z " fill="#82B527" transform="translate(249,93)"/>
<path d="M0 0 C1.60031344 3.20062687 0.03173691 5.72271806 -1 9 C-1.66 9 -2.32 9 -3 9 C-3.33 9.66 -3.66 10.32 -4 11 C-3.48964169 6.6109185 -2.47785723 3.66291938 0 0 Z " fill="#2F0B0E" transform="translate(39,49)"/>
<path d="M0 0 C-0.68707031 0.26554688 -1.37414063 0.53109375 -2.08203125 0.8046875 C-3.43361328 1.33449219 -3.43361328 1.33449219 -4.8125 1.875 C-5.70582031 2.22304687 -6.59914063 2.57109375 -7.51953125 2.9296875 C-10.17711591 3.98832155 -10.17711591 3.98832155 -13 6 C-12.73828125 4.11328125 -12.73828125 4.11328125 -12 2 C-10.29296875 0.91796875 -10.29296875 0.91796875 -8.1875 0.1875 C-7.50042969 -0.06644531 -6.81335937 -0.32039062 -6.10546875 -0.58203125 C-3.73131543 -1.05333812 -2.27685106 -0.75212833 0 0 Z " fill="#1F0709" transform="translate(42,12)"/>
<path d="M0 0 C4.60853797 0.72008406 8.67237409 2.31295939 13 4 C13 4.33 13 4.66 13 5 C7.36529617 5.5497272 4.61012242 3.95047835 0 1 C0 0.67 0 0.34 0 0 Z " fill="#9B252D" transform="translate(106,213)"/>
<path d="M0 0 C0.99386719 0.10183594 1.98773438 0.20367187 3.01171875 0.30859375 C3.77097656 0.39238281 4.53023437 0.47617188 5.3125 0.5625 C5.3125 0.8925 5.3125 1.2225 5.3125 1.5625 C0.6925 1.8925 -3.9275 2.2225 -8.6875 2.5625 C-8.6875 1.9025 -8.6875 1.2425 -8.6875 0.5625 C-5.3763987 -0.54120043 -3.44001051 -0.36423641 0 0 Z " fill="#6A8732" transform="translate(224.6875,115.4375)"/>
<path d="M0 0 C1.9375 0.375 1.9375 0.375 4 1 C4.33 1.66 4.66 2.32 5 3 C3.35 3 1.7 3 0 3 C-0.12375 3.639375 -0.2475 4.27875 -0.375 4.9375 C-0.58125 5.618125 -0.7875 6.29875 -1 7 C-1.99 7.495 -1.99 7.495 -3 8 C-1.125 2.25 -1.125 2.25 0 0 Z " fill="#6C9026" transform="translate(189,54)"/>
<path d="M0 0 C0.90105469 0.02707031 1.80210937 0.05414063 2.73046875 0.08203125 C3.76107422 0.13423828 3.76107422 0.13423828 4.8125 0.1875 C4.8125 0.5175 4.8125 0.8475 4.8125 1.1875 C-3.61607143 3.47321429 -3.61607143 3.47321429 -8.1875 3.1875 C-5.67753317 0.01043235 -3.96125134 -0.15433447 0 0 Z " fill="#520F13" transform="translate(188.1875,13.8125)"/>
<path d="M0 0 C3.55234558 0.60897353 6.7331874 1.45733849 10 3 C10.33 3.66 10.66 4.32 11 5 C6.87248551 4.39301257 3.6678852 2.96189209 0 1 C0 0.67 0 0.34 0 0 Z " fill="#140505" transform="translate(84,217)"/>
<path d="M0 0 C1.32 0.33 2.64 0.66 4 1 C0.535 3.97 0.535 3.97 -3 7 C-3.66 6.67 -4.32 6.34 -5 6 C-3.35 4.02 -1.7 2.04 0 0 Z " fill="#170406" transform="translate(156,48)"/>
<path d="M0 0 C4.87664009 -0.34833144 7.77050005 0.58314288 12 3 C8.52128379 4.15957207 7.65780355 3.77456651 4.3125 2.5625 C3.50425781 2.27503906 2.69601563 1.98757812 1.86328125 1.69140625 C1.24839844 1.46324219 0.63351563 1.23507813 0 1 C0 0.67 0 0.34 0 0 Z " fill="#1A0608" transform="translate(108,16)"/>
<path d="M0 0 C2.1723491 3.25852365 4.07119658 6.59244728 6 10 C3.53199953 8.84826645 1.95216435 7.95216435 0 6 C-0.125 2.875 -0.125 2.875 0 0 Z " fill="#13232A" transform="translate(129,185)"/>
<path d="M0 0 C4 4.75 4 4.75 4 7 C2.35 6.67 0.7 6.34 -1 6 C-0.67 4.02 -0.34 2.04 0 0 Z " fill="#9D2028" transform="translate(52,148)"/>
<path d="M0 0 C0.33 0 0.66 0 1 0 C1.3125 2.3125 1.3125 2.3125 1 5 C-1.5 6.8125 -1.5 6.8125 -4 8 C-2.87548273 5.0280615 -1.77706209 2.66559313 0 0 Z " fill="#851C21" transform="translate(17,29)"/>
<path d="M0 0 C1.7074998 1.28062485 3.37373596 2.61767557 5 4 C5 4.66 5 5.32 5 6 C2.64828869 5.40138258 0.3140622 4.73075648 -2 4 C-2.33 3.34 -2.66 2.68 -3 2 C-2.01 2 -1.02 2 0 2 C0 1.34 0 0.68 0 0 Z " fill="#872127" transform="translate(241,25)"/>
<path d="M0 0 C0.66 0 1.32 0 2 0 C2 0.66 2 1.32 2 2 C3.65 2.33 5.3 2.66 7 3 C6.67 3.99 6.34 4.98 6 6 C3.37812506 4.95125002 2.20628639 4.35068687 0.75 1.875 C0.5025 1.25625 0.255 0.6375 0 0 Z " fill="#75A126" transform="translate(186,104)"/>
<path d="M0 0 C1 2 1 2 0.44140625 3.9453125 C0.15136719 4.66460937 -0.13867188 5.38390625 -0.4375 6.125 C-0.72496094 6.84945312 -1.01242187 7.57390625 -1.30859375 8.3203125 C-1.53675781 8.87460937 -1.76492188 9.42890625 -2 10 C-2.33 10 -2.66 10 -3 10 C-3.36923077 4.58461538 -3.36923077 4.58461538 -1.5 1.625 C-1.005 1.08875 -0.51 0.5525 0 0 Z " fill="#2C0C0F" transform="translate(10,40)"/>
<path d="M0 0 C-0.33 0.99 -0.66 1.98 -1 3 C-3.06640625 3.73046875 -3.06640625 3.73046875 -5.5625 4.1875 C-6.38878906 4.34605469 -7.21507812 4.50460938 -8.06640625 4.66796875 C-9.02353516 4.83232422 -9.02353516 4.83232422 -10 5 C-7.15820531 1.97593277 -4.29899072 0 0 0 Z " fill="#861E27" transform="translate(153,29)"/>
<path d="M0 0 C3.37462715 0.54723683 5.08235 1.0549 8 3 C6.35 3.33 4.7 3.66 3 4 C2.01 2.68 1.02 1.36 0 0 Z " fill="#AC202C" transform="translate(98,13)"/>
<path d="" fill="#000000" transform="translate(0,0)"/>
<path d="" fill="#000000" transform="translate(0,0)"/>
<path d="" fill="#000000" transform="translate(0,0)"/>
<path d="" fill="#000000" transform="translate(0,0)"/>
<path d="" fill="#000000" transform="translate(0,0)"/>
<path d="" fill="#000000" transform="translate(0,0)"/>
<path d="" fill="#000000" transform="translate(0,0)"/>
<path d="" fill="#000000" transform="translate(0,0)"/>
<path d="" fill="#000000" transform="translate(0,0)"/>
<path d="" fill="#000000" transform="translate(0,0)"/>
<path d="" fill="#000000" transform="translate(0,0)"/>
<path d="" fill="#000000" transform="translate(0,0)"/>
<path d="" fill="#000000" transform="translate(0,0)"/>
<path d="" fill="#000000" transform="translate(0,0)"/>
<path d="" fill="#000000" transform="translate(0,0)"/>
<path d="" fill="#000000" transform="translate(0,0)"/>
</svg>
