<?xml version="1.0" encoding="UTF-8"?>
<svg version="1.1" xmlns="http://www.w3.org/2000/svg" width="612" height="408">
<path d="M0 0 C1.71513201 0.94381484 3.4423489 1.86559964 5.17138672 2.78369141 C10.37559174 5.55002198 15.1859877 8.50736063 19.88623047 12.07275391 C22.69391335 13.43421523 24.01502236 13.01830547 26.95654297 12.07666016 C28.68940978 11.27343162 30.39862758 10.41737622 32.08154297 9.51416016 C36.62509821 7.07666016 36.62509821 7.07666016 39.95654297 7.07666016 C39.95654297 6.41666016 39.95654297 5.75666016 39.95654297 5.07666016 C40.81376953 4.75052734 41.67099609 4.42439453 42.55419922 4.08837891 C43.69759766 3.65138672 44.84099609 3.21439453 46.01904297 2.76416016 C47.14439453 2.33490234 48.26974609 1.90564453 49.42919922 1.46337891 C51.7812141 0.53872189 54.11426083 -0.43570822 56.42529297 -1.45849609 C74.62919273 -9.00989257 93.74190638 -9.80020103 112.33154297 -3.17333984 C121.22085741 0.7037575 129.58473221 8.01894402 134.95654297 16.07666016 C134.95654297 17.39666016 134.95654297 18.71666016 134.95654297 20.07666016 C131.82583891 18.65871796 129.4504528 16.91468728 126.83154297 14.70166016 C115.99829454 6.12086932 103.6605034 4.99856342 90.24169922 6.35009766 C79.81048346 8.14217038 70.54128904 13.05017492 61.58837891 18.48535156 C57.26165241 21.07666016 57.26165241 21.07666016 53.95654297 21.07666016 C53.95654297 21.73666016 53.95654297 22.39666016 53.95654297 23.07666016 C52.12060547 24.30322266 52.12060547 24.30322266 49.58154297 25.70166016 C43.90791567 28.99396219 38.99909381 32.90297961 33.95654297 37.07666016 C32.08404808 38.57978619 30.20912017 40.07988734 28.33154297 41.57666016 C27.49365234 42.24697266 26.65576172 42.91728516 25.79248047 43.60791016 C25.18662109 44.09259766 24.58076172 44.57728516 23.95654297 45.07666016 C20.45806682 43.74446544 17.21231614 42.20724775 13.93701172 40.39697266 C12.99664062 39.88005859 12.05626953 39.36314453 11.08740234 38.83056641 C10.11609375 38.29302734 9.14478516 37.75548828 8.14404297 37.20166016 C1.80545134 33.70245108 -4.52835913 30.23773359 -11.04345703 27.07666016 C-11.97931641 26.62162109 -12.91517578 26.16658203 -13.87939453 25.69775391 C-28.1829393 19.0301015 -45.56963576 14.55713216 -61.04345703 20.07666016 C-62.02765625 20.42664063 -62.02765625 20.42664063 -63.03173828 20.78369141 C-70.8044718 24.08898974 -76.20109584 30.45457564 -79.48095703 38.13916016 C-80.96896108 42.41307486 -81.8609007 46.55243791 -82.04345703 51.07666016 C-82.10339844 52.45724609 -82.10339844 52.45724609 -82.16455078 53.86572266 C-83.09746202 98.096691 -59.45317865 145.21329668 -29.89111328 177.26416016 C-26.84470666 180.25260132 -23.57769033 182.69723918 -20.04345703 185.07666016 C-19.23263672 185.65287109 -18.42181641 186.22908203 -17.58642578 186.82275391 C-6.72024444 194.22066653 4.68150201 198.70010466 17.95654297 197.07666016 C21.38842456 196.29929701 24.66734869 195.32402954 27.95654297 194.07666016 C28.28654297 195.39666016 28.61654297 196.71666016 28.95654297 198.07666016 C12.07305846 207.04057204 -2.80923587 210.06308148 -21.43408203 204.38525391 C-56.38672728 191.71302863 -82.69300413 158.85542133 -98.20361328 126.10009766 C-98.82096237 124.76081944 -99.43421713 123.41964667 -100.04345703 122.07666016 C-100.50727783 121.05620605 -100.50727783 121.05620605 -100.98046875 120.01513672 C-114.04160487 90.83411437 -121.04077462 56.02970217 -110.09326172 25.06420898 C-107.27884197 17.71596403 -103.41745585 11.8279606 -98.04345703 6.07666016 C-97.41568359 5.37025391 -96.78791016 4.66384766 -96.14111328 3.93603516 C-69.81969136 -24.26933312 -30.1467051 -16.65946839 0 0 Z " fill="#C01A27" transform="translate(267.04345703125,88.92333984375)"/>
<path d="M0 0 C3.99207311 2.08465552 6.29473508 4.17068997 8.09765625 8.27734375 C9.21787246 12.57546455 9.22702351 16.79232486 9.1953125 21.203125 C9.19389755 21.95071579 9.1924826 22.69830658 9.19102478 23.46855164 C9.18545389 25.8423574 9.17290685 28.21606678 9.16015625 30.58984375 C9.15513748 32.20507676 9.15057524 33.82031125 9.14648438 35.43554688 C9.135494 39.3828493 9.11824957 43.33008022 9.09765625 47.27734375 C10.8305188 47.29921753 10.8305188 47.29921753 12.59838867 47.3215332 C16.89443537 47.37961197 21.18996319 47.45684425 25.4855957 47.53979492 C27.34293175 47.57299924 29.20036762 47.60104516 31.05786133 47.6237793 C33.73171423 47.65740817 36.40465618 47.70972749 39.078125 47.765625 C40.31903145 47.77520988 40.31903145 47.77520988 41.58500671 47.7849884 C47.57785368 47.93698552 50.91133222 49.21248217 55.34765625 53.40234375 C57.72672226 57.31080933 58.29095309 60.72681404 58.09765625 65.27734375 C56.48975067 70.19564317 53.58418095 73.69161333 49.09765625 76.27734375 C45.97990536 76.98883237 42.95030829 76.99923264 39.76171875 76.984375 C38.88236664 76.99949631 38.00301453 77.01461761 37.09701538 77.03019714 C34.30529946 77.07297451 31.51466685 77.08190233 28.72265625 77.08984375 C26.82288807 77.11299586 24.9231455 77.13836268 23.0234375 77.16601562 C18.38141507 77.22876942 13.74006524 77.26118246 9.09765625 77.27734375 C9.1133667 78.35628906 9.12907715 79.43523437 9.14526367 80.546875 C9.19988524 84.57983834 9.23412265 88.61276948 9.26245117 92.64599609 C9.27746479 94.38596103 9.29788202 96.12588859 9.32397461 97.86572266 C9.36068732 100.37802395 9.37745694 102.88982155 9.390625 105.40234375 C9.40610886 106.1703833 9.42159271 106.93842285 9.43754578 107.72973633 C9.43933216 113.56493692 8.64693261 119.35079301 4.66130066 123.92626953 C1.18094539 126.93348667 -2.35694107 127.27734375 -6.83984375 127.27734375 C-11.57587032 126.53050879 -14.82854246 123.85899048 -17.90234375 120.27734375 C-18.78799961 117.62037617 -19.04736995 115.99544292 -19.10766602 113.26489258 C-19.13758385 112.06398735 -19.13758385 112.06398735 -19.16810608 110.83882141 C-19.18481857 109.9793541 -19.20153107 109.11988678 -19.21875 108.234375 C-19.2395311 107.35077805 -19.26031219 106.46718109 -19.28172302 105.55680847 C-19.34710129 102.7345659 -19.40604903 99.9122304 -19.46484375 97.08984375 C-19.50804012 95.17642269 -19.55165477 93.26301102 -19.59570312 91.34960938 C-19.7027707 86.65894938 -19.80407127 81.96819592 -19.90234375 77.27734375 C-21.6649353 77.27903564 -21.6649353 77.27903564 -23.46313477 77.28076172 C-27.84512983 77.27707587 -32.22603218 77.23415062 -36.60766602 77.1796875 C-38.49984678 77.16157896 -40.39215925 77.15394963 -42.28442383 77.15722656 C-45.01355863 77.16009858 -47.7399911 77.12463265 -50.46875 77.08203125 C-51.30757217 77.09112518 -52.14639435 77.10021912 -53.01063538 77.10958862 C-58.57831319 76.97345753 -61.49782036 75.67226982 -65.55625916 71.84841919 C-68.59854214 68.29763486 -68.95456208 65.26949205 -68.71484375 60.71484375 C-67.59895372 55.99377053 -65.65278606 52.40271234 -61.90234375 49.27734375 C-57.97472865 47.96813872 -54.17663744 48.04271507 -50.078125 47.9609375 C-49.21672409 47.9401564 -48.35532318 47.91937531 -47.46781921 47.89796448 C-44.71690831 47.83259466 -41.96590219 47.77364243 -39.21484375 47.71484375 C-37.34959954 47.67164658 -35.48436495 47.6280319 -33.61914062 47.58398438 C-29.04697251 47.47692612 -24.47470865 47.37562321 -19.90234375 47.27734375 C-19.90403564 45.56019165 -19.90403564 45.56019165 -19.90576172 43.80834961 C-19.90207507 39.53815849 -19.85914274 35.26908812 -19.8046875 30.99926758 C-19.78658213 29.15559127 -19.77894905 27.31177987 -19.78222656 25.46801758 C-19.78509954 22.80835563 -19.74962474 20.15146397 -19.70703125 17.4921875 C-19.71612518 16.67523911 -19.72521912 15.85829071 -19.73458862 15.0165863 C-19.59794028 9.56756641 -18.28068297 6.67877807 -14.57717896 2.6799469 C-10.22470132 -0.96506774 -5.47960812 -2.08157598 0 0 Z " fill="#45B0E5" transform="translate(296.90234375,140.72265625)"/>
<path d="M0 0 C0.96550781 0.00451172 1.93101562 0.00902344 2.92578125 0.01367188 C5.28392089 0.02534583 7.64192602 0.04171979 10 0.0625 C11.93096334 6.41710907 8.73677998 13.23236625 6 19.0625 C3.60688206 22.68871306 0.91109019 25.84937617 -2 29.0625 C-2.66 30.0525 -3.32 31.0425 -4 32.0625 C-4.66 32.0625 -5.32 32.0625 -6 32.0625 C-6 32.7225 -6 33.3825 -6 34.0625 C-20.68478783 45.26504954 -37.00436149 47.37041016 -55 47.0625 C-55 45.7425 -55 44.4225 -55 43.0625 C-55.18046875 42.43859375 -55.3609375 41.8146875 -55.546875 41.171875 C-57.07650652 34.05117655 -53.75385269 25.57160636 -51 19.0625 C-50.34 19.0625 -49.68 19.0625 -49 19.0625 C-48.773125 18.505625 -48.54625 17.94875 -48.3125 17.375 C-42.87303014 7.79117216 -32.50540342 4.64820267 -22.52734375 1.859375 C-14.95674638 0.14907393 -7.72698155 -0.06927639 0 0 Z M-51 41.0625 C-51.66 41.7225 -52.32 42.3825 -53 43.0625 C-51.02 42.7325 -49.04 42.4025 -47 42.0625 C-48.89179203 41.3810177 -48.89179203 41.3810177 -51 41.0625 Z " fill="#8BCB1E" transform="translate(417,141.9375)"/>
<path d="M0 0 C2.375 0.25 2.375 0.25 5 1 C6.0625 2.9375 6.0625 2.9375 7 5 C8.32887432 5.67551111 9.6627568 6.34121107 11 7 C17.6306474 12.51140768 21.36105519 20.98427431 22.25878906 29.43652344 C22.9013069 40.27042488 22.24128639 50.60087283 19 61 C18.0409375 61.185625 18.0409375 61.185625 17.0625 61.375 C16.381875 61.58125 15.70125 61.7875 15 62 C14.67 62.66 14.34 63.32 14 64 C10.42454996 64.30750955 8.48845681 64.29205949 5.3671875 62.42578125 C4.54476563 61.72839844 3.72234375 61.03101563 2.875 60.3125 C2.04742187 59.62800781 1.21984375 58.94351563 0.3671875 58.23828125 C-6.27883705 51.95416893 -8.97944284 45.28279046 -9.5 36.1875 C-9.33564936 30.44344498 -8.04435033 24.95129833 -6.75 19.375 C-6.54568359 18.49223389 -6.34136719 17.60946777 -6.13085938 16.69995117 C-4.67533543 10.81464344 -2.64569183 5.45238247 0 0 Z M13 47 C13 48.65 13 50.3 13 52 C13.33 52 13.66 52 14 52 C14 50.35 14 48.7 14 47 C13.67 47 13.34 47 13 47 Z " fill="#8CCB1F" transform="translate(338,122)"/>
<path d="M0 0 C0.66 0.99 1.32 1.98 2 3 C2.99 3.33 3.98 3.66 5 4 C5 5.32 5 6.64 5 8 C6.32 7.67 7.64 7.34 9 7 C9 7.66 9 8.32 9 9 C9.99 9 10.98 9 12 9 C12.12375 10.60875 12.12375 10.60875 12.25 12.25 C13.08382662 16.4191331 13.96412475 17.24011341 17 20 C18.21895224 22.63037063 19.08322067 25.24966202 20 28 C20.66 28 21.32 28 22 28 C22 28.66 22 29.32 22 30 C22.5775 30.226875 23.155 30.45375 23.75 30.6875 C26 32 26 32 27.8125 34.4375 C30.53483947 37.62652623 33.14412044 38.44411877 37 40 C39.9375 42.0625 39.9375 42.0625 42 44 C42 44.66 42 45.32 42 46 C43.7015625 46.433125 43.7015625 46.433125 45.4375 46.875 C46.613125 47.24625 47.78875 47.6175 49 48 C49.33 48.66 49.66 49.32 50 50 C50.928125 49.814375 51.85625 49.62875 52.8125 49.4375 C56 49 56 49 59 50 C59.66 49.34 60.32 48.68 61 48 C60.73323796 46.01508358 60.73323796 46.01508358 60 44 C59.67 43.01 59.34 42.02 59 41 C58.37996094 40.85433594 57.75992188 40.70867187 57.12109375 40.55859375 C54.25202363 39.80301912 53.66028438 38.51007551 52.0625 36.0625 C49.72462161 32.73712082 48.10449566 30.96576368 44 30 C44.33 27.69 44.66 25.38 45 23 C48.80053095 24.26684365 49.65904063 25.89132947 52.0625 29.0625 C56.51605993 34.62405383 61.20901169 38.87982553 67 43 C68.28003906 43.92619141 68.28003906 43.92619141 69.5859375 44.87109375 C80.37089901 52.2244766 91.8384963 56.60955969 105 55 C108.4318816 54.22263686 111.71080572 53.24736939 115 52 C115.495 53.98 115.495 53.98 116 56 C99.11651549 64.96391188 84.23422116 67.98642132 65.609375 62.30859375 C38.46962486 52.46896572 11.89277853 27.97798658 -1 2 C-0.67 1.34 -0.34 0.68 0 0 Z " fill="#BC1C28" transform="translate(180,231)"/>
<path d="M0 0 C0.96550781 0.00451172 1.93101562 0.00902344 2.92578125 0.01367188 C5.28392089 0.02534583 7.64192602 0.04171979 10 0.0625 C11.9344022 6.42842602 8.72233947 13.21819756 6 19.0625 C3.63894068 22.72540823 1.01119523 25.9196024 -2 29.0625 C-2.69996094 29.81144531 -3.39992188 30.56039062 -4.12109375 31.33203125 C-6 33.0625 -6 33.0625 -8 33.0625 C-8 31.4125 -8 29.7625 -8 28.0625 C-7.21625 27.77375 -6.4325 27.485 -5.625 27.1875 C-2.90328368 26.21337746 -2.90328368 26.21337746 -1 24.0625 C-1.0825 22.94875 -1.165 21.835 -1.25 20.6875 C-1.1675 19.49125 -1.085 18.295 -1 17.0625 C1.9375 14.875 1.9375 14.875 5 13.0625 C5.91428339 11.15541157 5.91428339 11.15541157 6 9.0625 C6.32474779 7.3941392 6.65717856 5.72724093 7 4.0625 C3.81257885 4.00384965 0.62529882 3.96868741 -2.5625 3.9375 C-3.45775391 3.92074219 -4.35300781 3.90398437 -5.27539062 3.88671875 C-10.60031362 3.84770833 -14.87940514 4.45317019 -20 6.0625 C-22.3060317 6.33319697 -24.62006375 6.54415343 -26.9375 6.6875 C-28.65259766 6.79964844 -28.65259766 6.79964844 -30.40234375 6.9140625 C-31.25957031 6.96304688 -32.11679687 7.01203125 -33 7.0625 C-33.33 8.0525 -33.66 9.0425 -34 10.0625 C-36.66083969 12.05646257 -39.61242325 14.0625 -43 14.0625 C-43 15.3825 -43 16.7025 -43 18.0625 C-44.875 20.3125 -44.875 20.3125 -47 22.0625 C-47.66 22.0625 -48.32 22.0625 -49 22.0625 C-48.938125 23.17625 -48.938125 23.17625 -48.875 24.3125 C-49.00719416 27.22077162 -49.72482304 28.51214608 -51 31.0625 C-51 32.7125 -51 34.3625 -51 36.0625 C-47.04 37.3825 -43.08 38.7025 -39 40.0625 C-39 41.0525 -39 42.0425 -39 43.0625 C-31.08 42.5675 -31.08 42.5675 -23 42.0625 C-23 41.4025 -23 40.7425 -23 40.0625 C-21.68 39.4025 -20.36 38.7425 -19 38.0625 C-19 37.4025 -19 36.7425 -19 36.0625 C-15.37 35.4025 -11.74 34.7425 -8 34.0625 C-16.56867581 43.70226028 -29.05860281 45.92217128 -41.5 46.9453125 C-46.00053716 47.15627518 -50.49614984 47.13956207 -55 47.0625 C-55 45.7425 -55 44.4225 -55 43.0625 C-55.18046875 42.43859375 -55.3609375 41.8146875 -55.546875 41.171875 C-57.07650652 34.05117655 -53.75385269 25.57160636 -51 19.0625 C-50.34 19.0625 -49.68 19.0625 -49 19.0625 C-48.773125 18.505625 -48.54625 17.94875 -48.3125 17.375 C-42.87303014 7.79117216 -32.50540342 4.64820267 -22.52734375 1.859375 C-14.95674638 0.14907393 -7.72698155 -0.06927639 0 0 Z M-51 41.0625 C-51.66 41.7225 -52.32 42.3825 -53 43.0625 C-51.02 42.7325 -49.04 42.4025 -47 42.0625 C-48.89179203 41.3810177 -48.89179203 41.3810177 -51 41.0625 Z " fill="#9CC442" transform="translate(417,141.9375)"/>
<path d="M0 0 C0.89203125 0.19464844 1.7840625 0.38929687 2.703125 0.58984375 C3.37859375 0.74582031 4.0540625 0.90179688 4.75 1.0625 C4.75 1.7225 4.75 2.3825 4.75 3.0625 C6.07 3.0625 7.39 3.0625 8.75 3.0625 C8.75 3.7225 8.75 4.3825 8.75 5.0625 C9.53503906 5.24425781 10.32007813 5.42601563 11.12890625 5.61328125 C25.81451613 9.12701613 25.81451613 9.12701613 29.75 13.0625 C29.75 14.0525 29.75 15.0425 29.75 16.0625 C30.8225 15.815 31.895 15.5675 33 15.3125 C36.75 15.0625 36.75 15.0625 39.1875 16.875 C40.75 19.0625 40.75 19.0625 40.75 21.0625 C42.07 21.0625 43.39 21.0625 44.75 21.0625 C44.75 21.7225 44.75 22.3825 44.75 23.0625 C46.73 22.4025 48.71 21.7425 50.75 21.0625 C50.42 22.3825 50.09 23.7025 49.75 25.0625 C54.60576131 23.13035116 54.60576131 23.13035116 59 20.375 C60.75 19.0625 60.75 19.0625 63.75 19.0625 C63.75 18.4025 63.75 17.7425 63.75 17.0625 C65.73 16.7325 67.71 16.4025 69.75 16.0625 C69.75 15.4025 69.75 14.7425 69.75 14.0625 C70.74 13.7325 71.73 13.4025 72.75 13.0625 C73.41 12.0725 74.07 11.0825 74.75 10.0625 C78.24470812 8.22317994 80.02258257 7.95220545 83.75 9.0625 C83.14414062 9.4028125 82.53828125 9.743125 81.9140625 10.09375 C75.35166269 13.88984589 69.58098858 18.23623561 63.75 23.0625 C61.87750511 24.56562604 60.0025772 26.06572719 58.125 27.5625 C57.28710938 28.2328125 56.44921875 28.903125 55.5859375 29.59375 C54.98007812 30.0784375 54.37421875 30.563125 53.75 31.0625 C50.25152385 29.73030529 47.00577317 28.1930876 43.73046875 26.3828125 C42.79009766 25.86589844 41.84972656 25.34898437 40.88085938 24.81640625 C39.90955078 24.27886719 38.93824219 23.74132812 37.9375 23.1875 C31.59890837 19.68829092 25.2650979 16.22357343 18.75 13.0625 C17.81414062 12.60746094 16.87828125 12.15242188 15.9140625 11.68359375 C1.61051774 5.01594134 -15.77617873 0.542972 -31.25 6.0625 C-31.90613281 6.29582031 -32.56226563 6.52914062 -33.23828125 6.76953125 C-40.48342073 9.85047406 -46.12984231 15.91787519 -49.25 23.125 C-49.745 24.5790625 -49.745 24.5790625 -50.25 26.0625 C-50.58 26.0625 -50.91 26.0625 -51.25 26.0625 C-51.86528766 20.98637682 -49.86658349 18.23267994 -47.25 14.0625 C-46.59 14.0625 -45.93 14.0625 -45.25 14.0625 C-45.25 11.7525 -45.25 9.4425 -45.25 7.0625 C-35.38477154 3.56419204 -25.93827417 1.80424151 -15.54516602 0.75952148 C-14.79162842 0.68290283 -14.03809082 0.60628418 -13.26171875 0.52734375 C-12.58584717 0.461521 -11.90997559 0.39569824 -11.21362305 0.32788086 C-9.2124612 0.09836828 -9.2124612 0.09836828 -7.16040039 -0.48779297 C-4.55555891 -1.10097099 -2.59569083 -0.58061505 0 0 Z " fill="#AF222A" transform="translate(237.25,102.9375)"/>
<path d="M0 0 C2.375 0.25 2.375 0.25 5 1 C6.0625 2.9375 6.0625 2.9375 7 5 C8.32887432 5.67551111 9.6627568 6.34121107 11 7 C17.6306474 12.51140768 21.36105519 20.98427431 22.25878906 29.43652344 C22.9013069 40.27042488 22.24128639 50.60087283 19 61 C18.0409375 61.185625 18.0409375 61.185625 17.0625 61.375 C16.381875 61.58125 15.70125 61.7875 15 62 C14.67 62.66 14.34 63.32 14 64 C12.35 64 10.7 64 9 64 C9.33 63.34 9.66 62.68 10 62 C10.66 62 11.32 62 12 62 C11.71321895 59.54100504 11.4217537 57.08279956 11.125 54.625 C11.03766602 53.89780762 10.95033203 53.17061523 10.86035156 52.42138672 C10.24411521 47.4750483 9.38586463 42.65986574 8.171875 37.8203125 C8.08679688 36.91925781 8.08679688 36.91925781 8 36 C8.66 35.34 9.32 34.68 10 34 C10.66 34.66 11.32 35.32 12 36 C11.67 36.99 11.34 37.98 11 39 C12.485 38.505 12.485 38.505 14 38 C15.485 42.95 15.485 42.95 17 48 C20.62902045 40.7419591 18.37164176 25.33052906 16 18 C15.01 17.34 14.02 16.68 13 16 C13 14.68 13 13.36 13 12 C12.01 12 11.02 12 10 12 C8.33333333 10.33333333 6.66666667 8.66666667 5 7 C2.82653432 6.13880866 2.82653432 6.13880866 1 6 C0.814375 7.918125 0.814375 7.918125 0.625 9.875 C0.25 13.75 0.25 13.75 -2 16 C-2.99 16 -3.98 16 -5 16 C-4.02541328 10.19834261 -2.98746845 5.16017278 0 0 Z M13 47 C13 48.65 13 50.3 13 52 C13.33 52 13.66 52 14 52 C14 50.35 14 48.7 14 47 C13.67 47 13.34 47 13 47 Z " fill="#92BE36" transform="translate(338,122)"/>
<path d="M0 0 C3.11124727 1.00423366 6.15913175 2.06427598 9.19140625 3.2890625 C21.04529161 7.98666249 31.02677572 8.54063584 43 4 C43.495 5.98 43.495 5.98 44 8 C26.70162737 17.18418753 12.05994255 19.54983079 -6.828125 14.16796875 C-9.8738757 13.04644232 -12.39767145 11.94196323 -15 10 C-15 9.01 -15 8.02 -15 7 C-13.93072266 7.2165625 -13.93072266 7.2165625 -12.83984375 7.4375 C-4.97092493 8.9682981 -4.97092493 8.9682981 3 9 C3.66 8.34 4.32 7.68 5 7 C5.99 7.33 6.98 7.66 8 8 C8 9.66666667 8 11.33333333 8 13 C11.96 13 15.92 13 20 13 C20 12.67 20 12.34 20 12 C14.09870572 8.94051752 8.26023961 6.23579986 2 4 C1.34 3.67 0.68 3.34 0 3 C0 2.01 0 1.02 0 0 Z " fill="#B5212B" transform="translate(252,279)"/>
<path d="M0 0 C0.99 0.495 0.99 0.495 2 1 C3.19865738 5.28091921 3.31657867 9.03164172 1.9375 13.25 C-0.73916089 17.04913158 -3.42444554 20.41224372 -8.08148193 21.4750061 C-10.51099906 21.67224892 -12.89847129 21.71838893 -15.3359375 21.70703125 C-16.21528961 21.72215256 -17.09464172 21.73727386 -18.00064087 21.75285339 C-20.79235679 21.79563076 -23.5829894 21.80455858 -26.375 21.8125 C-28.27476818 21.83565211 -30.17451075 21.86101893 -32.07421875 21.88867188 C-36.71624118 21.95142567 -41.35759101 21.98383871 -46 22 C-45.98428955 23.07894531 -45.9685791 24.15789062 -45.95239258 25.26953125 C-45.89777101 29.30249459 -45.8635336 33.33542573 -45.83520508 37.36865234 C-45.82019146 39.10861728 -45.79977423 40.84854484 -45.77368164 42.58837891 C-45.73696893 45.1006802 -45.72019931 47.6124778 -45.70703125 50.125 C-45.69154739 50.89303955 -45.67606354 51.6610791 -45.66011047 52.45239258 C-45.65832409 58.28759317 -46.45072364 64.07344926 -50.43635559 68.64892578 C-53.82305055 71.5752153 -57.64939276 72.22864962 -62 71.9375 C-66.48147149 71.24804285 -68.80530151 69.11483103 -72 66 C-71.01 65.01 -71.01 65.01 -70 64 C-69.4121875 64.9590625 -69.4121875 64.9590625 -68.8125 65.9375 C-67.16090364 68.136374 -67.16090364 68.136374 -64.75 68.875 C-61.19438717 69.03661876 -58.35539338 68.11846446 -55 67 C-55 66.01 -55 65.02 -55 64 C-53.02 63.505 -53.02 63.505 -51 63 C-51.01160156 62.14535156 -51.02320313 61.29070312 -51.03515625 60.41015625 C-51.04417969 59.30542969 -51.05320312 58.20070312 -51.0625 57.0625 C-51.07410156 55.96035156 -51.08570313 54.85820312 -51.09765625 53.72265625 C-51 51 -51 51 -50 50 C-49.87806756 47.87863978 -49.8202377 45.75353911 -49.7890625 43.62890625 C-49.74652344 41.68467773 -49.74652344 41.68467773 -49.703125 39.70117188 C-49.66181409 37.62947906 -49.62494317 35.55802474 -49.59863281 33.48608398 C-49.57108942 31.49179982 -49.52410724 29.49781383 -49.4765625 27.50390625 C-49.45674316 26.30580322 -49.43692383 25.1077002 -49.41650391 23.87329102 C-49.27905762 22.92510498 -49.14161133 21.97691895 -49 21 C-45.06442302 18.37628202 -41.63432927 18.66634732 -37.0625 18.62109375 C-35.7477771 18.59560204 -35.7477771 18.59560204 -34.40649414 18.56959534 C-31.60440277 18.51644653 -28.80232571 18.47616768 -26 18.4375 C-23.19775073 18.39354974 -20.39561535 18.34681315 -17.59350586 18.29469299 C-15.84961487 18.26278351 -14.10562368 18.23587861 -12.36157227 18.21446228 C-9.00649487 18.15723851 -6.20386796 18.06795599 -3 17 C-3 16.34 -3 15.68 -3 15 C-2.50886719 14.59136719 -2.01773438 14.18273437 -1.51171875 13.76171875 C0.70734665 11.17567613 0.29529909 9.15427191 0.1875 5.8125 C0.16042969 4.72582031 0.13335937 3.63914063 0.10546875 2.51953125 C0.05326172 1.27236328 0.05326172 1.27236328 0 0 Z " fill="#60A7C9" transform="translate(352,196)"/>
<path d="M0 0 C12.77174682 1.59646835 21.61421839 8.61535798 30 18 C32 21 32 21 32 25 C28.86929594 23.5820578 26.49390983 21.83802713 23.875 19.625 C13.0489311 11.04989592 0.59624012 9.84057761 -12.8203125 11.30859375 C-17.95952894 12.21883114 -22.42093072 13.87356627 -27.08984375 16.1953125 C-29 17 -29 17 -32 17 C-32 15 -32 15 -30.75 13.4375 C-26.75682566 10.15739251 -21.91799247 10.91803346 -17 11 C-16.67 10.34 -16.34 9.68 -16 9 C-3.625 8.505 -3.625 8.505 9 8 C9.33 7.34 9.66 6.68 10 6 C8.02 6.33 6.04 6.66 4 7 C4 5.68 4 4.36 4 3 C2.68 2.67 1.36 2.34 0 2 C0 1.34 0 0.68 0 0 Z " fill="#B0232D" transform="translate(370,84)"/>
<path d="M0 0 C0.66 0.99 1.32 1.98 2 3 C2.99 3.33 3.98 3.66 5 4 C5 5.32 5 6.64 5 8 C6.32 7.67 7.64 7.34 9 7 C9 7.66 9 8.32 9 9 C9.99 9 10.98 9 12 9 C12.12375 10.60875 12.12375 10.60875 12.25 12.25 C13.08382662 16.4191331 13.96412475 17.24011341 17 20 C18.21895224 22.63037063 19.08322067 25.24966202 20 28 C20.66 28 21.32 28 22 28 C22 28.66 22 29.32 22 30 C22.5775 30.226875 23.155 30.45375 23.75 30.6875 C26 32 26 32 27.8125 34.4375 C30.53483947 37.62652623 33.14412044 38.44411877 37 40 C39.9375 42.0625 39.9375 42.0625 42 44 C42 44.66 42 45.32 42 46 C43.093125 46.268125 44.18625 46.53625 45.3125 46.8125 C50.13357731 48.36505032 50.13357731 48.36505032 52 51 C52 51.66 52 52.32 52 53 C52.66 53 53.32 53 54 53 C54.66 54.32 55.32 55.64 56 57 C44.73405036 53.77874793 35.29404799 44.96879121 27 37 C26.19046875 36.24203125 25.3809375 35.4840625 24.546875 34.703125 C14.9123983 25.43221346 4.98027734 14.04981256 -1 2 C-0.67 1.34 -0.34 0.68 0 0 Z " fill="#9E2831" transform="translate(180,231)"/>
<path d="M0 0 C1.08111938 3.24335815 0.72318089 5.21006354 0.265625 8.52734375 C-1.65512475 26.40726424 1.34508513 46.39987811 8.671875 62.875 C10 66 10 66 9.8125 68.375 C9 70 9 70 7 71 C6.32942113 69.2097939 5.6636531 67.41778511 5 65.625 C4.62875 64.62726563 4.2575 63.62953125 3.875 62.6015625 C3 60 3 60 3 58 C2.34 58 1.68 58 1 58 C-5.7267093 43.13932004 -3.59863015 22.98789895 -4 7 C-3.34 7 -2.68 7 -2 7 C-2 5.35 -2 3.7 -2 2 C-1.34 2 -0.68 2 0 2 C0 1.34 0 0.68 0 0 Z " fill="#9E272F" transform="translate(185,129)"/>
<path d="M0 0 C4.01063257 2.09434724 6.42114985 4.08607774 8.09765625 8.27734375 C8.60661521 11.27062711 8.9062721 14.24819465 9.09765625 17.27734375 C7.609375 15.9765625 7.609375 15.9765625 6.09765625 14.27734375 C5.91015625 11.08984375 5.91015625 11.08984375 6.09765625 8.27734375 C5.43765625 8.27734375 4.77765625 8.27734375 4.09765625 8.27734375 C3.85015625 7.63796875 3.60265625 6.99859375 3.34765625 6.33984375 C2.31153419 4.15023398 2.31153419 4.15023398 0.3359375 3.6171875 C-2.26603993 3.22212286 -4.36459034 3.36946086 -6.96484375 3.77734375 C-8.25068359 3.9475 -8.25068359 3.9475 -9.5625 4.12109375 C-12.51956727 5.58234903 -13.09459029 7.29016475 -14.2900238 10.27438354 C-15.28287593 13.52210284 -15.32354517 16.7470244 -15.30859375 20.109375 C-15.31942993 20.8271965 -15.33026611 21.54501801 -15.34143066 22.28459167 C-15.38700821 25.32695475 -15.39885846 28.36922142 -15.41357422 31.41186523 C-15.42920985 33.64468103 -15.46216447 35.87677469 -15.49609375 38.109375 C-15.49307251 38.79892776 -15.49005127 39.48848053 -15.48693848 40.19892883 C-15.51757812 42.13208008 -15.51757812 42.13208008 -15.90234375 45.27734375 C-16.89234375 45.93734375 -17.88234375 46.59734375 -18.90234375 47.27734375 C-19.05127068 41.85143915 -19.1598301 36.42673779 -19.23193359 30.99926758 C-19.26200608 29.15530663 -19.30287635 27.31148754 -19.35498047 25.46801758 C-19.42822233 22.80905084 -19.4618938 20.151983 -19.48828125 17.4921875 C-19.51924896 16.67523911 -19.55021667 15.85829071 -19.5821228 15.0165863 C-19.58530729 9.53364896 -18.31755995 6.69454441 -14.58486938 2.6799469 C-10.22184719 -0.95719749 -5.4868837 -2.0843398 0 0 Z " fill="#59ADD3" transform="translate(296.90234375,140.72265625)"/>
<path d="M0 0 C0.66 0.33 1.32 0.66 2 1 C1.79375 1.78375 1.5875 2.5675 1.375 3.375 C1.25125 4.24125 1.1275 5.1075 1 6 C3.34914492 8.34914492 4.95679446 8.73140357 8.125 9.625 C9.03507812 9.88539063 9.94515625 10.14578125 10.8828125 10.4140625 C11.58148438 10.60742188 12.28015625 10.80078125 13 11 C13 11.99 13 12.98 13 14 C20.92 13.505 20.92 13.505 29 13 C29 12.34 29 11.68 29 11 C30.32 10.34 31.64 9.68 33 9 C33 8.34 33 7.68 33 7 C38.445 6.01 38.445 6.01 44 5 C35.43132419 14.63976028 22.94139719 16.85967128 10.5 17.8828125 C5.99946284 18.09377518 1.50385016 18.07706207 -3 18 C-3 16.68 -3 15.36 -3 14 C-3.17402344 13.35546875 -3.34804688 12.7109375 -3.52734375 12.046875 C-4.08922946 9.6135848 -3.88923837 7.71868988 -3.5625 5.25 C-3.46066406 4.45078125 -3.35882813 3.6515625 -3.25390625 2.828125 C-3.17011719 2.22484375 -3.08632813 1.6215625 -3 1 C-2.01 0.67 -1.02 0.34 0 0 Z M1 12 C0.34 12.66 -0.32 13.32 -1 14 C0.98 13.67 2.96 13.34 5 13 C3.10820797 12.3185177 3.10820797 12.3185177 1 12 Z " fill="#91BB39" transform="translate(365,171)"/>
<path d="M0 0 C-0.90878906 0.51046875 -0.90878906 0.51046875 -1.8359375 1.03125 C-8.39833731 4.82734589 -14.16901142 9.17373561 -20 14 C-21.87249489 15.50312604 -23.7474228 17.00322719 -25.625 18.5 C-26.46289062 19.1703125 -27.30078125 19.840625 -28.1640625 20.53125 C-28.76992188 21.0159375 -29.37578125 21.500625 -30 22 C-34.39383706 20.40376856 -38.28995807 18.21975667 -42.3125 15.875 C-42.95767578 15.50246094 -43.60285156 15.12992188 -44.26757812 14.74609375 C-45.84675945 13.83367787 -47.42361864 12.91724491 -49 12 C-49 11.01 -49 10.02 -49 9 C-48.34 8.67 -47.68 8.34 -47 8 C-44.875 8.9375 -44.875 8.9375 -43 10 C-43 10.66 -43 11.32 -43 12 C-41.68 12 -40.36 12 -39 12 C-39 12.66 -39 13.32 -39 14 C-37.02 13.34 -35.04 12.68 -33 12 C-33.33 13.32 -33.66 14.64 -34 16 C-29.14423869 14.06785116 -29.14423869 14.06785116 -24.75 11.3125 C-23 10 -23 10 -20 10 C-20 9.34 -20 8.68 -20 8 C-18.02 7.67 -16.04 7.34 -14 7 C-14 6.34 -14 5.68 -14 5 C-13.01 4.67 -12.02 4.34 -11 4 C-10.34 3.01 -9.68 2.02 -9 1 C-5.50529188 -0.83932006 -3.72741743 -1.11029455 0 0 Z " fill="#B32632" transform="translate(321,112)"/>
<path d="M0 0 C1.32 0.66 2.64 1.32 4 2 C3.01 2.495 3.01 2.495 2 3 C2 3.66 2 4.32 2 5 C1.34 5 0.68 5 0 5 C-0.33 5.66 -0.66 6.32 -1 7 C-1.66 7 -2.32 7 -3 7 C-3.99 7.33 -4.98 7.66 -6 8 C-6.0825 8.78375 -6.165 9.5675 -6.25 10.375 C-6.4975 11.24125 -6.745 12.1075 -7 13 C-8.8125 14 -8.8125 14 -11 15 C-12.36244796 16.64295195 -13.69864875 18.30824337 -15 20 C-15.66 20.33 -16.32 20.66 -17 21 C-17 22.65 -17 24.3 -17 26 C-18.32 26.33 -19.64 26.66 -21 27 C-21 27.66 -21 28.32 -21 29 C-22.98 29.66 -24.96 30.32 -27 31 C-25.11287608 20.14903747 -15.14172855 10.48413255 -6.49609375 4.171875 C-4.35434488 2.73733898 -2.19939361 1.34407387 0 0 Z " fill="#B32029" transform="translate(186,81)"/>
<path d="M0 0 C2.80304658 3.33537591 4.32077068 6.9450671 5.9375 10.9375 C12.08177696 25.49368627 20.14865044 39.62786394 30 52 C29.67 52.66 29.34 53.32 29 54 C24.125 53.125 24.125 53.125 23 52 C22.95936168 50.33382885 22.957279 48.66611905 23 47 C21.515 46.505 21.515 46.505 20 46 C19.731875 45.13375 19.46375 44.2675 19.1875 43.375 C18.03209982 40.09123107 17.18778026 38.93735624 14.875 36.5 C12.46155162 33.8698099 12.03134041 33.28728711 11.625 29.5625 C11.74875 28.716875 11.8725 27.87125 12 27 C11.01 27 10.02 27 9 27 C9 25.68 9 24.36 9 23 C8.34 23 7.68 23 7 23 C6.15238178 21.29870914 5.3225132 19.58856916 4.5 17.875 C4.0359375 16.92367187 3.571875 15.97234375 3.09375 14.9921875 C1.92251884 11.78803369 1.79923876 9.38282687 2 6 C1.34 6 0.68 6 0 6 C0 4.02 0 2.04 0 0 Z " fill="#9C2D35" transform="translate(195,199)"/>
<path d="M0 0 C0.99 0 1.98 0 3 0 C3 0.66 3 1.32 3 2 C3.66 2 4.32 2 5 2 C5.28875 2.804375 5.5775 3.60875 5.875 4.4375 C6.73262568 7.1326468 6.73262568 7.1326468 9 8 C8.95117188 11.07617188 8.95117188 11.07617188 8.90234375 14.15234375 C8.79438816 16.01732141 8.79438816 16.01732141 10 17 C10.04063832 18.66617115 10.042721 20.33388095 10 22 C10.99 22.33 11.98 22.66 13 23 C15.83155943 28.64359087 17.44278316 34.7313105 18 41 C17.34 41 16.68 41 16 41 C11.74398574 32.7864452 7.65371852 24.52878667 4.0625 16 C3.76851318 15.31945557 3.47452637 14.63891113 3.17163086 13.93774414 C1.24888512 9.27017204 0.44354981 5.03064085 0 0 Z " fill="#AA232E" transform="translate(159,186)"/>
<path d="M0 0 C0.66 0 1.32 0 2 0 C1.42234485 3.89917223 -0.53482794 6.01191265 -3 9 C-3.268125 9.66 -3.53625 10.32 -3.8125 11 C-5.73428612 14.23669241 -8.8900697 15.97106151 -12 18 C-12.33 17.34 -12.66 16.68 -13 16 C-13.54269531 16.28875 -14.08539063 16.5775 -14.64453125 16.875 C-15.35996094 17.24625 -16.07539063 17.6175 -16.8125 18 C-17.52019531 18.37125 -18.22789062 18.7425 -18.95703125 19.125 C-21 20 -21 20 -24 20 C-24 20.66 -24 21.32 -24 22 C-24.78375 21.979375 -25.5675 21.95875 -26.375 21.9375 C-28.98114961 21.81315937 -28.98114961 21.81315937 -31 23 C-33.125 22.0625 -33.125 22.0625 -35 21 C-33.96875 20.731875 -32.9375 20.46375 -31.875 20.1875 C-27.40146589 18.9080511 -23.33127025 17.33127025 -20 14 C-14.30275229 8.92201835 -14.30275229 8.92201835 -10 8 C-9.34 7.01 -8.68 6.02 -8 5 C-6.515 4.7834375 -6.515 4.7834375 -5 4.5625 C-4.01 4.376875 -3.02 4.19125 -2 4 C-0.56362302 2.04836882 -0.56362302 2.04836882 0 0 Z " fill="#8FC42F" transform="translate(404,158)"/>
<path d="M0 0 C1.51904297 1.20361328 1.51904297 1.20361328 3 3 C3.07861328 5.16748047 3.07861328 5.16748047 2.6953125 7.7421875 C1.83228945 14.87917645 1.85341215 21.94344212 1.875 29.125 C1.87142969 30.4635426 1.8675254 31.80208436 1.86328125 33.140625 C1.86457031 34.39617187 1.86585938 35.65171875 1.8671875 36.9453125 C1.86831543 38.08500488 1.86944336 39.22469727 1.87060547 40.39892578 C1.7047923 42.92849255 1.7047923 42.92849255 3 44 C3.04080783 45.99958364 3.04254356 48.00045254 3 50 C3.99 50 4.98 50 6 50 C6 53.3 6 56.6 6 60 C5.01 59.67 4.02 59.34 3 59 C2.34922827 55.83432793 1.7053016 52.66729923 1.0625 49.5 C0.88009766 48.613125 0.69769531 47.72625 0.50976562 46.8125 C-1.18571543 38.42757552 -2.19447728 30.31548491 -2.1875 21.75 C-2.18814453 20.92459717 -2.18878906 20.09919434 -2.18945312 19.2487793 C-2.13316575 12.69193942 -1.4327366 6.40893781 0 0 Z " fill="#AF3034" transform="translate(154,125)"/>
<path d="M0 0 C0 3.05965599 -0.52913961 4.42600794 -1.6875 7.1875 C-2.95341536 10.80186583 -3.1279667 12.88572269 -1.8125 16.5 C-0.41618154 20.03715643 -0.41618154 20.03715643 2 21 C2 21.66 2 22.32 2 23 C2.886875 22.773125 3.77375 22.54625 4.6875 22.3125 C10.56522854 21.41383903 16.35912224 23.49859344 22 25 C22 24.34 22 23.68 22 23 C28.93 23 35.86 23 43 23 C38.02298163 27.97701837 27.96864267 26.33063088 21.26000977 26.4050293 C19.79655422 26.42665352 18.33322954 26.46081001 16.87036133 26.50756836 C3.13999812 26.94102888 3.13999812 26.94102888 -1.41015625 23.15625 C-4.02939762 20.36770405 -5.37566349 17.82406113 -6 14 C-5.68937762 8.09817476 -4.17792022 4.17792022 0 0 Z " fill="#56AEDB" transform="translate(234,191)"/>
<path d="M0 0 C0 0.66 0 1.32 0 2 C-4.32331963 2.02480062 -8.64660106 2.04290758 -12.9699707 2.05493164 C-14.43937909 2.05994669 -15.90878252 2.06676033 -17.37817383 2.07543945 C-19.49561795 2.08762928 -21.61299583 2.09325669 -23.73046875 2.09765625 C-25.63928833 2.10551147 -25.63928833 2.10551147 -27.58666992 2.11352539 C-30.5370919 2.01539606 -33.13946675 1.69063835 -36 1 C-36 1.66 -36 2.32 -36 3 C-40.72314313 3.77112541 -45.21521178 4.09764874 -50 4 C-38.39191633 -7.60808367 -14.25021383 -3.31125301 0 0 Z " fill="#9D2836" transform="translate(239,77)"/>
<path d="M0 0 C1.216875 0.474375 2.43375 0.94875 3.6875 1.4375 C1.18704093 2.68772953 0.00418842 2.35694282 -2.75 2 C-11.10245484 1.08400207 -19.29259124 0.57679028 -27.3125 3.4375 C-27.96863281 3.67082031 -28.62476563 3.90414062 -29.30078125 4.14453125 C-36.54592073 7.22547406 -42.19234231 13.29287519 -45.3125 20.5 C-45.8075 21.9540625 -45.8075 21.9540625 -46.3125 23.4375 C-46.6425 23.4375 -46.9725 23.4375 -47.3125 23.4375 C-47.92778766 18.36137682 -45.92908349 15.60767994 -43.3125 11.4375 C-42.6525 11.4375 -41.9925 11.4375 -41.3125 11.4375 C-41.3125 9.1275 -41.3125 6.8175 -41.3125 4.4375 C-28.46494952 -0.11836897 -13.16216196 -5.13101229 0 0 Z " fill="#9E252D" transform="translate(233.3125,105.5625)"/>
<path d="M0 0 C3.11124727 1.00423366 6.15913175 2.06427598 9.19140625 3.2890625 C21.04529161 7.98666249 31.02677572 8.54063584 43 4 C43.495 5.98 43.495 5.98 44 8 C42.06629769 9.00732399 40.12789694 10.00563288 38.1875 11 C37.10855469 11.556875 36.02960938 12.11375 34.91796875 12.6875 C32 14 32 14 29 14 C29 13.34 29 12.68 29 12 C29.66 12 30.32 12 31 12 C31 11.34 31 10.68 31 10 C30.12859375 10.19078125 29.2571875 10.3815625 28.359375 10.578125 C24.83305763 11.02096486 22.65086593 10.68753601 19.25 9.75 C17.69732422 9.32654297 17.69732422 9.32654297 16.11328125 8.89453125 C15.08589844 8.59933594 14.05851562 8.30414063 13 8 C12.04480469 7.73574219 11.08960938 7.47148437 10.10546875 7.19921875 C6.27402614 6.10532225 3.34472229 5.22981486 0 3 C0 2.01 0 1.02 0 0 Z " fill="#9F3D42" transform="translate(252,279)"/>
<path d="M0 0 C3.80053095 1.26684365 4.65904063 2.89132947 7.0625 6.0625 C12.97271524 13.47433344 20.02275617 18.96174074 28 24 C27.67 24.99 27.34 25.98 27 27 C23.59687262 25.94124926 20.98646769 24.99097846 18 23 C18 22.34 18 21.68 18 21 C16.68 20.67 15.36 20.34 14 20 C14 19.34 14 18.68 14 18 C13.40058594 17.91621094 12.80117187 17.83242188 12.18359375 17.74609375 C9.35519239 16.77968112 8.6789022 15.53859533 7.0625 13.0625 C4.72462161 9.73712082 3.10449566 7.96576368 -1 7 C-0.67 4.69 -0.34 2.38 0 0 Z " fill="#B2232D" transform="translate(225,254)"/>
<path d="M0 0 C0.66 0.33 1.32 0.66 2 1 C3.19865738 5.28091921 3.31657867 9.03164172 1.9375 13.25 C-0.75959039 17.07812829 -3.42556899 20.42325601 -8.12030029 21.4750061 C-10.60952589 21.67249055 -13.05767813 21.71837245 -15.5546875 21.70703125 C-16.90700974 21.72971321 -16.90700974 21.72971321 -18.28665161 21.75285339 C-21.14969061 21.79564114 -24.01167348 21.80455968 -26.875 21.8125 C-28.82294457 21.83565127 -30.77086415 21.86101792 -32.71875 21.88867188 C-37.47925966 21.95143606 -42.23911325 21.98384099 -47 22 C-46.505 20.515 -46.505 20.515 -46 19 C-44.20598755 18.96241577 -44.20598755 18.96241577 -42.37573242 18.92407227 C-37.94202805 18.82996148 -33.508479 18.72974964 -29.07495117 18.62768555 C-27.15539175 18.5843506 -25.23579415 18.54267448 -23.31616211 18.50268555 C-20.55831386 18.44494822 -17.80065759 18.38126365 -15.04296875 18.31640625 C-14.18350143 18.29969376 -13.32403412 18.28298126 -12.43852234 18.26576233 C-11.63791885 18.24581711 -10.83731537 18.22587189 -10.01245117 18.20532227 C-9.3085173 18.18977798 -8.60458344 18.1742337 -7.87931824 18.15821838 C-5.77300917 18.05518396 -5.77300917 18.05518396 -3 17 C-3 16.34 -3 15.68 -3 15 C-2.50886719 14.59136719 -2.01773438 14.18273437 -1.51171875 13.76171875 C0.70734665 11.17567613 0.29529909 9.15427191 0.1875 5.8125 C0.16042969 4.72582031 0.13335937 3.63914063 0.10546875 2.51953125 C0.05326172 1.27236328 0.05326172 1.27236328 0 0 Z " fill="#549FC1" transform="translate(352,196)"/>
<path d="M0 0 C2.375 0.25 2.375 0.25 5 1 C6.0625 2.9375 6.0625 2.9375 7 5 C7.61875 5.28875 8.2375 5.5775 8.875 5.875 C12.03025997 7.54543175 13.25756868 9.95074519 15 13 C15 13.99 15 14.98 15 16 C14.34 16 13.68 16 13 16 C13 14.68 13 13.36 13 12 C12.01 12 11.02 12 10 12 C8.33333333 10.33333333 6.66666667 8.66666667 5 7 C2.82653432 6.13880866 2.82653432 6.13880866 1 6 C0.814375 7.918125 0.814375 7.918125 0.625 9.875 C0.25 13.75 0.25 13.75 -2 16 C-2.99 16 -3.98 16 -5 16 C-4.02541328 10.19834261 -2.98746845 5.16017278 0 0 Z " fill="#9DC135" transform="translate(338,122)"/>
<path d="M0 0 C1.60326065 0.69450618 3.18052439 1.45130397 4.73046875 2.2578125 C5.6119458 2.71567139 6.49342285 3.17353027 7.40161133 3.64526367 C8.78062622 4.37773315 8.78062622 4.37773315 10.1875 5.125 C11.12553467 5.61911377 12.06356934 6.11322754 13.0300293 6.62231445 C19.36124186 10.00413938 25.35562039 13.54230937 31 18 C27.6667679 18 26.3543938 17.33415407 23.4375 15.8125 C22.55191406 15.35746094 21.66632813 14.90242188 20.75390625 14.43359375 C19.84511719 13.96050781 18.93632812 13.48742187 18 13 C10.98830774 9.38344294 4.16221878 6.21082728 -3.4375 4 C-4.283125 3.67 -5.12875 3.34 -6 3 C-6.33 2.01 -6.66 1.02 -7 0 C-4.26649705 -1.36675148 -2.92422695 -0.77041979 0 0 Z " fill="#AB2A32" transform="translate(256,83)"/>
<path d="M0 0 C0.33 0 0.66 0 1 0 C2.80563449 8.07698999 3.18312676 15.82684909 3.01367188 24.05981445 C2.91833389 29.4685427 3.30958651 34.63190135 4 40 C3.01 40.66 2.02 41.32 1 42 C-0.69196504 38.61606992 -0.11986549 34.77522209 -0.09765625 31.0546875 C-0.0962413 30.1696756 -0.09482635 29.2846637 -0.09336853 28.37283325 C-0.0877614 25.54018809 -0.07520771 22.70762136 -0.0625 19.875 C-0.05748592 17.95703239 -0.05292285 16.03906354 -0.04882812 14.12109375 C-0.03778966 9.41403218 -0.02052025 4.7070294 0 0 Z " fill="#52B0DC" transform="translate(278,218)"/>
<path d="M0 0 C2.30471162 3.45706743 3.32983833 6.93900164 4.5 10.875 C6.15962855 16.43198672 6.15962855 16.43198672 8.171875 21.8671875 C9.14998824 24.38629046 9.05639558 25.53507699 8 28 C7.34 28.33 6.68 28.66 6 29 C-1.42079867 11.11746375 -1.42079867 11.11746375 -1 1 C-0.67 0.67 -0.34 0.34 0 0 Z " fill="#A82D36" transform="translate(186,171)"/>
<path d="M0 0 C0.495 0.99 0.495 0.99 1 2 C0.25234375 2.38671875 -0.4953125 2.7734375 -1.265625 3.171875 C-2.25046875 3.69265625 -3.2353125 4.2134375 -4.25 4.75 C-5.22453125 5.26046875 -6.1990625 5.7709375 -7.203125 6.296875 C-9.9240874 7.95377389 -11.80670206 9.71610932 -14 12 C-19.61099169 14.66522105 -25.89042872 14.62433057 -32 15 C-31.67 14.34 -31.34 13.68 -31 13 C-29.33571633 12.65496558 -27.66854822 12.32378344 -26 12 C-24.26713319 11.19677146 -22.55791539 10.34071606 -20.875 9.4375 C-16.33144476 7 -16.33144476 7 -13 7 C-13 6.34 -13 5.68 -13 5 C-8.71 3.35 -4.42 1.7 0 0 Z " fill="#9B2E3B" transform="translate(320,89)"/>
<path d="M0 0 C3.62492967 -0.05891984 7.24973334 -0.0939009 10.875 -0.125 C11.88820313 -0.14175781 12.90140625 -0.15851563 13.9453125 -0.17578125 C20.31014829 -0.21658148 26.95673696 -0.24265838 33 2 C33.66 2.99 34.32 3.98 35 5 C34.40832031 4.86722656 33.81664062 4.73445313 33.20703125 4.59765625 C32.41683594 4.42105469 31.62664062 4.24445313 30.8125 4.0625 C30.03519531 3.88847656 29.25789063 3.71445313 28.45703125 3.53515625 C27.64621094 3.35855469 26.83539063 3.18195313 26 3 C25.21367187 2.81695312 24.42734375 2.63390625 23.6171875 2.4453125 C11.99562145 0.46791171 0.40799465 1.97497181 -10.08984375 7.1953125 C-12 8 -12 8 -15 8 C-15 6 -15 6 -13.75 4.4375 C-9.75682566 1.15739251 -4.91799247 1.91803346 0 2 C0 1.34 0 0.68 0 0 Z " fill="#A6232A" transform="translate(353,93)"/>
<path d="M0 0 C1.32751785 0.00212242 1.32751785 0.00212242 2.68185425 0.00428772 C5.51449941 0.00989485 8.34706614 0.02244854 11.1796875 0.03515625 C13.09765511 0.04017033 15.01562396 0.0447334 16.93359375 0.04882812 C21.64065532 0.05986659 26.3476581 0.077136 31.0546875 0.09765625 C30.7246875 0.75765625 30.3946875 1.41765625 30.0546875 2.09765625 C28.95479492 2.11747559 27.85490234 2.13729492 26.72167969 2.15771484 C22.63632528 2.23385526 18.55132312 2.32255961 14.46630859 2.41503906 C12.6991268 2.45329396 10.93186806 2.48815295 9.16455078 2.51953125 C6.62244187 2.56525777 4.08086102 2.62323914 1.5390625 2.68359375 C0.75037781 2.69514496 -0.03830688 2.70669617 -0.85089111 2.71859741 C-4.66804505 2.82102709 -7.70575586 2.95050825 -10.9453125 5.09765625 C-10.9453125 3.77765625 -10.9453125 2.45765625 -10.9453125 1.09765625 C-7.56138242 -0.59430879 -3.72053459 -0.02220924 0 0 Z " fill="#62A7C8" transform="translate(246.9453125,188.90234375)"/>
<path d="M0 0 C1.32 0.66 2.64 1.32 4 2 C3.01 2.495 3.01 2.495 2 3 C2 3.66 2 4.32 2 5 C1.34 5 0.68 5 0 5 C-0.33 5.66 -0.66 6.32 -1 7 C-1.66 7 -2.32 7 -3 7 C-9.23527454 10.06332303 -13.55229886 12.966523 -17 19 C-17.66 19 -18.32 19 -19 19 C-19 19.66 -19 20.32 -19 21 C-19.66 21 -20.32 21 -21 21 C-17.88521209 11.45138787 -8.32136322 4.94457815 0 0 Z " fill="#9E2A35" transform="translate(186,81)"/>
<path d="M0 0 C0.99 0 1.98 0 3 0 C3.25 5.625 3.25 5.625 1 9 C0.7950306 12.06921363 0.7950306 12.06921363 0.9375 15.4375 C1.12130963 22.46222465 1.12130963 22.46222465 0 26 C-0.66 26 -1.32 26 -2 26 C-5.78868044 18.42263912 -2.03688654 7.6262002 0 0 Z " fill="#93C037" transform="translate(332,139)"/>
<path d="M0 0 C-0.33 1.98 -0.66 3.96 -1 6 C-3.475 5.505 -3.475 5.505 -6 5 C-6.33 3.68 -6.66 2.36 -7 1 C-8.01126953 1.24556641 -8.01126953 1.24556641 -9.04296875 1.49609375 C-12.51367906 2.0875358 -15.79322124 2.09539046 -19.3125 2.0625 C-20.56675781 2.05347656 -21.82101562 2.04445313 -23.11328125 2.03515625 C-24.06589844 2.02355469 -25.01851563 2.01195313 -26 2 C-26 1.01 -26 0.02 -26 -1 C-16.80430262 -2.31367105 -9.05022392 -2.07710057 0 0 Z " fill="#BA1F2D" transform="translate(369,83)"/>
<path d="M0 0 C0.75 1.625 0.75 1.625 1 4 C-0.9046774 7.88871635 -2.51851211 9.71295914 -6.25 11.9375 C-10.57701291 13.16348699 -13.72691537 13.45889152 -18 12 C-20.30093715 10.51000885 -22.02070495 8.92981267 -24 7 C-23.34 6.34 -22.68 5.68 -22 5 C-21.608125 5.639375 -21.21625 6.27875 -20.8125 6.9375 C-19.16090364 9.136374 -19.16090364 9.136374 -16.75 9.875 C-13.19438717 10.03661876 -10.35539338 9.11846446 -7 8 C-7 7.01 -7 6.02 -7 5 C-5.35 5 -3.7 5 -2 5 C-1.34 3.35 -0.68 1.7 0 0 Z " fill="#57A8C4" transform="translate(304,255)"/>
<path d="M0 0 C0.66 0.99 1.32 1.98 2 3 C2.99 3.33 3.98 3.66 5 4 C5 5.32 5 6.64 5 8 C6.32 7.67 7.64 7.34 9 7 C9 7.66 9 8.32 9 9 C9.99 9 10.98 9 12 9 C12.103125 10.093125 12.20625 11.18625 12.3125 12.3125 C12.97307727 15.85559629 13.2027092 16.93243723 16 19 C11.10132411 17.95028374 8.70879486 16.94351811 5.60546875 12.8125 C4.78942691 11.54809805 3.98369658 10.27699161 3.1875 9 C2.76791016 8.35804688 2.34832031 7.71609375 1.91601562 7.0546875 C0.87337176 5.41256635 -0.07193123 3.70949011 -1 2 C-0.67 1.34 -0.34 0.68 0 0 Z " fill="#AE1E28" transform="translate(180,231)"/>
<path d="M0 0 C3.59904809 1.35424304 6.35375904 3.24605221 8.875 6.1875 C10.42534612 10.06336529 10.73825147 13.85715261 11 18 C9.51171875 16.69921875 9.51171875 16.69921875 8 15 C7.8125 11.8125 7.8125 11.8125 8 9 C7.34 9 6.68 9 6 9 C5.731875 8.360625 5.46375 7.72125 5.1875 7.0625 C4.11332248 4.66868314 4.11332248 4.66868314 1 4 C-1.22818441 3.93062938 -3.45834524 3.91542916 -5.6875 3.9375 C-6.86699219 3.94652344 -8.04648437 3.95554688 -9.26171875 3.96484375 C-10.61716797 3.98224609 -10.61716797 3.98224609 -12 4 C-8.13152327 -0.04431658 -5.67235072 -0.46494678 0 0 Z " fill="#63A3BD" transform="translate(295,140)"/>
<path d="M0 0 C7.41302764 3.62765182 13.41546084 9.12319127 18 16 C18 17.32 18 18.64 18 20 C14.7173068 18.50923566 12.06922559 16.61379679 9.25 14.375 C8.45078125 13.74335937 7.6515625 13.11171875 6.828125 12.4609375 C6.22484375 11.97882813 5.6215625 11.49671875 5 11 C6.32 10.67 7.64 10.34 9 10 C6.3211658 6.32900499 3.89794196 4.27379948 0 2 C0 1.34 0 0.68 0 0 Z " fill="#A24046" transform="translate(384,89)"/>
<path d="M0 0 C0 3.05965599 -0.52913961 4.42600794 -1.6875 7.1875 C-2.95341536 10.80186583 -3.1279667 12.88572269 -1.8125 16.5 C-0.41618154 20.03715643 -0.41618154 20.03715643 2 21 C2 21.66 2 22.32 2 23 C3.32 23.33 4.64 23.66 6 24 C6 24.66 6 25.32 6 26 C3.26490103 25.91955591 1.49043462 25.40361127 -0.6328125 23.65625 C-4.01965114 20.05671134 -5.89505972 16.97350843 -6.17578125 11.98828125 C-5.79866506 7.72267808 -4.13392843 4.30191782 -1.3125 1.0625 C-0.6628125 0.5365625 -0.6628125 0.5365625 0 0 Z " fill="#5AA2C2" transform="translate(234,191)"/>
<path d="M0 0 C1.32 0.33 2.64 0.66 4 1 C3.01 1.495 3.01 1.495 2 2 C1.59270772 4.32156597 1.25561323 6.6568787 1 9 C0.34 9 -0.32 9 -1 9 C-1 10.65 -1 12.3 -1 14 C-1.66 14 -2.32 14 -3 14 C-2.83628906 14.89847656 -2.67257813 15.79695312 -2.50390625 16.72265625 C-1.71151239 22.26941327 -1.8943717 27.84740921 -1.9375 33.4375 C-1.94201172 34.55060547 -1.94652344 35.66371094 -1.95117188 36.81054688 C-1.96288807 39.54042101 -1.97929301 42.27018174 -2 45 C-2.33 45 -2.66 45 -3 45 C-5.08384902 12.5142822 -5.08384902 12.5142822 -1 5 C-0.30859478 2.22111387 -0.30859478 2.22111387 0 0 Z " fill="#B52028" transform="translate(184,122)"/>
<path d="M0 0 C1.13628088 3.40884263 1.02815719 4.60958899 0 8 C-1.70703125 10.640625 -1.70703125 10.640625 -3.8125 13.25 C-4.84310547 14.55710938 -4.84310547 14.55710938 -5.89453125 15.890625 C-8.02678774 18.02683744 -9.05600726 18.65598287 -12 19 C-12 17.35 -12 15.7 -12 14 C-11.21625 13.71125 -10.4325 13.4225 -9.625 13.125 C-6.90328368 12.15087746 -6.90328368 12.15087746 -5 10 C-5.0928125 8.2984375 -5.0928125 8.2984375 -5.1875 6.5625 C-5.125625 5.386875 -5.06375 4.21125 -5 3 C-2.5 1.0625 -2.5 1.0625 0 0 Z " fill="#93C333" transform="translate(421,156)"/>
<path d="M0 0 C0 0.99 0 1.98 0 3 C-1.00901367 3.02505615 -2.01802734 3.0501123 -3.05761719 3.07592773 C-6.80741696 3.17022409 -10.55704108 3.27039021 -14.30664062 3.37231445 C-15.92834357 3.41557931 -17.55008958 3.45726028 -19.171875 3.49731445 C-21.50534027 3.55522214 -23.83859043 3.61885698 -26.171875 3.68359375 C-26.89493835 3.70030624 -27.61800171 3.71701874 -28.36297607 3.73423767 C-32.66407327 3.86031924 -36.22529423 4.08575764 -40.0625 6.0625 C-42 7 -42 7 -45 7 C-44.34 5.02 -43.68 3.04 -43 1 C-42.34 1.99 -41.68 2.98 -41 4 C-40.01 3.34 -39.02 2.68 -38 2 C-35.18691515 1.7709593 -32.46427198 1.65105783 -29.6484375 1.62109375 C-28.83380035 1.60409927 -28.01916321 1.5871048 -27.17984009 1.56959534 C-24.57830538 1.51646494 -21.97678692 1.47615704 -19.375 1.4375 C-16.7661521 1.39361956 -14.15742987 1.34697947 -11.54873657 1.29469299 C-9.92511418 1.26265351 -8.30138023 1.23578933 -6.67758179 1.21446228 C-3.03801716 1.48650746 -3.03801716 1.48650746 0 0 Z " fill="#50B0DC" transform="translate(278,189)"/>
<path d="M0 0 C0.99 0.495 0.99 0.495 2 1 C2.37890625 2.8125 2.37890625 2.8125 2.5625 5 C2.62665408 7.78932058 2.62665408 7.78932058 4 10 C4.04080783 11.99958364 4.04254356 14.00045254 4 16 C4.99 16 5.98 16 7 16 C7 19.3 7 22.6 7 26 C6.01 25.67 5.02 25.34 4 25 C3.32533254 21.77245186 2.66169431 18.54273065 2 15.3125 C1.80921875 14.40048828 1.6184375 13.48847656 1.421875 12.54882812 C1.24140625 11.66259766 1.0609375 10.77636719 0.875 9.86328125 C0.70742187 9.05157471 0.53984375 8.23986816 0.3671875 7.40356445 C-0.0153713 4.89938135 -0.06298509 2.52924498 0 0 Z " fill="#9E2A31" transform="translate(153,159)"/>
<path d="M0 0 C0.66 0.33 1.32 0.66 2 1 C2.4140625 3.28515625 2.4140625 3.28515625 2.625 6.0625 C2.69976562 6.98160156 2.77453125 7.90070313 2.8515625 8.84765625 C2.90054687 9.55792969 2.94953125 10.26820313 3 11 C2.34 11 1.68 11 1 11 C1 14.3 1 17.6 1 21 C-0.65 21 -2.3 21 -4 21 C-3.67 20.34 -3.34 19.68 -3 19 C-2.34 19 -1.68 19 -1 19 C-1.33 13.39 -1.66 7.78 -2 2 C-1.34 2 -0.68 2 0 2 C0 1.34 0 0.68 0 0 Z M0 4 C0 5.65 0 7.3 0 9 C0.33 9 0.66 9 1 9 C1 7.35 1 5.7 1 4 C0.67 4 0.34 4 0 4 Z " fill="#8BB940" transform="translate(351,165)"/>
<path d="M0 0 C0.33 0 0.66 0 1 0 C1.0271045 3.04172719 1.04688964 6.08320997 1.0625 9.125 C1.07087891 9.9809375 1.07925781 10.836875 1.08789062 11.71875 C1.10538306 16.26678411 0.93192358 20.52383164 0 25 C-1.5625 23.8125 -1.5625 23.8125 -3 22 C-2.6875 19.3125 -2.6875 19.3125 -2 17 C-2.66 17 -3.32 17 -4 17 C-3.34 15.35 -2.68 13.7 -2 12 C-1.34 12 -0.68 12 0 12 C0 8.04 0 4.08 0 0 Z " fill="#5BACC9" transform="translate(305,163)"/>
<path d="M0 0 C0.99 0.33 1.98 0.66 3 1 C3.70211894 2.65204456 4.36971413 4.31923769 5 6 C5.66 6.33 6.32 6.66 7 7 C7 8.32 7 9.64 7 11 C5.0625 10.625 5.0625 10.625 3 10 C2.67 9.34 2.34 8.68 2 8 C1.34 8 0.68 8 0 8 C-1.125 5.6875 -1.125 5.6875 -2 3 C-1.34 2.01 -0.68 1.02 0 0 Z " fill="#B32029" transform="translate(178,224)"/>
<path d="M0 0 C0 0.99 0 1.98 0 3 C1.546875 2.7215625 1.546875 2.7215625 3.125 2.4375 C6.76148442 2.02692918 9.45437009 2.221691 13 3 C13 3.33 13 3.66 13 4 C5.97195301 4.85373239 -0.92278069 5.12109311 -8 5 C-7.125 3.046875 -7.125 3.046875 -6 1 C-3.86997684 0.20124132 -2.26695035 0 0 0 Z " fill="#95B35C" transform="translate(370,184)"/>
<path d="M0 0 C7.64371775 -0.15528998 15.43262886 -0.16590311 23 1 C23.66 1.66 24.32 2.32 25 3 C22.33305052 3.05455124 19.66724502 3.09393392 17 3.125 C15.88431641 3.15013672 15.88431641 3.15013672 14.74609375 3.17578125 C9.49451557 3.22144715 5.0483054 2.45712451 0 1 C0 0.67 0 0.34 0 0 Z " fill="#9A3031" transform="translate(249,293)"/>
<path d="M0 0 C0.99 0.66 1.98 1.32 3 2 C3.40843923 4.71203652 3.13336867 7.2437142 3 10 C2.01 10.495 2.01 10.495 1 11 C0.27840576 12.64363134 -0.39351421 14.31050386 -1 16 C-1.66 15.67 -2.32 15.34 -3 15 C-2.67 14.67 -2.34 14.34 -2 14 C-1.96828815 10.92395088 -2.06853857 7.85984547 -2.16015625 4.78515625 C-2 2 -2 2 0 0 Z " fill="#54AFD4" transform="translate(303,245)"/>
<path d="M0 0 C0.33 0 0.66 0 1 0 C1.14309131 5.33852384 1.28548883 10.67706557 1.42724609 16.015625 C1.47555829 17.83138528 1.52405938 19.64714055 1.57275391 21.46289062 C1.64275087 24.07420575 1.71206637 26.68553822 1.78125 29.296875 C1.80312378 30.10743347 1.82499756 30.91799194 1.84753418 31.75311279 C1.93750327 35.17058058 2 38.58106354 2 42 C0 40 0 40 -0.22705078 36.10107422 C-0.22673341 34.41891207 -0.21539396 32.73672981 -0.1953125 31.0546875 C-0.1924826 30.1696756 -0.18965271 29.2846637 -0.18673706 28.37283325 C-0.1755224 25.54008588 -0.1504157 22.70765216 -0.125 19.875 C-0.11497185 17.95703581 -0.10584572 16.03906667 -0.09765625 14.12109375 C-0.07557889 9.41394124 -0.04104045 4.70702384 0 0 Z " fill="#68AAC6" transform="translate(278,218)"/>
<path d="M0 0 C1.48831242 0.00667405 2.97660807 0.01863442 4.46484375 0.03515625 C5.22345703 0.03966797 5.98207031 0.04417969 6.76367188 0.04882812 C8.64326246 0.06064945 10.52281274 0.07858547 12.40234375 0.09765625 C12.73234375 0.75765625 13.06234375 1.41765625 13.40234375 2.09765625 C12.83386719 2.15824219 12.26539063 2.21882813 11.6796875 2.28125 C4.88438187 3.01863709 -1.85884861 3.94712812 -8.59765625 5.09765625 C-8.59765625 4.43765625 -8.59765625 3.77765625 -8.59765625 3.09765625 C-7.95828125 2.78828125 -7.31890625 2.47890625 -6.66015625 2.16015625 C-2.60412874 0.07068753 -2.60412874 0.07068753 0 0 Z " fill="#B12429" transform="translate(210.59765625,101.90234375)"/>
<path d="M0 0 C0.33 0.66 0.66 1.32 1 2 C0.25234375 2.38671875 -0.4953125 2.7734375 -1.265625 3.171875 C-2.25046875 3.69265625 -3.2353125 4.2134375 -4.25 4.75 C-5.22453125 5.26046875 -6.1990625 5.7709375 -7.203125 6.296875 C-10.05723589 7.87950439 -10.05723589 7.87950439 -12.171875 10.203125 C-14 12 -14 12 -17 12 C-16.67 11.01 -16.34 10.02 -16 9 C-14.66666667 8.33333333 -13.33333333 7.66666667 -12 7 C-11.67 6.01 -11.34 5.02 -11 4 C-8.49609375 2.83203125 -8.49609375 2.83203125 -5.4375 1.8125 C-3.91962891 1.29623047 -3.91962891 1.29623047 -2.37109375 0.76953125 C-1.58863281 0.51558594 -0.80617188 0.26164062 0 0 Z M-20 13 C-18 14 -18 14 -18 14 Z " fill="#B11F27" transform="translate(320,89)"/>
<path d="M0 0 C4.71085387 1.37250978 8.6834536 3.40110192 12.8125 6 C13.39708984 6.35578125 13.98167969 6.7115625 14.58398438 7.078125 C18.87008929 9.74017857 18.87008929 9.74017857 20 12 C15.53967068 10.66656822 11.80372787 8.8876547 7.8125 6.5 C6.78769531 5.8915625 5.76289063 5.283125 4.70703125 4.65625 C2.77986325 3.47714577 0.87981934 2.25321289 -1 1 C-0.67 0.67 -0.34 0.34 0 0 Z " fill="#9E3235" transform="translate(267,90)"/>
<path d="M0 0 C3.93748458 -0.02898816 7.87494179 -0.04679464 11.8125 -0.0625 C12.93205078 -0.07087891 14.05160156 -0.07925781 15.20507812 -0.08789062 C16.81479492 -0.09272461 16.81479492 -0.09272461 18.45703125 -0.09765625 C19.9416687 -0.10551147 19.9416687 -0.10551147 21.45629883 -0.11352539 C24 0 24 0 27 1 C27 1.66 27 2.32 27 3 C17.62122392 3.1598655 8.34809779 2.66433182 -1 2 C-0.67 1.34 -0.34 0.68 0 0 Z " fill="#B02831" transform="translate(212,76)"/>
<path d="M0 0 C23.29420122 -0.43048832 23.29420122 -0.43048832 29 2 C29.99 3.485 29.99 3.485 31 5 C30.40832031 4.86722656 29.81664062 4.73445313 29.20703125 4.59765625 C28.41683594 4.42105469 27.62664062 4.24445313 26.8125 4.0625 C26.03519531 3.88847656 25.25789063 3.71445313 24.45703125 3.53515625 C23.24080078 3.27025391 23.24080078 3.27025391 22 3 C21.2575 2.814375 20.515 2.62875 19.75 2.4375 C15.88674645 1.82289148 12.09185339 1.89495466 8.1875 1.9375 C7.39923828 1.94201172 6.61097656 1.94652344 5.79882812 1.95117188 C3.86585239 1.96288688 1.93291607 1.98082002 0 2 C0 1.34 0 0.68 0 0 Z " fill="#9E2C33" transform="translate(357,93)"/>
<path d="M0 0 C3.63 0.66 7.26 1.32 11 2 C10.67 3.32 10.34 4.64 10 6 C10.66 6.33 11.32 6.66 12 7 C7.29761275 6.53898164 3.76737643 5.96823597 0 3 C0 2.01 0 1.02 0 0 Z " fill="#AD2630" transform="translate(237,286)"/>
<path d="M0 0 C0 0.99 0 1.98 0 3 C-5.2734375 6.22265625 -5.2734375 6.22265625 -7 7 C-7.66 6.67 -8.32 6.34 -9 6 C-9.625 3.9375 -9.625 3.9375 -10 2 C-3.375 -1.125 -3.375 -1.125 0 0 Z " fill="#986467" transform="translate(296,284)"/>
<path d="M0 0 C0 0.66 0 1.32 0 2 C-1.32 2 -2.64 2 -4 2 C-4.33 2.99 -4.66 3.98 -5 5 C-8.77977668 7.31940842 -11.56084956 8.39168975 -16 8 C-11.14006716 3.87642062 -6.55994021 0 0 0 Z " fill="#94B64C" transform="translate(388,147)"/>
<path d="M0 0 C0.99 0 1.98 0 3 0 C1.82472786 3.52581642 0.59971646 4.49592586 -2.25 6.8125 C-3.01828125 7.45832031 -3.7865625 8.10414063 -4.578125 8.76953125 C-7 10 -7 10 -9.671875 9.32421875 C-12 8 -12 8 -14 6 C-12.68 6 -11.36 6 -10 6 C-10 6.66 -10 7.32 -10 8 C-7.46326712 6.6446674 -7.46326712 6.6446674 -5 5 C-5 4.34 -5 3.68 -5 3 C-3.68 3 -2.36 3 -1 3 C-0.67 2.01 -0.34 1.02 0 0 Z " fill="#8A323A" transform="translate(298,124)"/>
<path d="M0 0 C3.36943107 2.24628738 3.25297792 2.37160702 4 6 C6.35469164 11.55034459 9.59466535 13.4775105 15 16 C14.34 16.66 13.68 17.32 13 18 C1.5767098 9.93160813 1.5767098 9.93160813 0.25 3.1875 C0.1675 2.135625 0.085 1.08375 0 0 Z " fill="#8FB84F" transform="translate(331,166)"/>
<path d="M0 0 C0 0.66 0 1.32 0 2 C-1.2065625 1.7834375 -1.2065625 1.7834375 -2.4375 1.5625 C-10.34687687 0.31365102 -17.98778485 -0.13478493 -26 0 C-26 -0.33 -26 -0.66 -26 -1 C-16.80430262 -2.31367105 -9.05022392 -2.07710057 0 0 Z " fill="#9D323A" transform="translate(369,83)"/>
<path d="M0 0 C0.226875 0.61875 0.45375 1.2375 0.6875 1.875 C2.37929835 4.61410209 3.99244161 5.05024472 7 6 C7 6.66 7 7.32 7 8 C7.66 8 8.32 8 9 8 C9.33 9.65 9.66 11.3 10 13 C5.99245833 11.66415278 4.62523764 9.23106172 2 6 C1.34 5.67 0.68 5.34 0 5 C0 4.34 0 3.68 0 3 C-0.66 3 -1.32 3 -2 3 C-2 2.34 -2 1.68 -2 1 C-1.34 0.67 -0.68 0.34 0 0 Z " fill="#B1242D" transform="translate(202,256)"/>
<path d="M0 0 C11.73786408 8.73786408 11.73786408 8.73786408 15 12 C11.62537285 11.45276317 9.91765 10.9451 7 9 C7 8.34 7 7.68 7 7 C5.02 6.34 3.04 5.68 1 5 C0.67 3.35 0.34 1.7 0 0 Z " fill="#90343B" transform="translate(234,264)"/>
<path d="M0 0 C0.99 0.495 0.99 0.495 2 1 C2.41064453 2.85766602 2.41064453 2.85766602 2.6328125 5.25390625 C2.71660156 6.10791016 2.80039063 6.96191406 2.88671875 7.84179688 C2.96535156 8.73962891 3.04398438 9.63746094 3.125 10.5625 C3.21136719 11.46419922 3.29773438 12.36589844 3.38671875 13.29492188 C3.59951659 15.52929918 3.80354467 17.76413615 4 20 C3.34 20 2.68 20 2 20 C-0.46254726 13.38190423 -0.18935472 6.99560484 0 0 Z " fill="#AF2328" transform="translate(155,155)"/>
<path d="M0 0 C0 0.33 0 0.66 0 1 C-5.48675196 2.86783046 -10.22192976 3.2358396 -16 3 C-16 2.34 -16 1.68 -16 1 C-10.10106757 -0.79074734 -6.06820868 -1.08360869 0 0 Z " fill="#98C635" transform="translate(404,145)"/>
<path d="M0 0 C1.8125 0.0625 1.8125 0.0625 4 1 C6.02800831 4.90579378 7.34108329 8.65114973 8 13 C7.01 13 6.02 13 5 13 C5 11.68 5 10.36 5 9 C4.34 9 3.68 9 3 9 C0 3.375 0 3.375 0 0 Z " fill="#9E262B" transform="translate(199,213)"/>
<path d="M0 0 C0.33 0 0.66 0 1 0 C1 3.63 1 7.26 1 11 C-0.98 11.99 -0.98 11.99 -3 13 C-3.93065133 10.39417629 -4.14917407 9.35801776 -3.0625 6.75 C-2.5365625 5.88375 -2.5365625 5.88375 -2 5 C-1.34 5 -0.68 5 0 5 C0 3.35 0 1.7 0 0 Z " fill="#82C52D" transform="translate(349,173)"/>
<path d="M0 0 C0.66 0.33 1.32 0.66 2 1 C1.52949219 1.44730469 1.05898437 1.89460938 0.57421875 2.35546875 C-2.89122883 5.72046857 -5.57667077 8.79105976 -8 13 C-8.66 13 -9.32 13 -10 13 C-10 13.66 -10 14.32 -10 15 C-10.66 15 -11.32 15 -12 15 C-10.57641609 10.45925821 -8.27867927 7.96026853 -4.875 4.6875 C-3.96492187 3.80449219 -3.05484375 2.92148438 -2.1171875 2.01171875 C-1.41851562 1.34785156 -0.71984375 0.68398437 0 0 Z " fill="#8C3740" transform="translate(177,87)"/>
<path d="M0 0 C0.70125 0.61875 1.4025 1.2375 2.125 1.875 C5.07064037 4.05221245 7.53511677 4.92203633 11 6 C11.66 6.66 12.32 7.32 13 8 C12.67 8.66 12.34 9.32 12 10 C8.59687262 8.94124926 5.98646769 7.99097846 3 6 C3 5.34 3 4.68 3 4 C2.01 4 1.02 4 0 4 C0 2.68 0 1.36 0 0 Z " fill="#AC2C34" transform="translate(240,271)"/>
<path d="M0 0 C0 0.99 0 1.98 0 3 C-0.66 3 -1.32 3 -2 3 C-2.33 3.99 -2.66 4.98 -3 6 C-5.73030993 7.2676439 -6.87352646 7.04311598 -9.75 6.0625 C-10.4925 5.711875 -11.235 5.36125 -12 5 C-11.67 4.34 -11.34 3.68 -11 3 C-9.35 3.33 -7.7 3.66 -6 4 C-6 3.34 -6 2.68 -6 2 C-4.02 1.34 -2.04 0.68 0 0 Z " fill="#89BB28" transform="translate(386,176)"/>
<path d="M0 0 C0.66 0.33 1.32 0.66 2 1 C1.09674384 2.32176485 0.17682097 3.63215066 -0.75 4.9375 C-1.26046875 5.66839844 -1.7709375 6.39929688 -2.296875 7.15234375 C-4.19177915 9.20805399 -5.27425729 9.62669176 -8 10 C-8 8.35 -8 6.7 -8 5 C-7.236875 4.731875 -6.47375 4.46375 -5.6875 4.1875 C-3.12619116 3.05575888 -1.80307062 2.08776599 0 0 Z " fill="#93BA44" transform="translate(417,165)"/>
<path d="M0 0 C0.66 0.33 1.32 0.66 2 1 C1.67 1.99 1.34 2.98 1 4 C-3.29 4 -7.58 4 -12 4 C-7.76454482 -0.23545518 -5.90676637 -0.21095594 0 0 Z " fill="#5C9CB8" transform="translate(295,140)"/>
<path d="M0 0 C3.65316671 1.24976756 4.78065836 1.67098753 7 5 C6.67 5.99 6.34 6.98 6 8 C3.36 6.35 0.72 4.7 -2 3 C-1.34 2.01 -0.68 1.02 0 0 Z " fill="#A52E3B" transform="translate(273,120)"/>
<path d="M0 0 C1.77049689 -0.05410687 3.54146849 -0.09284119 5.3125 -0.125 C6.29863281 -0.14820313 7.28476562 -0.17140625 8.30078125 -0.1953125 C11 0 11 0 14 2 C12.42074025 2.39180108 10.83631206 2.76280736 9.25 3.125 C8.36828125 3.33382813 7.4865625 3.54265625 6.578125 3.7578125 C3.67124507 4.03088304 2.43338652 3.53508028 0 2 C0 1.34 0 0.68 0 0 Z " fill="#4BAED9" transform="translate(284,262)"/>
<path d="M0 0 C1.32 0.66 2.64 1.32 4 2 C3.60167969 2.42410156 3.20335937 2.84820312 2.79296875 3.28515625 C-0.85862461 7.32767445 -3.12157254 10.88650302 -5 16 C-5.33 16 -5.66 16 -6 16 C-6.61528766 10.92387682 -4.61658349 8.17017994 -2 4 C-1.34 4 -0.68 4 0 4 C0 2.68 0 1.36 0 0 Z " fill="#89242A" transform="translate(192,113)"/>
<path d="M0 0 C0.89203125 0.01804688 1.7840625 0.03609375 2.703125 0.0546875 C3.71632813 0.08949219 3.71632813 0.08949219 4.75 0.125 C4.75 0.455 4.75 0.785 4.75 1.125 C4.06292969 1.23457031 3.37585938 1.34414062 2.66796875 1.45703125 C1.76691406 1.61558594 0.86585938 1.77414063 -0.0625 1.9375 C-0.95582031 2.08832031 -1.84914063 2.23914063 -2.76953125 2.39453125 C-5.48323736 3.19368565 -6.34310999 4.1306881 -8.25 6.125 C-9.24 6.125 -10.23 6.125 -11.25 6.125 C-10.3047226 3.76180651 -9.66996722 2.39497892 -7.5 1 C-4.84738096 -0.03157407 -2.83645051 -0.07464343 0 0 Z " fill="#56A9CE" transform="translate(290.25,142.875)"/>
<path d="M0 0 C3.63 0 7.26 0 11 0 C8 4 8 4 5.95703125 4.609375 C2.97851562 4.8046875 2.97851562 4.8046875 0 5 C0 3.33333333 0 1.66666667 0 0 Z " fill="#B3202A" transform="translate(188,80)"/>
<path d="M0 0 C2.5654594 2.5654594 2.54046087 4.47686668 3 8 C2.01 8.66 1.02 9.32 0 10 C-0.99 7.03 -1.98 4.06 -3 1 C-2.01 1.33 -1.02 1.66 0 2 C0 1.34 0 0.68 0 0 Z " fill="#92292F" transform="translate(192,190)"/>
<path d="M0 0 C6.27 0 12.54 0 19 0 C20 4 20 4 19.0625 6.25 C18.5365625 7.11625 18.5365625 7.11625 18 8 C17.67 5.69 17.34 3.38 17 1 C11.39 1 5.78 1 0 1 C0 0.67 0 0.34 0 0 Z " fill="#A1BB69" transform="translate(408,142)"/>
<path d="M0 0 C0.66 0.33 1.32 0.66 2 1 C1.67 3.31 1.34 5.62 1 8 C-0.65 8.66 -2.3 9.32 -4 10 C-2.99806563 6.20696275 -2.18975773 3.28463659 0 0 Z " fill="#9B3339" transform="translate(163,102)"/>
<path d="M0 0 C2.64 0.33 5.28 0.66 8 1 C8 1.66 8 2.32 8 3 C8.66 3 9.32 3 10 3 C10.66 4.32 11.32 5.64 12 7 C7.39104317 5.68315519 3.85859765 3.84801255 0 1 C0 0.67 0 0.34 0 0 Z " fill="#9D2E3C" transform="translate(224,281)"/>
<path d="M0 0 C-1.76371818 1.03307771 -3.53625033 2.05112049 -5.3125 3.0625 C-6.79169922 3.91521484 -6.79169922 3.91521484 -8.30078125 4.78515625 C-11 6 -11 6 -14 5 C-13.34 5 -12.68 5 -12 5 C-12 4.34 -12 3.68 -12 3 C-10.75823305 2.29773859 -9.50614401 1.61370891 -8.25 0.9375 C-7.20585937 0.36322266 -7.20585937 0.36322266 -6.140625 -0.22265625 C-3.63859372 -1.1312406 -2.4667645 -0.88336837 0 0 Z " fill="#9E252E" transform="translate(338,102)"/>
<path d="M0 0 C0.66 0.33 1.32 0.66 2 1 C1.79375 1.763125 1.5875 2.52625 1.375 3.3125 C0.66608797 6.21885944 0.66608797 6.21885944 3 9 C1.02 9.99 1.02 9.99 -1 11 C-2.58272601 9.41727399 -2.34735747 7.61965997 -2.5625 5.4375 C-2.64628906 4.61121094 -2.73007812 3.78492188 -2.81640625 2.93359375 C-2.87699219 2.29550781 -2.93757813 1.65742188 -3 1 C-2.01 0.67 -1.02 0.34 0 0 Z " fill="#94CA2E" transform="translate(365,171)"/>
<path d="M0 0 C-1.60194071 0.98280415 -3.20663742 1.96111717 -4.8125 2.9375 C-6.15248047 3.75541016 -6.15248047 3.75541016 -7.51953125 4.58984375 C-10 6 -10 6 -13 7 C-13 5 -13 5 -11.3125 3 C-7.48637601 -0.30908021 -4.85334568 -1.42926917 0 0 Z " fill="#86242B" transform="translate(321,112)"/>
<path d="M0 0 C3.4375 0.8125 3.4375 0.8125 7 2 C7.33 2.99 7.66 3.98 8 5 C10.64 4.67 13.28 4.34 16 4 C16 4.66 16 5.32 16 6 C9.34454208 6.54330269 5.54165256 5.77304004 0 2 C0 1.34 0 0.68 0 0 Z " fill="#B42432" transform="translate(280,99)"/>
<path d="M0 0 C3.29696105 1.09898702 4.04670589 1.94597387 6.1875 4.5625 C6.71730469 5.20316406 7.24710938 5.84382813 7.79296875 6.50390625 C8.19128906 6.99761719 8.58960938 7.49132812 9 8 C8.67 8.66 8.34 9.32 8 10 C2.25 6.375 2.25 6.375 0 3 C0 2.01 0 1.02 0 0 Z " fill="#942A30" transform="translate(225,254)"/>
<path d="M0 0 C2 2 2 2 2.125 4.625 C2.08375 5.40875 2.0425 6.1925 2 7 C0.68 7.33 -0.64 7.66 -2 8 C-2 5.69 -2 3.38 -2 1 C-1.34 0.67 -0.68 0.34 0 0 Z " fill="#8AA953" transform="translate(355,176)"/>
<path d="M0 0 C0.99 0.99 1.98 1.98 3 3 C2.01 5.97 1.02 8.94 0 12 C-0.33 12 -0.66 12 -1 12 C-1.14285714 3.42857143 -1.14285714 3.42857143 0 0 Z " fill="#A53338" transform="translate(154,125)"/>
<path d="M0 0 C0.99 0.495 0.99 0.495 2 1 C2.29452565 2.99622943 2.58010054 4.99535002 2.7734375 7.00390625 C2.94638214 9.06940947 2.94638214 9.06940947 3.6875 11.25 C4.11993311 13.67162542 3.14081766 14.88446073 2 17 C1.66151348 15.10507994 1.32943089 13.20901534 1 11.3125 C0.814375 10.25675781 0.62875 9.20101562 0.4375 8.11328125 C0.04931926 5.35095938 -0.08259976 2.78257957 0 0 Z " fill="#8F2C2E" transform="translate(153,159)"/>
<path d="M0 0 C1.9078584 3.1749094 2.1609041 5.10585211 1.625 8.75 C1.51414062 9.54921875 1.40328125 10.3484375 1.2890625 11.171875 C1.19367188 11.77515625 1.09828125 12.3784375 1 13 C0.34 13 -0.32 13 -1 13 C-1.0272415 11.58344207 -1.04650467 10.16672955 -1.0625 8.75 C-1.07410156 7.96109375 -1.08570313 7.1721875 -1.09765625 6.359375 C-1.00385306 4.09308998 -0.63241063 2.1711105 0 0 Z " fill="#95B655" transform="translate(330,148)"/>
<path d="M0 0 C0.125 2.375 0.125 2.375 0 5 C-0.66 5.66 -1.32 6.32 -2 7 C-2.99 7 -3.98 7 -5 7 C-4.625 4.0625 -4.625 4.0625 -4 1 C-2 0 -2 0 0 0 Z " fill="#8EBC36" transform="translate(338,131)"/>
<path d="M0 0 C0.66 0.99 1.32 1.98 2 3 C2.99 3.33 3.98 3.66 5 4 C5.73046875 5.84765625 5.73046875 5.84765625 6.1875 8.0625 C6.34605469 8.79597656 6.50460938 9.52945313 6.66796875 10.28515625 C6.83232422 11.13400391 6.83232422 11.13400391 7 12 C3.31993178 8.61831569 1.0214155 5.57478244 -1 1 C-0.67 0.67 -0.34 0.34 0 0 Z " fill="#902436" transform="translate(180,231)"/>
<path d="M0 0 C1.9375 0.5625 1.9375 0.5625 4 2 C4.75 5.625 4.75 5.625 5 9 C4.34 9 3.68 9 3 9 C0 3.375 0 3.375 0 0 Z " fill="#99222D" transform="translate(172,218)"/>
<path d="M0 0 C2.09715785 3.14573677 2.52004559 5.01456251 3.125 8.6875 C3.29257813 9.68136719 3.46015625 10.67523438 3.6328125 11.69921875 C3.75398437 12.45847656 3.87515625 13.21773437 4 14 C1.64199496 11.71568262 0.11279103 9.9918976 -0.265625 6.6640625 C-0.251535 4.43079795 -0.17460201 2.22617559 0 0 Z " fill="#91373E" transform="translate(187,174)"/>
<path d="M0 0 C1.485 0.99 1.485 0.99 3 2 C3.29296875 4.1640625 3.29296875 4.1640625 3.1875 6.625 C3.16042969 7.44226563 3.13335937 8.25953125 3.10546875 9.1015625 C3.07066406 9.72804687 3.03585937 10.35453125 3 11 C2.01 11.495 2.01 11.495 1 12 C0.63762737 10.37681021 0.28534843 8.7513642 -0.0625 7.125 C-0.25972656 6.22007812 -0.45695312 5.31515625 -0.66015625 4.3828125 C-1 2 -1 2 0 0 Z " fill="#8BC22F" transform="translate(347,156)"/>
<path d="M0 0 C0.33 0.99 0.66 1.98 1 3 C-1.31 4.65 -3.62 6.3 -6 8 C-6.66 7.34 -7.32 6.68 -8 6 C-6 3 -6 3 -2.875 2.3125 C-1.92625 2.209375 -0.9775 2.10625 0 2 C0 1.34 0 0.68 0 0 Z " fill="#A12A32" transform="translate(307,117)"/>
<path d="M0 0 C0.33 0 0.66 0 1 0 C1 2.97 1 5.94 1 9 C-0.32 9.33 -1.64 9.66 -3 10 C-2.69201674 8.51988629 -2.378482 7.04092675 -2.0625 5.5625 C-1.88847656 4.73878906 -1.71445313 3.91507812 -1.53515625 3.06640625 C-1 1 -1 1 0 0 Z " fill="#9C373E" transform="translate(158,113)"/>
<path d="M0 0 C3.84177074 0.30329769 6.09427672 1.52475424 9 4 C7 5 7 5 4.8359375 4.44140625 C4.02382812 4.15136719 3.21171875 3.86132812 2.375 3.5625 C1.55773437 3.27503906 0.74046875 2.98757812 -0.1015625 2.69140625 C-0.72804687 2.46324219 -1.35453125 2.23507813 -2 2 C-1.34 1.34 -0.68 0.68 0 0 Z " fill="#A3313F" transform="translate(251,82)"/>
<path d="M0 0 C3.68006822 3.38168431 5.9785845 6.42521756 8 11 C6.68 10.67 5.36 10.34 4 10 C3.896875 9.38125 3.79375 8.7625 3.6875 8.125 C3.12474627 5.63473516 3.12474627 5.63473516 0 4 C0 2.68 0 1.36 0 0 Z " fill="#803136" transform="translate(216,240)"/>
<path d="M0 0 C-3.53411321 2.12046792 -6.94393835 2.53199289 -11 3 C-11.33 2.34 -11.66 1.68 -12 1 C-8.00439392 -1.83022097 -4.57262677 -0.76210446 0 0 Z " fill="#92C926" transform="translate(411,175)"/>
<path d="M0 0 C2.31 0.33 4.62 0.66 7 1 C7 1.66 7 2.32 7 3 C6.38125 3.144375 5.7625 3.28875 5.125 3.4375 C2.96741678 3.93152225 2.96741678 3.93152225 1 5 C0.34 4.67 -0.32 4.34 -1 4 C-0.67 2.68 -0.34 1.36 0 0 Z " fill="#B7212C" transform="translate(269,118)"/>
<path d="M0 0 C2.64 0 5.28 0 8 0 C7 2 7 2 5.15234375 2.6328125 C4.42144531 2.79523438 3.69054687 2.95765625 2.9375 3.125 C1.83728516 3.37636719 1.83728516 3.37636719 0.71484375 3.6328125 C0.14894531 3.75398438 -0.41695313 3.87515625 -1 4 C-0.67 2.68 -0.34 1.36 0 0 Z " fill="#AC2027" transform="translate(317,108)"/>
<path d="M0 0 C1.46067199 0.45082469 2.91848032 0.91093537 4.375 1.375 C5.18710938 1.63023438 5.99921875 1.88546875 6.8359375 2.1484375 C9 3 9 3 11 5 C3.375 4.125 3.375 4.125 0 3 C0 2.01 0 1.02 0 0 Z " fill="#A2253A" transform="translate(238,106)"/>
<path d="M0 0 C0.33 0.66 0.66 1.32 1 2 C-0.26691507 2.67408308 -1.53870749 3.33900497 -2.8125 4 C-3.52019531 4.37125 -4.22789062 4.7425 -4.95703125 5.125 C-7 6 -7 6 -10 6 C-10 5.34 -10 4.68 -10 4 C-6.7 2.68 -3.4 1.36 0 0 Z " fill="#8F252E" transform="translate(320,89)"/>
<path d="M0 0 C0.99 0.33 1.98 0.66 3 1 C2.67 1.66 2.34 2.32 2 3 C-5.64288227 5.38056989 -5.64288227 5.38056989 -10 4 C-3.375 2 -3.375 2 0 2 C0 1.34 0 0.68 0 0 Z " fill="#91B14D" transform="translate(394,182)"/>
<path d="M0 0 C3 1 3 1 4.75 4.375 C6 8 6 8 5 11 C4.16151196 9.54462432 3.32936066 8.08559627 2.5 6.625 C1.80390625 5.40683594 1.80390625 5.40683594 1.09375 4.1640625 C0 2 0 2 0 0 Z " fill="#94B44A" transform="translate(352,135)"/>
<path d="M0 0 C1.95917659 0.0868748 3.91741871 0.19504512 5.875 0.3125 C7.51082031 0.39951172 7.51082031 0.39951172 9.1796875 0.48828125 C10.11039062 0.65714844 11.04109375 0.82601562 12 1 C12.66 1.99 13.32 2.98 14 4 C13.40832031 3.86722656 12.81664062 3.73445313 12.20703125 3.59765625 C8.14553475 2.68994822 4.08625829 1.7908887 0 1 C0 0.67 0 0.34 0 0 Z " fill="#8F282F" transform="translate(374,94)"/>
<path d="M0 0 C4.455 0.99 4.455 0.99 9 2 C9 2.66 9 3.32 9 4 C7.35 4.33 5.7 4.66 4 5 C2.68 3.35 1.36 1.7 0 0 Z " fill="#A6303A" transform="translate(240,78)"/>
<path d="M0 0 C0 0.66 0 1.32 0 2 C-3.6441774 4.4294516 -5.71241272 4.16179575 -10 4 C-7.02096266 1.02096266 -4.19714671 0 0 0 Z " fill="#9F2D38" transform="translate(199,77)"/>
<path d="M0 0 C5.445 1.485 5.445 1.485 11 3 C10.34 3.66 9.68 4.32 9 5 C6.03 4.01 3.06 3.02 0 2 C0 1.34 0 0.68 0 0 Z " fill="#B02A31" transform="translate(265,286)"/>
<path d="M0 0 C3.24271506 0.5590888 4.93057424 1.4132178 7 4 C7 4.66 7 5.32 7 6 C5.68 5.67 4.36 5.34 3 5 C3 4.34 3 3.68 3 3 C2.34 3 1.68 3 1 3 C0.67 2.01 0.34 1.02 0 0 Z " fill="#579FB7" transform="translate(345,190)"/>
<path d="M0 0 C0.66 0.33 1.32 0.66 2 1 C1.67 1.66 1.34 2.32 1 3 C2.32 3.33 3.64 3.66 5 4 C4.38125 4.12375 3.7625 4.2475 3.125 4.375 C0.80879168 4.87197356 0.80879168 4.87197356 -1 7 C-1.66 5.35 -2.32 3.7 -3 2 C-2.01 2 -1.02 2 0 2 C0 1.34 0 0.68 0 0 Z " fill="#B31923" transform="translate(369,83)"/>
<path d="M0 0 C7.50769231 0.61538462 7.50769231 0.61538462 10 2.5625 C10.33 3.036875 10.66 3.51125 11 4 C6.44262737 3.56179109 3.42346555 3.14958831 0 0 Z " fill="#873139" transform="translate(238,289)"/>
<path d="M0 0 C0.75 1.625 0.75 1.625 1 4 C-0.9375 7.25 -0.9375 7.25 -3 10 C-3.33 8.68 -3.66 7.36 -4 6 C-3.34 5.67 -2.68 5.34 -2 5 C-1.27840576 3.35636866 -0.60648579 1.68949614 0 0 Z " fill="#659EB7" transform="translate(304,255)"/>
<path d="M0 0 C1.5 1.25 1.5 1.25 3 3 C3 4.32 3 5.64 3 7 C1.68 6.34 0.36 5.68 -1 5 C-0.67 3.35 -0.34 1.7 0 0 Z " fill="#B06260" transform="translate(399,102)"/>
<path d="M0 0 C3.63 0.66 7.26 1.32 11 2 C11 2.66 11 3.32 11 4 C7.31733897 3.40049704 3.65456815 2.75241109 0 2 C0 1.34 0 0.68 0 0 Z " fill="#982A32" transform="translate(358,81)"/>
<path d="M0 0 C0 0.66 0 1.32 0 2 C-0.66 2 -1.32 2 -2 2 C-2 2.99 -2 3.98 -2 5 C-3.98 5.33 -5.96 5.66 -8 6 C-3.375 0 -3.375 0 0 0 Z " fill="#A02D33" transform="translate(283,289)"/>
<path d="M0 0 C0.66 1.32 1.32 2.64 2 4 C2.66 4 3.32 4 4 4 C4.33 4.99 4.66 5.98 5 7 C1.34683329 5.75023244 0.21934164 5.32901247 -2 2 C-1.34 2 -0.68 2 0 2 C0 1.34 0 0.68 0 0 Z " fill="#41B4D9" transform="translate(344,189)"/>
<path d="M0 0 C0.33 0 0.66 0 1 0 C1 2.64 1 5.28 1 8 C-0.65 8 -2.3 8 -4 8 C-3.67 7.34 -3.34 6.68 -3 6 C-2.34 6 -1.68 6 -1 6 C-0.67 4.02 -0.34 2.04 0 0 Z " fill="#8BAD5E" transform="translate(351,178)"/>
<path d="M0 0 C1.125 1.625 1.125 1.625 2 4 C1.125 7.25 1.125 7.25 0 10 C-0.66 10 -1.32 10 -2 10 C-1.85950482 8.52031676 -1.71245174 7.04125484 -1.5625 5.5625 C-1.48128906 4.73878906 -1.40007812 3.91507813 -1.31640625 3.06640625 C-1 1 -1 1 0 0 Z " fill="#A5C837" transform="translate(423,151)"/>
<path d="M0 0 C1.32 0.33 2.64 0.66 4 1 C3.01 1.495 3.01 1.495 2 2 C2 3.65 2 5.3 2 7 C1.01 7.495 1.01 7.495 0 8 C0 5.36 0 2.72 0 0 Z " fill="#B32633" transform="translate(184,122)"/>
<path d="M0 0 C0.99 0 1.98 0 3 0 C3 0.99 3 1.98 3 3 C3.66 3.33 4.32 3.66 5 4 C4.01 4.33 3.02 4.66 2 5 C1.01 4.34 0.02 3.68 -1 3 C-0.67 2.01 -0.34 1.02 0 0 Z " fill="#A3242D" transform="translate(264,116)"/>
<path d="M0 0 C-2.97 0.66 -5.94 1.32 -9 2 C-8.67 1.01 -8.34 0.02 -8 -1 C-4.40321889 -2.61235015 -3.79177789 -1.89588895 0 0 Z " fill="#8D2B2E" transform="translate(212,107)"/>
<path d="M0 0 C1.37562854 1.28965176 2.70766393 2.62689293 4 4 C4 4.66 4 5.32 4 6 C4.66 6 5.32 6 6 6 C5.67 6.99 5.34 7.98 5 9 C0 3.375 0 3.375 0 0 Z " fill="#97262C" transform="translate(196,253)"/>
<path d="M0 0 C0.33 0.66 0.66 1.32 1 2 C1.66 2 2.32 2 3 2 C3.33 3.65 3.66 5.3 4 7 C3.01 7.33 2.02 7.66 1 8 C0.67 5.36 0.34 2.72 0 0 Z " fill="#51AFDB" transform="translate(278,215)"/>
<path d="M0 0 C0.33 2.31 0.66 4.62 1 7 C0.01 7.495 0.01 7.495 -1 8 C-1.66 5.69 -2.32 3.38 -3 1 C-1 0 -1 0 0 0 Z " fill="#992F38" transform="translate(164,193)"/>
<path d="M0 0 C0.33 1.32 0.66 2.64 1 4 C0.01 4.33 -0.98 4.66 -2 5 C-2 5.66 -2 6.32 -2 7 C-2.66 7 -3.32 7 -4 7 C-3.6875 5.0625 -3.6875 5.0625 -3 3 C-2.01 2.67 -1.02 2.34 0 2 C0 1.34 0 0.68 0 0 Z " fill="#98C435" transform="translate(367,165)"/>
<path d="M0 0 C0.66 0 1.32 0 2 0 C1.6875 1.875 1.6875 1.875 1 4 C0.01 4.66 -0.98 5.32 -2 6 C-2.66 5.34 -3.32 4.68 -4 4 C-3.34 4 -2.68 4 -2 4 C-1.34 2.68 -0.68 1.36 0 0 Z " fill="#95D02D" transform="translate(404,158)"/>
<path d="M0 0 C0.99 0.33 1.98 0.66 3 1 C2.01 2.485 2.01 2.485 1 4 C0.34 4 -0.32 4 -1 4 C-1 4.66 -1 5.32 -1 6 C-1.66 6 -2.32 6 -3 6 C-1.125 1.125 -1.125 1.125 0 0 Z " fill="#96323B" transform="translate(168,96)"/>
<path d="" fill="#FFFFFF" transform="translate(0,0)"/>
<path d="" fill="#FFFFFF" transform="translate(0,0)"/>
<path d="" fill="#FFFFFF" transform="translate(0,0)"/>
<path d="" fill="#FFFFFF" transform="translate(0,0)"/>
<path d="" fill="#FFFFFF" transform="translate(0,0)"/>
<path d="" fill="#FFFFFF" transform="translate(0,0)"/>
<path d="" fill="#FFFFFF" transform="translate(0,0)"/>
<path d="" fill="#FFFFFF" transform="translate(0,0)"/>
<path d="" fill="#FFFFFF" transform="translate(0,0)"/>
<path d="" fill="#FFFFFF" transform="translate(0,0)"/>
<path d="" fill="#FFFFFF" transform="translate(0,0)"/>
<path d="" fill="#FFFFFF" transform="translate(0,0)"/>
<path d="" fill="#FFFFFF" transform="translate(0,0)"/>
<path d="" fill="#FFFFFF" transform="translate(0,0)"/>
<path d="" fill="#FFFFFF" transform="translate(0,0)"/>
<path d="" fill="#FFFFFF" transform="translate(0,0)"/>
<path d="" fill="#FFFFFF" transform="translate(0,0)"/>
<path d="" fill="#FFFFFF" transform="translate(0,0)"/>
<path d="" fill="#FFFFFF" transform="translate(0,0)"/>
<path d="" fill="#FFFFFF" transform="translate(0,0)"/>
<path d="" fill="#FFFFFF" transform="translate(0,0)"/>
<path d="" fill="#FFFFFF" transform="translate(0,0)"/>
<path d="" fill="#FFFFFF" transform="translate(0,0)"/>
<path d="" fill="#FFFFFF" transform="translate(0,0)"/>
<path d="" fill="#FFFFFF" transform="translate(0,0)"/>
<path d="" fill="#FFFFFF" transform="translate(0,0)"/>
<path d="" fill="#FFFFFF" transform="translate(0,0)"/>
<path d="" fill="#FFFFFF" transform="translate(0,0)"/>
<path d="" fill="#FFFFFF" transform="translate(0,0)"/>
<path d="" fill="#FFFFFF" transform="translate(0,0)"/>
<path d="" fill="#FFFFFF" transform="translate(0,0)"/>
<path d="" fill="#FFFFFF" transform="translate(0,0)"/>
<path d="" fill="#FFFFFF" transform="translate(0,0)"/>
<path d="" fill="#FFFFFF" transform="translate(0,0)"/>
<path d="" fill="#FFFFFF" transform="translate(0,0)"/>
<path d="" fill="#FFFFFF" transform="translate(0,0)"/>
<path d="" fill="#FFFFFF" transform="translate(0,0)"/>
<path d="" fill="#FFFFFF" transform="translate(0,0)"/>
<path d="" fill="#FFFFFF" transform="translate(0,0)"/>
<path d="" fill="#FFFFFF" transform="translate(0,0)"/>
<path d="" fill="#FFFFFF" transform="translate(0,0)"/>
<path d="" fill="#FFFFFF" transform="translate(0,0)"/>
<path d="" fill="#FFFFFF" transform="translate(0,0)"/>
<path d="" fill="#FFFFFF" transform="translate(0,0)"/>
<path d="" fill="#FFFFFF" transform="translate(0,0)"/>
<path d="" fill="#FFFF00" transform="translate(0,0)"/>
<path d="" fill="#FFFFFF" transform="translate(0,0)"/>
<path d="" fill="#FFFFFF" transform="translate(0,0)"/>
<path d="" fill="#FFFFFF" transform="translate(0,0)"/>
<path d="" fill="#FFFFFF" transform="translate(0,0)"/>
<path d="" fill="#FFFFFF" transform="translate(0,0)"/>
<path d="" fill="#FFFFFF" transform="translate(0,0)"/>
<path d="" fill="#FFFFFF" transform="translate(0,0)"/>
<path d="" fill="#FFFFFF" transform="translate(0,0)"/>
<path d="" fill="#FFFFFF" transform="translate(0,0)"/>
<path d="" fill="#FFFFFF" transform="translate(0,0)"/>
<path d="" fill="#FFFFFF" transform="translate(0,0)"/>
<path d="" fill="#FFFFFF" transform="translate(0,0)"/>
<path d="" fill="#FFFFFF" transform="translate(0,0)"/>
<path d="" fill="#FFFFFF" transform="translate(0,0)"/>
<path d="" fill="#FFFFFF" transform="translate(0,0)"/>
<path d="" fill="#FFFFFF" transform="translate(0,0)"/>
<path d="" fill="#FFFFFF" transform="translate(0,0)"/>
<path d="" fill="#FFFFFF" transform="translate(0,0)"/>
<path d="" fill="#FFFFFF" transform="translate(0,0)"/>
<path d="" fill="#FFFFFF" transform="translate(0,0)"/>
<path d="" fill="#FFFFFF" transform="translate(0,0)"/>
<path d="" fill="#FFFFFF" transform="translate(0,0)"/>
<path d="" fill="#FFFFFF" transform="translate(0,0)"/>
<path d="" fill="#FFFFFF" transform="translate(0,0)"/>
<path d="" fill="#FFFFFF" transform="translate(0,0)"/>
<path d="" fill="#FFFFFF" transform="translate(0,0)"/>
<path d="" fill="#FFFFFF" transform="translate(0,0)"/>
<path d="" fill="#FFFFFF" transform="translate(0,0)"/>
<path d="" fill="#FFFFFF" transform="translate(0,0)"/>
<path d="" fill="#FFFFFF" transform="translate(0,0)"/>
<path d="" fill="#FFFFFF" transform="translate(0,0)"/>
<path d="" fill="#FFFFFF" transform="translate(0,0)"/>
<path d="" fill="#FFFFFF" transform="translate(0,0)"/>
<path d="" fill="#FFFFFF" transform="translate(0,0)"/>
</svg>
